%TF.GenerationSoftware,KiCad,Pcbnew,9.0.4*%
%TF.CreationDate,2026-02-21T19:48:22-06:00*%
%TF.ProjectId,beaglebone_can_cape,62656167-6c65-4626-9f6e-655f63616e5f,rev?*%
%TF.SameCoordinates,PX5f5e100PY5f5e100*%
%TF.FileFunction,Legend,Bot*%
%TF.FilePolarity,Positive*%
%FSLAX46Y46*%
G04 Gerber Fmt 4.6, Leading zero omitted, Abs format (unit mm)*
G04 Created by KiCad (PCBNEW 9.0.4) date 2026-02-21 19:48:22*
%MOMM*%
%LPD*%
G01*
G04 APERTURE LIST*
%ADD10C,0.153000*%
%ADD11C,0.120000*%
G04 APERTURE END LIST*
D10*
X42294195Y41522877D02*
X42294195Y41764782D01*
X42294195Y41764782D02*
X42354671Y41885734D01*
X42354671Y41885734D02*
X42415147Y41946210D01*
X42415147Y41946210D02*
X42596576Y42067163D01*
X42596576Y42067163D02*
X42838480Y42127639D01*
X42838480Y42127639D02*
X43322290Y42127639D01*
X43322290Y42127639D02*
X43443242Y42067163D01*
X43443242Y42067163D02*
X43503719Y42006686D01*
X43503719Y42006686D02*
X43564195Y41885734D01*
X43564195Y41885734D02*
X43564195Y41643829D01*
X43564195Y41643829D02*
X43503719Y41522877D01*
X43503719Y41522877D02*
X43443242Y41462401D01*
X43443242Y41462401D02*
X43322290Y41401924D01*
X43322290Y41401924D02*
X43019909Y41401924D01*
X43019909Y41401924D02*
X42898957Y41462401D01*
X42898957Y41462401D02*
X42838480Y41522877D01*
X42838480Y41522877D02*
X42778004Y41643829D01*
X42778004Y41643829D02*
X42778004Y41885734D01*
X42778004Y41885734D02*
X42838480Y42006686D01*
X42838480Y42006686D02*
X42898957Y42067163D01*
X42898957Y42067163D02*
X43019909Y42127639D01*
X43564195Y12191924D02*
X43564195Y12917639D01*
X43564195Y12554782D02*
X42294195Y12554782D01*
X42294195Y12554782D02*
X42475623Y12675734D01*
X42475623Y12675734D02*
X42596576Y12796686D01*
X42596576Y12796686D02*
X42657052Y12917639D01*
X59439195Y12191924D02*
X59439195Y12917639D01*
X59439195Y12554782D02*
X58169195Y12554782D01*
X58169195Y12554782D02*
X58350623Y12675734D01*
X58350623Y12675734D02*
X58471576Y12796686D01*
X58471576Y12796686D02*
X58532052Y12917639D01*
X58290147Y11708115D02*
X58229671Y11647639D01*
X58229671Y11647639D02*
X58169195Y11526686D01*
X58169195Y11526686D02*
X58169195Y11224305D01*
X58169195Y11224305D02*
X58229671Y11103353D01*
X58229671Y11103353D02*
X58290147Y11042877D01*
X58290147Y11042877D02*
X58411099Y10982400D01*
X58411099Y10982400D02*
X58532052Y10982400D01*
X58532052Y10982400D02*
X58713480Y11042877D01*
X58713480Y11042877D02*
X59439195Y11768591D01*
X59439195Y11768591D02*
X59439195Y10982400D01*
X58169195Y42188115D02*
X58169195Y41341448D01*
X58169195Y41341448D02*
X59439195Y41885734D01*
D11*
%TO.C,J4*%
X13225000Y12095000D02*
X13225000Y10715000D01*
X13225000Y9445000D02*
X13225000Y6795000D01*
X13225000Y6795000D02*
X18525000Y6795000D01*
X14605000Y12095000D02*
X13225000Y12095000D01*
X15875000Y12095000D02*
X15875000Y9445000D01*
X15875000Y12095000D02*
X18525000Y12095000D01*
X15875000Y9445000D02*
X13225000Y9445000D01*
X18525000Y12095000D02*
X18525000Y6795000D01*
%TD*%
M02*
