%TF.GenerationSoftware,KiCad,Pcbnew,9.0.4*%
%TF.CreationDate,2026-02-21T19:48:22-06:00*%
%TF.ProjectId,beaglebone_can_cape,62656167-6c65-4626-9f6e-655f63616e5f,rev?*%
%TF.SameCoordinates,PX5f5e100PY5f5e100*%
%TF.FileFunction,Copper,L2,Bot*%
%TF.FilePolarity,Positive*%
%FSLAX46Y46*%
G04 Gerber Fmt 4.6, Leading zero omitted, Abs format (unit mm)*
G04 Created by KiCad (PCBNEW 9.0.4) date 2026-02-21 19:48:22*
%MOMM*%
%LPD*%
G01*
G04 APERTURE LIST*
G04 Aperture macros list*
%AMRoundRect*
0 Rectangle with rounded corners*
0 $1 Rounding radius*
0 $2 $3 $4 $5 $6 $7 $8 $9 X,Y pos of 4 corners*
0 Add a 4 corners polygon primitive as box body*
4,1,4,$2,$3,$4,$5,$6,$7,$8,$9,$2,$3,0*
0 Add four circle primitives for the rounded corners*
1,1,$1+$1,$2,$3*
1,1,$1+$1,$4,$5*
1,1,$1+$1,$6,$7*
1,1,$1+$1,$8,$9*
0 Add four rect primitives between the rounded corners*
20,1,$1+$1,$2,$3,$4,$5,0*
20,1,$1+$1,$4,$5,$6,$7,0*
20,1,$1+$1,$6,$7,$8,$9,0*
20,1,$1+$1,$8,$9,$2,$3,0*%
G04 Aperture macros list end*
%TA.AperFunction,ComponentPad*%
%ADD10R,1.700000X1.700000*%
%TD*%
%TA.AperFunction,ComponentPad*%
%ADD11C,1.700000*%
%TD*%
%TA.AperFunction,ComponentPad*%
%ADD12C,2.794000*%
%TD*%
%TA.AperFunction,ComponentPad*%
%ADD13RoundRect,0.270000X1.000000X0.630000X-1.000000X0.630000X-1.000000X-0.630000X1.000000X-0.630000X0*%
%TD*%
%TA.AperFunction,ViaPad*%
%ADD14C,1.000000*%
%TD*%
%TA.AperFunction,ViaPad*%
%ADD15C,0.900000*%
%TD*%
%TA.AperFunction,ViaPad*%
%ADD16C,1.500000*%
%TD*%
%TA.AperFunction,ViaPad*%
%ADD17C,0.600000*%
%TD*%
%TA.AperFunction,Conductor*%
%ADD18C,0.300000*%
%TD*%
%TA.AperFunction,Conductor*%
%ADD19C,0.250000*%
%TD*%
%TA.AperFunction,Conductor*%
%ADD20C,1.400000*%
%TD*%
G04 APERTURE END LIST*
D10*
%TO.P,P8,1,Pin_1*%
%TO.N,GND*%
X19685000Y50165000D03*
D11*
%TO.P,P8,2,Pin_2*%
X19685000Y52705000D03*
%TO.P,P8,3,Pin_3*%
%TO.N,unconnected-(P8-Pin_3-Pad3)*%
X22225000Y50165000D03*
%TO.P,P8,4,Pin_4*%
%TO.N,unconnected-(P8-Pin_4-Pad4)*%
X22225000Y52705000D03*
%TO.P,P8,5,Pin_5*%
%TO.N,unconnected-(P8-Pin_5-Pad5)*%
X24765000Y50165000D03*
%TO.P,P8,6,Pin_6*%
%TO.N,unconnected-(P8-Pin_6-Pad6)*%
X24765000Y52705000D03*
%TO.P,P8,7,Pin_7*%
%TO.N,unconnected-(P8-Pin_7-Pad7)*%
X27305000Y50165000D03*
%TO.P,P8,8,Pin_8*%
%TO.N,unconnected-(P8-Pin_8-Pad8)*%
X27305000Y52705000D03*
%TO.P,P8,9,Pin_9*%
%TO.N,unconnected-(P8-Pin_9-Pad9)*%
X29845000Y50165000D03*
%TO.P,P8,10,Pin_10*%
%TO.N,unconnected-(P8-Pin_10-Pad10)*%
X29845000Y52705000D03*
%TO.P,P8,11,Pin_11*%
%TO.N,unconnected-(P8-Pin_11-Pad11)*%
X32385000Y50165000D03*
%TO.P,P8,12,Pin_12*%
%TO.N,unconnected-(P8-Pin_12-Pad12)*%
X32385000Y52705000D03*
%TO.P,P8,13,Pin_13*%
%TO.N,unconnected-(P8-Pin_13-Pad13)*%
X34925000Y50165000D03*
%TO.P,P8,14,Pin_14*%
%TO.N,unconnected-(P8-Pin_14-Pad14)*%
X34925000Y52705000D03*
%TO.P,P8,15,Pin_15*%
%TO.N,unconnected-(P8-Pin_15-Pad15)*%
X37465000Y50165000D03*
%TO.P,P8,16,Pin_16*%
%TO.N,unconnected-(P8-Pin_16-Pad16)*%
X37465000Y52705000D03*
%TO.P,P8,17,Pin_17*%
%TO.N,unconnected-(P8-Pin_17-Pad17)*%
X40005000Y50165000D03*
%TO.P,P8,18,Pin_18*%
%TO.N,unconnected-(P8-Pin_18-Pad18)*%
X40005000Y52705000D03*
%TO.P,P8,19,Pin_19*%
%TO.N,unconnected-(P8-Pin_19-Pad19)*%
X42545000Y50165000D03*
%TO.P,P8,20,Pin_20*%
%TO.N,unconnected-(P8-Pin_20-Pad20)*%
X42545000Y52705000D03*
%TO.P,P8,21,Pin_21*%
%TO.N,unconnected-(P8-Pin_21-Pad21)*%
X45085000Y50165000D03*
%TO.P,P8,22,Pin_22*%
%TO.N,unconnected-(P8-Pin_22-Pad22)*%
X45085000Y52705000D03*
%TO.P,P8,23,Pin_23*%
%TO.N,unconnected-(P8-Pin_23-Pad23)*%
X47625000Y50165000D03*
%TO.P,P8,24,Pin_24*%
%TO.N,unconnected-(P8-Pin_24-Pad24)*%
X47625000Y52705000D03*
%TO.P,P8,25,Pin_25*%
%TO.N,unconnected-(P8-Pin_25-Pad25)*%
X50165000Y50165000D03*
%TO.P,P8,26,Pin_26*%
%TO.N,unconnected-(P8-Pin_26-Pad26)*%
X50165000Y52705000D03*
%TO.P,P8,27,Pin_27*%
%TO.N,unconnected-(P8-Pin_27-Pad27)*%
X52705000Y50165000D03*
%TO.P,P8,28,Pin_28*%
%TO.N,unconnected-(P8-Pin_28-Pad28)*%
X52705000Y52705000D03*
%TO.P,P8,29,Pin_29*%
%TO.N,unconnected-(P8-Pin_29-Pad29)*%
X55245000Y50165000D03*
%TO.P,P8,30,Pin_30*%
%TO.N,unconnected-(P8-Pin_30-Pad30)*%
X55245000Y52705000D03*
%TO.P,P8,31,Pin_31*%
%TO.N,unconnected-(P8-Pin_31-Pad31)*%
X57785000Y50165000D03*
%TO.P,P8,32,Pin_32*%
%TO.N,unconnected-(P8-Pin_32-Pad32)*%
X57785000Y52705000D03*
%TO.P,P8,33,Pin_33*%
%TO.N,unconnected-(P8-Pin_33-Pad33)*%
X60325000Y50165000D03*
%TO.P,P8,34,Pin_34*%
%TO.N,unconnected-(P8-Pin_34-Pad34)*%
X60325000Y52705000D03*
%TO.P,P8,35,Pin_35*%
%TO.N,unconnected-(P8-Pin_35-Pad35)*%
X62865000Y50165000D03*
%TO.P,P8,36,Pin_36*%
%TO.N,unconnected-(P8-Pin_36-Pad36)*%
X62865000Y52705000D03*
%TO.P,P8,37,Pin_37*%
%TO.N,unconnected-(P8-Pin_37-Pad37)*%
X65405000Y50165000D03*
%TO.P,P8,38,Pin_38*%
%TO.N,unconnected-(P8-Pin_38-Pad38)*%
X65405000Y52705000D03*
%TO.P,P8,39,Pin_39*%
%TO.N,unconnected-(P8-Pin_39-Pad39)*%
X67945000Y50165000D03*
%TO.P,P8,40,Pin_40*%
%TO.N,unconnected-(P8-Pin_40-Pad40)*%
X67945000Y52705000D03*
%TO.P,P8,41,Pin_41*%
%TO.N,unconnected-(P8-Pin_41-Pad41)*%
X70485000Y50165000D03*
%TO.P,P8,42,Pin_42*%
%TO.N,unconnected-(P8-Pin_42-Pad42)*%
X70485000Y52705000D03*
%TO.P,P8,43,Pin_43*%
%TO.N,unconnected-(P8-Pin_43-Pad43)*%
X73025000Y50165000D03*
%TO.P,P8,44,Pin_44*%
%TO.N,unconnected-(P8-Pin_44-Pad44)*%
X73025000Y52705000D03*
%TO.P,P8,45,Pin_45*%
%TO.N,unconnected-(P8-Pin_45-Pad45)*%
X75565000Y50165000D03*
%TO.P,P8,46,Pin_46*%
%TO.N,unconnected-(P8-Pin_46-Pad46)*%
X75565000Y52705000D03*
%TD*%
D10*
%TO.P,P9,1,Pin_1*%
%TO.N,GND*%
X19685000Y1905000D03*
D11*
%TO.P,P9,2,Pin_2*%
X19685000Y4445000D03*
%TO.P,P9,3,Pin_3*%
%TO.N,+3.3V*%
X22225000Y1905000D03*
%TO.P,P9,4,Pin_4*%
X22225000Y4445000D03*
%TO.P,P9,5,Pin_5*%
%TO.N,unconnected-(P9-Pin_5-Pad5)*%
X24765000Y1905000D03*
%TO.P,P9,6,Pin_6*%
%TO.N,+5V*%
X24765000Y4445000D03*
%TO.P,P9,7,Pin_7*%
%TO.N,unconnected-(P9-Pin_7-Pad7)*%
X27305000Y1905000D03*
%TO.P,P9,8,Pin_8*%
%TO.N,unconnected-(P9-Pin_8-Pad8)*%
X27305000Y4445000D03*
%TO.P,P9,9,Pin_9*%
%TO.N,unconnected-(P9-Pin_9-Pad9)*%
X29845000Y1905000D03*
%TO.P,P9,10,Pin_10*%
%TO.N,unconnected-(P9-Pin_10-Pad10)*%
X29845000Y4445000D03*
%TO.P,P9,11,Pin_11*%
%TO.N,unconnected-(P9-Pin_11-Pad11)*%
X32385000Y1905000D03*
%TO.P,P9,12,Pin_12*%
%TO.N,unconnected-(P9-Pin_12-Pad12)*%
X32385000Y4445000D03*
%TO.P,P9,13,Pin_13*%
%TO.N,unconnected-(P9-Pin_13-Pad13)*%
X34925000Y1905000D03*
%TO.P,P9,14,Pin_14*%
%TO.N,unconnected-(P9-Pin_14-Pad14)*%
X34925000Y4445000D03*
%TO.P,P9,15,Pin_15*%
%TO.N,unconnected-(P9-Pin_15-Pad15)*%
X37465000Y1905000D03*
%TO.P,P9,16,Pin_16*%
%TO.N,unconnected-(P9-Pin_16-Pad16)*%
X37465000Y4445000D03*
%TO.P,P9,17,Pin_17*%
%TO.N,unconnected-(P9-Pin_17-Pad17)*%
X40005000Y1905000D03*
%TO.P,P9,18,Pin_18*%
%TO.N,unconnected-(P9-Pin_18-Pad18)*%
X40005000Y4445000D03*
%TO.P,P9,19,Pin_19*%
%TO.N,/I2C2.SCL*%
X42545000Y1905000D03*
%TO.P,P9,20,Pin_20*%
%TO.N,/I2C2.SDA*%
X42545000Y4445000D03*
%TO.P,P9,21,Pin_21*%
%TO.N,/GPIO3*%
X45085000Y1905000D03*
%TO.P,P9,22,Pin_22*%
%TO.N,/GPIO2*%
X45085000Y4445000D03*
%TO.P,P9,23,Pin_23*%
%TO.N,unconnected-(P9-Pin_23-Pad23)*%
X47625000Y1905000D03*
%TO.P,P9,24,Pin_24*%
%TO.N,/GPIO15*%
X47625000Y4445000D03*
%TO.P,P9,25,Pin_25*%
%TO.N,unconnected-(P9-Pin_25-Pad25)*%
X50165000Y1905000D03*
%TO.P,P9,26,Pin_26*%
%TO.N,/GPIO14*%
X50165000Y4445000D03*
%TO.P,P9,27,Pin_27*%
%TO.N,unconnected-(P9-Pin_27-Pad27)*%
X52705000Y1905000D03*
%TO.P,P9,28,Pin_28*%
%TO.N,unconnected-(P9-Pin_28-Pad28)*%
X52705000Y4445000D03*
%TO.P,P9,29,Pin_29*%
%TO.N,unconnected-(P9-Pin_29-Pad29)*%
X55245000Y1905000D03*
%TO.P,P9,30,Pin_30*%
%TO.N,unconnected-(P9-Pin_30-Pad30)*%
X55245000Y4445000D03*
%TO.P,P9,31,Pin_31*%
%TO.N,unconnected-(P9-Pin_31-Pad31)*%
X57785000Y1905000D03*
%TO.P,P9,32,Pin_32*%
%TO.N,unconnected-(P9-Pin_32-Pad32)*%
X57785000Y4445000D03*
%TO.P,P9,33,Pin_33*%
%TO.N,unconnected-(P9-Pin_33-Pad33)*%
X60325000Y1905000D03*
%TO.P,P9,34,Pin_34*%
%TO.N,unconnected-(P9-Pin_34-Pad34)*%
X60325000Y4445000D03*
%TO.P,P9,35,Pin_35*%
%TO.N,unconnected-(P9-Pin_35-Pad35)*%
X62865000Y1905000D03*
%TO.P,P9,36,Pin_36*%
%TO.N,unconnected-(P9-Pin_36-Pad36)*%
X62865000Y4445000D03*
%TO.P,P9,37,Pin_37*%
%TO.N,unconnected-(P9-Pin_37-Pad37)*%
X65405000Y1905000D03*
%TO.P,P9,38,Pin_38*%
%TO.N,unconnected-(P9-Pin_38-Pad38)*%
X65405000Y4445000D03*
%TO.P,P9,39,Pin_39*%
%TO.N,unconnected-(P9-Pin_39-Pad39)*%
X67945000Y1905000D03*
%TO.P,P9,40,Pin_40*%
%TO.N,unconnected-(P9-Pin_40-Pad40)*%
X67945000Y4445000D03*
%TO.P,P9,41,Pin_41*%
%TO.N,unconnected-(P9-Pin_41-Pad41)*%
X70485000Y1905000D03*
%TO.P,P9,42,Pin_42*%
%TO.N,unconnected-(P9-Pin_42-Pad42)*%
X70485000Y4445000D03*
%TO.P,P9,43,Pin_43*%
%TO.N,GND*%
X73025000Y1905000D03*
%TO.P,P9,44,Pin_44*%
X73025000Y4445000D03*
%TO.P,P9,45,Pin_45*%
X75565000Y1905000D03*
%TO.P,P9,46,Pin_46*%
X75565000Y4445000D03*
%TD*%
D10*
%TO.P,JP2,1,A*%
%TO.N,CAN HIGH 1*%
X78170000Y28750000D03*
D11*
%TO.P,JP2,2,B*%
%TO.N,Net-(JP2-B)*%
X80710000Y28750000D03*
%TD*%
D12*
%TO.P,J3,1,1*%
%TO.N,+24V*%
X46620000Y16105000D03*
%TO.P,J3,2,2*%
%TO.N,CAN HIGH 0*%
X46620000Y20550000D03*
%TO.P,J3,3,3*%
X46620000Y24995000D03*
%TO.P,J3,4,4*%
%TO.N,CAN LOW 0*%
X46620000Y29440000D03*
%TO.P,J3,5,5*%
X46620000Y33885000D03*
%TO.P,J3,6,6*%
%TO.N,GND*%
X46620000Y38330000D03*
%TO.P,J3,7,7*%
%TO.N,CAN LOW 1*%
X55764000Y38330000D03*
%TO.P,J3,8,8*%
X55764000Y33885000D03*
%TO.P,J3,9,9*%
%TO.N,CAN HIGH 1*%
X55764000Y29440000D03*
%TO.P,J3,10,10*%
X55764000Y24995000D03*
%TO.P,J3,11,11*%
%TO.N,GND*%
X55764000Y20550000D03*
%TO.P,J3,12,12*%
X55764000Y16105000D03*
%TD*%
D10*
%TO.P,JP3,1,A*%
%TO.N,Net-(J4-Pin_3)*%
X17160002Y14490000D03*
D11*
%TO.P,JP3,2,B*%
%TO.N,Net-(JP3-B)*%
X14620002Y14490000D03*
%TD*%
D10*
%TO.P,J1,1,Pin_1*%
%TO.N,CAN HIGH 0*%
X67340000Y36175002D03*
D11*
%TO.P,J1,2,Pin_2*%
%TO.N,CAN LOW 0*%
X69880000Y36175002D03*
%TD*%
D10*
%TO.P,J2,1,Pin_1*%
%TO.N,CAN HIGH 1*%
X78185000Y36000000D03*
D11*
%TO.P,J2,2,Pin_2*%
%TO.N,CAN LOW 1*%
X80725000Y36000000D03*
%TD*%
D13*
%TO.P,J5,1,Vout*%
%TO.N,Net-(J4-Pin_1)*%
X8650000Y8530000D03*
%TO.P,J5,2,Gnd*%
%TO.N,GND*%
X8650000Y10530000D03*
%TD*%
D10*
%TO.P,JP1,1,A*%
%TO.N,CAN HIGH 0*%
X67340000Y28675002D03*
D11*
%TO.P,JP1,2,B*%
%TO.N,Net-(JP1-B)*%
X69880000Y28675002D03*
%TD*%
D10*
%TO.P,J4,1,Pin_1*%
%TO.N,Net-(J4-Pin_1)*%
X14605000Y10715000D03*
D11*
%TO.P,J4,2,Pin_2*%
X14605000Y8175000D03*
%TO.P,J4,3,Pin_3*%
%TO.N,Net-(J4-Pin_3)*%
X17145000Y10715000D03*
%TO.P,J4,4,Pin_4*%
%TO.N,GND*%
X17145000Y8175000D03*
%TD*%
D14*
%TO.N,/I2C2.SCL*%
X73575000Y17250000D03*
D15*
X74550000Y15600000D03*
D14*
%TO.N,/GPIO15*%
X66825000Y6475000D03*
X50875000Y6475000D03*
D15*
%TO.N,CAN HIGH 1*%
X65420000Y40210000D03*
X64580000Y35120000D03*
D16*
%TO.N,GND*%
X24870000Y10010000D03*
X31700000Y38800000D03*
D17*
X81400000Y11800000D03*
X76700000Y15100000D03*
D15*
X11760000Y11860000D03*
X26200000Y14300000D03*
D17*
X82700000Y12900000D03*
D15*
X37500000Y7050000D03*
X69250000Y16900000D03*
X79625000Y16975000D03*
D17*
X83800000Y11500000D03*
D16*
X26420000Y11900000D03*
X33900000Y39700000D03*
D15*
X77420000Y43650000D03*
D17*
X78200000Y16700000D03*
X79500000Y13200000D03*
X68500000Y13500000D03*
X64600000Y14500000D03*
X70000000Y13500000D03*
D16*
X36600000Y39000000D03*
D17*
X66100000Y15400000D03*
X66200000Y14200000D03*
X77700000Y13900000D03*
X77500000Y12300000D03*
D15*
X67170000Y45280000D03*
D17*
X67800000Y11800000D03*
D16*
X25870000Y7950000D03*
D15*
X36620000Y17440000D03*
D14*
%TO.N,+24V*%
X32980000Y16660000D03*
D15*
%TO.N,/GPIO2*%
X53260000Y43450000D03*
%TO.N,/GPIO3*%
X73640000Y46500000D03*
%TD*%
D18*
%TO.N,/I2C2.SCL*%
X73575000Y17250000D02*
X73575000Y16575000D01*
X73575000Y16575000D02*
X74550000Y15600000D01*
%TO.N,/GPIO15*%
X66825000Y6475000D02*
X50875000Y6475000D01*
D19*
%TO.N,CAN HIGH 1*%
X64580000Y35120000D02*
X64580000Y39370000D01*
X64580000Y39370000D02*
X65420000Y40210000D01*
%TO.N,GND*%
X19685000Y4445000D02*
X19685000Y5995000D01*
X17820000Y2380000D02*
X17820000Y5610000D01*
X18275000Y1905000D02*
X17810000Y2370000D01*
X17820000Y5610000D02*
X17820000Y5670000D01*
X17810000Y2370000D02*
X17820000Y2380000D01*
X19685000Y5995000D02*
X20400000Y6710000D01*
X17820000Y5670000D02*
X19600000Y7450000D01*
X19685000Y1905000D02*
X18275000Y1905000D01*
D20*
%TO.N,+24V*%
X33880000Y14960000D02*
X45475000Y14960000D01*
X32980000Y15860000D02*
X33880000Y14960000D01*
X32980000Y16660000D02*
X32980000Y15860000D01*
X45475000Y14960000D02*
X46620000Y16105000D01*
D18*
%TO.N,/GPIO2*%
X51510000Y13970000D02*
X45085000Y7545000D01*
X51510000Y41700000D02*
X51510000Y13970000D01*
X45085000Y7545000D02*
X45085000Y4445000D01*
X53260000Y43450000D02*
X51510000Y41700000D01*
%TO.N,/GPIO3*%
X53670000Y46500000D02*
X50060000Y42890000D01*
X43884000Y8774000D02*
X43884000Y3106000D01*
X50060000Y42890000D02*
X50060000Y14950000D01*
X50060000Y14950000D02*
X43884000Y8774000D01*
X73640000Y46500000D02*
X53670000Y46500000D01*
X43884000Y3106000D02*
X45085000Y1905000D01*
%TD*%
%TA.AperFunction,Conductor*%
%TO.N,GND*%
G36*
X16126564Y9805123D02*
G01*
X16154818Y9783972D01*
X16259996Y9678794D01*
X16432991Y9553106D01*
X16437680Y9550717D01*
X16488478Y9502746D01*
X16505276Y9434926D01*
X16482742Y9368790D01*
X16441205Y9332791D01*
X16441590Y9332162D01*
X16437804Y9329843D01*
X16437702Y9329754D01*
X16437449Y9329626D01*
X16437440Y9329620D01*
X16383282Y9290273D01*
X16383282Y9290272D01*
X17015591Y8657963D01*
X16952007Y8640925D01*
X16837993Y8575099D01*
X16744901Y8482007D01*
X16679075Y8367993D01*
X16662037Y8304409D01*
X16029728Y8936718D01*
X16029727Y8936718D01*
X15990380Y8882560D01*
X15990374Y8882551D01*
X15990246Y8882298D01*
X15990172Y8882220D01*
X15987838Y8878410D01*
X15987036Y8878901D01*
X15942264Y8831510D01*
X15874441Y8814725D01*
X15808309Y8837272D01*
X15769283Y8882320D01*
X15766894Y8887009D01*
X15641206Y9060004D01*
X15536028Y9165182D01*
X15502543Y9226505D01*
X15507527Y9296197D01*
X15549399Y9352130D01*
X15580367Y9369041D01*
X15701204Y9414111D01*
X15818261Y9501739D01*
X15905889Y9618796D01*
X15950957Y9739629D01*
X15992827Y9795558D01*
X16058291Y9819975D01*
X16126564Y9805123D01*
G37*
%TD.AperFunction*%
%TA.AperFunction,Conductor*%
G36*
X19018399Y54089815D02*
G01*
X19064154Y54037011D01*
X19074098Y53967853D01*
X19045073Y53904297D01*
X19007656Y53875016D01*
X18977443Y53859622D01*
X18977440Y53859620D01*
X18923282Y53820273D01*
X18923282Y53820272D01*
X19555591Y53187963D01*
X19492007Y53170925D01*
X19377993Y53105099D01*
X19284901Y53012007D01*
X19219075Y52897993D01*
X19202037Y52834409D01*
X18569728Y53466718D01*
X18569727Y53466718D01*
X18530380Y53412561D01*
X18433904Y53223218D01*
X18368242Y53021131D01*
X18368242Y53021128D01*
X18335000Y52811247D01*
X18335000Y52598754D01*
X18368242Y52388873D01*
X18368242Y52388870D01*
X18433904Y52186783D01*
X18530375Y51997450D01*
X18569728Y51943284D01*
X19202037Y52575592D01*
X19219075Y52512007D01*
X19284901Y52397993D01*
X19377993Y52304901D01*
X19492007Y52239075D01*
X19555590Y52222038D01*
X18886195Y51552644D01*
X18824872Y51519159D01*
X18810167Y51520076D01*
X18810444Y51517503D01*
X18727626Y51508599D01*
X18727619Y51508597D01*
X18592913Y51458355D01*
X18592906Y51458351D01*
X18477812Y51372191D01*
X18477809Y51372188D01*
X18391649Y51257094D01*
X18391645Y51257087D01*
X18341403Y51122380D01*
X18341401Y51122373D01*
X18335000Y51062845D01*
X18335000Y50415000D01*
X19251988Y50415000D01*
X19219075Y50357993D01*
X19185000Y50230826D01*
X19185000Y50099174D01*
X19219075Y49972007D01*
X19251988Y49915000D01*
X18335000Y49915000D01*
X18335000Y49267156D01*
X18341401Y49207628D01*
X18341403Y49207621D01*
X18391645Y49072914D01*
X18391649Y49072907D01*
X18477809Y48957813D01*
X18477812Y48957810D01*
X18592906Y48871650D01*
X18592913Y48871646D01*
X18727620Y48821404D01*
X18727627Y48821402D01*
X18787155Y48815001D01*
X18787172Y48815000D01*
X19435000Y48815000D01*
X19435000Y49731988D01*
X19492007Y49699075D01*
X19619174Y49665000D01*
X19750826Y49665000D01*
X19877993Y49699075D01*
X19935000Y49731988D01*
X19935000Y48815000D01*
X20582828Y48815000D01*
X20582844Y48815001D01*
X20642372Y48821402D01*
X20642379Y48821404D01*
X20777086Y48871646D01*
X20777093Y48871650D01*
X20892187Y48957810D01*
X20892190Y48957813D01*
X20978350Y49072907D01*
X20978355Y49072916D01*
X21024348Y49196230D01*
X21066219Y49252164D01*
X21131683Y49276582D01*
X21199956Y49261731D01*
X21228211Y49240579D01*
X21339996Y49128794D01*
X21512991Y49003106D01*
X21601883Y48957813D01*
X21703516Y48906028D01*
X21703519Y48906027D01*
X21805200Y48872990D01*
X21906884Y48839951D01*
X22118084Y48806500D01*
X22118085Y48806500D01*
X22331915Y48806500D01*
X22331916Y48806500D01*
X22543116Y48839951D01*
X22746483Y48906028D01*
X22937009Y49003106D01*
X23110004Y49128794D01*
X23261206Y49279996D01*
X23386894Y49452991D01*
X23386896Y49452996D01*
X23389270Y49456868D01*
X23441080Y49503746D01*
X23510009Y49515171D01*
X23574173Y49487517D01*
X23600730Y49456868D01*
X23603103Y49452995D01*
X23603106Y49452991D01*
X23728794Y49279996D01*
X23879996Y49128794D01*
X24052991Y49003106D01*
X24141883Y48957813D01*
X24243516Y48906028D01*
X24243519Y48906027D01*
X24345200Y48872990D01*
X24446884Y48839951D01*
X24658084Y48806500D01*
X24658085Y48806500D01*
X24871915Y48806500D01*
X24871916Y48806500D01*
X25083116Y48839951D01*
X25286483Y48906028D01*
X25477009Y49003106D01*
X25650004Y49128794D01*
X25801206Y49279996D01*
X25926894Y49452991D01*
X25926896Y49452996D01*
X25929270Y49456868D01*
X25981080Y49503746D01*
X26050009Y49515171D01*
X26114173Y49487517D01*
X26140730Y49456868D01*
X26143103Y49452995D01*
X26143106Y49452991D01*
X26268794Y49279996D01*
X26419996Y49128794D01*
X26592991Y49003106D01*
X26681883Y48957813D01*
X26783516Y48906028D01*
X26783519Y48906027D01*
X26885200Y48872990D01*
X26986884Y48839951D01*
X27198084Y48806500D01*
X27198085Y48806500D01*
X27411915Y48806500D01*
X27411916Y48806500D01*
X27623116Y48839951D01*
X27826483Y48906028D01*
X28017009Y49003106D01*
X28190004Y49128794D01*
X28341206Y49279996D01*
X28466894Y49452991D01*
X28466896Y49452996D01*
X28469270Y49456868D01*
X28521080Y49503746D01*
X28590009Y49515171D01*
X28654173Y49487517D01*
X28680730Y49456868D01*
X28683103Y49452995D01*
X28683106Y49452991D01*
X28808794Y49279996D01*
X28959996Y49128794D01*
X29132991Y49003106D01*
X29221883Y48957813D01*
X29323516Y48906028D01*
X29323519Y48906027D01*
X29425200Y48872990D01*
X29526884Y48839951D01*
X29738084Y48806500D01*
X29738085Y48806500D01*
X29951915Y48806500D01*
X29951916Y48806500D01*
X30163116Y48839951D01*
X30366483Y48906028D01*
X30557009Y49003106D01*
X30730004Y49128794D01*
X30881206Y49279996D01*
X31006894Y49452991D01*
X31006896Y49452996D01*
X31009270Y49456868D01*
X31061080Y49503746D01*
X31130009Y49515171D01*
X31194173Y49487517D01*
X31220730Y49456868D01*
X31223103Y49452995D01*
X31223106Y49452991D01*
X31348794Y49279996D01*
X31499996Y49128794D01*
X31672991Y49003106D01*
X31761883Y48957813D01*
X31863516Y48906028D01*
X31863519Y48906027D01*
X31965200Y48872990D01*
X32066884Y48839951D01*
X32278084Y48806500D01*
X32278085Y48806500D01*
X32491915Y48806500D01*
X32491916Y48806500D01*
X32703116Y48839951D01*
X32906483Y48906028D01*
X33097009Y49003106D01*
X33270004Y49128794D01*
X33421206Y49279996D01*
X33546894Y49452991D01*
X33546896Y49452996D01*
X33549270Y49456868D01*
X33601080Y49503746D01*
X33670009Y49515171D01*
X33734173Y49487517D01*
X33760730Y49456868D01*
X33763103Y49452995D01*
X33763106Y49452991D01*
X33888794Y49279996D01*
X34039996Y49128794D01*
X34212991Y49003106D01*
X34301883Y48957813D01*
X34403516Y48906028D01*
X34403519Y48906027D01*
X34505200Y48872990D01*
X34606884Y48839951D01*
X34818084Y48806500D01*
X34818085Y48806500D01*
X35031915Y48806500D01*
X35031916Y48806500D01*
X35243116Y48839951D01*
X35446483Y48906028D01*
X35637009Y49003106D01*
X35810004Y49128794D01*
X35961206Y49279996D01*
X36086894Y49452991D01*
X36086896Y49452996D01*
X36089270Y49456868D01*
X36141080Y49503746D01*
X36210009Y49515171D01*
X36274173Y49487517D01*
X36300730Y49456868D01*
X36303103Y49452995D01*
X36303106Y49452991D01*
X36428794Y49279996D01*
X36579996Y49128794D01*
X36752991Y49003106D01*
X36841883Y48957813D01*
X36943516Y48906028D01*
X36943519Y48906027D01*
X37045200Y48872990D01*
X37146884Y48839951D01*
X37358084Y48806500D01*
X37358085Y48806500D01*
X37571915Y48806500D01*
X37571916Y48806500D01*
X37783116Y48839951D01*
X37986483Y48906028D01*
X38177009Y49003106D01*
X38350004Y49128794D01*
X38501206Y49279996D01*
X38626894Y49452991D01*
X38626896Y49452996D01*
X38629270Y49456868D01*
X38681080Y49503746D01*
X38750009Y49515171D01*
X38814173Y49487517D01*
X38840730Y49456868D01*
X38843103Y49452995D01*
X38843106Y49452991D01*
X38968794Y49279996D01*
X39119996Y49128794D01*
X39292991Y49003106D01*
X39381883Y48957813D01*
X39483516Y48906028D01*
X39483519Y48906027D01*
X39585200Y48872990D01*
X39686884Y48839951D01*
X39898084Y48806500D01*
X39898085Y48806500D01*
X40111915Y48806500D01*
X40111916Y48806500D01*
X40323116Y48839951D01*
X40526483Y48906028D01*
X40717009Y49003106D01*
X40890004Y49128794D01*
X41041206Y49279996D01*
X41166894Y49452991D01*
X41166896Y49452996D01*
X41169270Y49456868D01*
X41221080Y49503746D01*
X41290009Y49515171D01*
X41354173Y49487517D01*
X41380730Y49456868D01*
X41383103Y49452995D01*
X41383106Y49452991D01*
X41508794Y49279996D01*
X41659996Y49128794D01*
X41832991Y49003106D01*
X41921883Y48957813D01*
X42023516Y48906028D01*
X42023519Y48906027D01*
X42125200Y48872990D01*
X42226884Y48839951D01*
X42438084Y48806500D01*
X42438085Y48806500D01*
X42651915Y48806500D01*
X42651916Y48806500D01*
X42863116Y48839951D01*
X43066483Y48906028D01*
X43257009Y49003106D01*
X43430004Y49128794D01*
X43581206Y49279996D01*
X43706894Y49452991D01*
X43706896Y49452996D01*
X43709270Y49456868D01*
X43761080Y49503746D01*
X43830009Y49515171D01*
X43894173Y49487517D01*
X43920730Y49456868D01*
X43923103Y49452995D01*
X43923106Y49452991D01*
X44048794Y49279996D01*
X44199996Y49128794D01*
X44372991Y49003106D01*
X44461883Y48957813D01*
X44563516Y48906028D01*
X44563519Y48906027D01*
X44665200Y48872990D01*
X44766884Y48839951D01*
X44978084Y48806500D01*
X44978085Y48806500D01*
X45191915Y48806500D01*
X45191916Y48806500D01*
X45403116Y48839951D01*
X45606483Y48906028D01*
X45797009Y49003106D01*
X45970004Y49128794D01*
X46121206Y49279996D01*
X46246894Y49452991D01*
X46246896Y49452996D01*
X46249270Y49456868D01*
X46301080Y49503746D01*
X46370009Y49515171D01*
X46434173Y49487517D01*
X46460730Y49456868D01*
X46463103Y49452995D01*
X46463106Y49452991D01*
X46588794Y49279996D01*
X46739996Y49128794D01*
X46912991Y49003106D01*
X47001883Y48957813D01*
X47103516Y48906028D01*
X47103519Y48906027D01*
X47205200Y48872990D01*
X47306884Y48839951D01*
X47518084Y48806500D01*
X47518085Y48806500D01*
X47731915Y48806500D01*
X47731916Y48806500D01*
X47943116Y48839951D01*
X48146483Y48906028D01*
X48337009Y49003106D01*
X48510004Y49128794D01*
X48661206Y49279996D01*
X48786894Y49452991D01*
X48786896Y49452996D01*
X48789270Y49456868D01*
X48841080Y49503746D01*
X48910009Y49515171D01*
X48974173Y49487517D01*
X49000730Y49456868D01*
X49003103Y49452995D01*
X49003106Y49452991D01*
X49128794Y49279996D01*
X49279996Y49128794D01*
X49452991Y49003106D01*
X49541883Y48957813D01*
X49643516Y48906028D01*
X49643519Y48906027D01*
X49745200Y48872990D01*
X49846884Y48839951D01*
X50058084Y48806500D01*
X50058085Y48806500D01*
X50271915Y48806500D01*
X50271916Y48806500D01*
X50483116Y48839951D01*
X50686483Y48906028D01*
X50877009Y49003106D01*
X51050004Y49128794D01*
X51201206Y49279996D01*
X51326894Y49452991D01*
X51326896Y49452996D01*
X51329270Y49456868D01*
X51381080Y49503746D01*
X51450009Y49515171D01*
X51514173Y49487517D01*
X51540730Y49456868D01*
X51543103Y49452995D01*
X51543106Y49452991D01*
X51668794Y49279996D01*
X51819996Y49128794D01*
X51992991Y49003106D01*
X52081883Y48957813D01*
X52183516Y48906028D01*
X52183519Y48906027D01*
X52285200Y48872990D01*
X52386884Y48839951D01*
X52598084Y48806500D01*
X52598085Y48806500D01*
X52811915Y48806500D01*
X52811916Y48806500D01*
X53023116Y48839951D01*
X53226483Y48906028D01*
X53417009Y49003106D01*
X53590004Y49128794D01*
X53741206Y49279996D01*
X53866894Y49452991D01*
X53866896Y49452996D01*
X53869270Y49456868D01*
X53921080Y49503746D01*
X53990009Y49515171D01*
X54054173Y49487517D01*
X54080730Y49456868D01*
X54083103Y49452995D01*
X54083106Y49452991D01*
X54208794Y49279996D01*
X54359996Y49128794D01*
X54532991Y49003106D01*
X54621883Y48957813D01*
X54723516Y48906028D01*
X54723519Y48906027D01*
X54825200Y48872990D01*
X54926884Y48839951D01*
X55138084Y48806500D01*
X55138085Y48806500D01*
X55351915Y48806500D01*
X55351916Y48806500D01*
X55563116Y48839951D01*
X55766483Y48906028D01*
X55957009Y49003106D01*
X56130004Y49128794D01*
X56281206Y49279996D01*
X56406894Y49452991D01*
X56406896Y49452996D01*
X56409270Y49456868D01*
X56461080Y49503746D01*
X56530009Y49515171D01*
X56594173Y49487517D01*
X56620730Y49456868D01*
X56623103Y49452995D01*
X56623106Y49452991D01*
X56748794Y49279996D01*
X56899996Y49128794D01*
X57072991Y49003106D01*
X57161883Y48957813D01*
X57263516Y48906028D01*
X57263519Y48906027D01*
X57365200Y48872990D01*
X57466884Y48839951D01*
X57678084Y48806500D01*
X57678085Y48806500D01*
X57891915Y48806500D01*
X57891916Y48806500D01*
X58103116Y48839951D01*
X58306483Y48906028D01*
X58497009Y49003106D01*
X58670004Y49128794D01*
X58821206Y49279996D01*
X58946894Y49452991D01*
X58946896Y49452996D01*
X58949270Y49456868D01*
X59001080Y49503746D01*
X59070009Y49515171D01*
X59134173Y49487517D01*
X59160730Y49456868D01*
X59163103Y49452995D01*
X59163106Y49452991D01*
X59288794Y49279996D01*
X59439996Y49128794D01*
X59612991Y49003106D01*
X59701883Y48957813D01*
X59803516Y48906028D01*
X59803519Y48906027D01*
X59905200Y48872990D01*
X60006884Y48839951D01*
X60218084Y48806500D01*
X60218085Y48806500D01*
X60431915Y48806500D01*
X60431916Y48806500D01*
X60643116Y48839951D01*
X60846483Y48906028D01*
X61037009Y49003106D01*
X61210004Y49128794D01*
X61361206Y49279996D01*
X61486894Y49452991D01*
X61486896Y49452996D01*
X61489270Y49456868D01*
X61541080Y49503746D01*
X61610009Y49515171D01*
X61674173Y49487517D01*
X61700730Y49456868D01*
X61703103Y49452995D01*
X61703106Y49452991D01*
X61828794Y49279996D01*
X61979996Y49128794D01*
X62152991Y49003106D01*
X62241883Y48957813D01*
X62343516Y48906028D01*
X62343519Y48906027D01*
X62445200Y48872990D01*
X62546884Y48839951D01*
X62758084Y48806500D01*
X62758085Y48806500D01*
X62971915Y48806500D01*
X62971916Y48806500D01*
X63183116Y48839951D01*
X63386483Y48906028D01*
X63577009Y49003106D01*
X63750004Y49128794D01*
X63901206Y49279996D01*
X64026894Y49452991D01*
X64026896Y49452996D01*
X64029270Y49456868D01*
X64081080Y49503746D01*
X64150009Y49515171D01*
X64214173Y49487517D01*
X64240730Y49456868D01*
X64243103Y49452995D01*
X64243106Y49452991D01*
X64368794Y49279996D01*
X64519996Y49128794D01*
X64692991Y49003106D01*
X64781883Y48957813D01*
X64883516Y48906028D01*
X64883519Y48906027D01*
X64985200Y48872990D01*
X65086884Y48839951D01*
X65298084Y48806500D01*
X65298085Y48806500D01*
X65511915Y48806500D01*
X65511916Y48806500D01*
X65723116Y48839951D01*
X65926483Y48906028D01*
X66117009Y49003106D01*
X66290004Y49128794D01*
X66441206Y49279996D01*
X66566894Y49452991D01*
X66566896Y49452996D01*
X66569270Y49456868D01*
X66621080Y49503746D01*
X66690009Y49515171D01*
X66754173Y49487517D01*
X66780730Y49456868D01*
X66783103Y49452995D01*
X66783106Y49452991D01*
X66908794Y49279996D01*
X67059996Y49128794D01*
X67232991Y49003106D01*
X67321883Y48957813D01*
X67423516Y48906028D01*
X67423519Y48906027D01*
X67525200Y48872990D01*
X67626884Y48839951D01*
X67838084Y48806500D01*
X67838085Y48806500D01*
X68051915Y48806500D01*
X68051916Y48806500D01*
X68263116Y48839951D01*
X68466483Y48906028D01*
X68657009Y49003106D01*
X68830004Y49128794D01*
X68981206Y49279996D01*
X69106894Y49452991D01*
X69106896Y49452996D01*
X69109270Y49456868D01*
X69161080Y49503746D01*
X69230009Y49515171D01*
X69294173Y49487517D01*
X69320730Y49456868D01*
X69323103Y49452995D01*
X69323106Y49452991D01*
X69448794Y49279996D01*
X69599996Y49128794D01*
X69772991Y49003106D01*
X69861883Y48957813D01*
X69963516Y48906028D01*
X69963519Y48906027D01*
X70065200Y48872990D01*
X70166884Y48839951D01*
X70378084Y48806500D01*
X70378085Y48806500D01*
X70591915Y48806500D01*
X70591916Y48806500D01*
X70803116Y48839951D01*
X71006483Y48906028D01*
X71197009Y49003106D01*
X71370004Y49128794D01*
X71521206Y49279996D01*
X71646894Y49452991D01*
X71646896Y49452996D01*
X71649270Y49456868D01*
X71701080Y49503746D01*
X71770009Y49515171D01*
X71834173Y49487517D01*
X71860730Y49456868D01*
X71863103Y49452995D01*
X71863106Y49452991D01*
X71988794Y49279996D01*
X72139996Y49128794D01*
X72312991Y49003106D01*
X72401883Y48957813D01*
X72503516Y48906028D01*
X72503519Y48906027D01*
X72605200Y48872990D01*
X72706884Y48839951D01*
X72918084Y48806500D01*
X72918085Y48806500D01*
X73131915Y48806500D01*
X73131916Y48806500D01*
X73343116Y48839951D01*
X73546483Y48906028D01*
X73737009Y49003106D01*
X73910004Y49128794D01*
X74061206Y49279996D01*
X74186894Y49452991D01*
X74186896Y49452996D01*
X74189270Y49456868D01*
X74241080Y49503746D01*
X74310009Y49515171D01*
X74374173Y49487517D01*
X74400730Y49456868D01*
X74403103Y49452995D01*
X74403106Y49452991D01*
X74528794Y49279996D01*
X74679996Y49128794D01*
X74852991Y49003106D01*
X74941883Y48957813D01*
X75043516Y48906028D01*
X75043519Y48906027D01*
X75145200Y48872990D01*
X75246884Y48839951D01*
X75458084Y48806500D01*
X75458085Y48806500D01*
X75671915Y48806500D01*
X75671916Y48806500D01*
X75883116Y48839951D01*
X76086483Y48906028D01*
X76277009Y49003106D01*
X76450004Y49128794D01*
X76601206Y49279996D01*
X76726894Y49452991D01*
X76823972Y49643517D01*
X76890049Y49846884D01*
X76923500Y50058084D01*
X76923500Y50271916D01*
X76890049Y50483116D01*
X76857010Y50584800D01*
X76823973Y50686481D01*
X76823972Y50686484D01*
X76752756Y50826252D01*
X76726894Y50877009D01*
X76601206Y51050004D01*
X76450004Y51201206D01*
X76302340Y51308490D01*
X76277005Y51326897D01*
X76273132Y51329270D01*
X76226254Y51381080D01*
X76214829Y51450009D01*
X76242483Y51514173D01*
X76273132Y51540730D01*
X76277005Y51543104D01*
X76277004Y51543104D01*
X76277009Y51543106D01*
X76450004Y51668794D01*
X76601206Y51819996D01*
X76726894Y51992991D01*
X76823972Y52183517D01*
X76890049Y52386884D01*
X76923500Y52598084D01*
X76923500Y52811916D01*
X76890049Y53023116D01*
X76835484Y53191053D01*
X76823973Y53226481D01*
X76823972Y53226484D01*
X76774507Y53323562D01*
X76726894Y53417009D01*
X76665254Y53501849D01*
X76655892Y53528087D01*
X76643487Y53553028D01*
X76644313Y53560538D01*
X76641775Y53567653D01*
X76648084Y53594786D01*
X76651133Y53622478D01*
X76655889Y53628350D01*
X76657600Y53635707D01*
X76677575Y53655121D01*
X76695113Y53676769D01*
X76702288Y53679137D01*
X76707706Y53684402D01*
X76735005Y53689934D01*
X76761463Y53698665D01*
X76772239Y53697479D01*
X76776184Y53698278D01*
X76796541Y53694804D01*
X77033908Y53633575D01*
X77040559Y53631658D01*
X77685935Y53425958D01*
X77692471Y53423671D01*
X78325317Y53182101D01*
X78331710Y53179453D01*
X78949999Y52902787D01*
X78956245Y52899779D01*
X79558036Y52588886D01*
X79564119Y52585524D01*
X80147528Y52241380D01*
X80153418Y52237679D01*
X80716613Y51861364D01*
X80722285Y51857339D01*
X81263489Y51450041D01*
X81268902Y51445725D01*
X81737531Y51050004D01*
X81786432Y51008711D01*
X81791614Y51004081D01*
X82283839Y50538722D01*
X82288721Y50533840D01*
X82742330Y50054043D01*
X82754075Y50041620D01*
X82758707Y50036436D01*
X83060580Y49678946D01*
X83195714Y49518916D01*
X83200044Y49513486D01*
X83223184Y49482738D01*
X83607338Y48972286D01*
X83611363Y48966614D01*
X83987678Y48403419D01*
X83991379Y48397529D01*
X84335521Y47814124D01*
X84338885Y47808037D01*
X84649773Y47206256D01*
X84652791Y47199989D01*
X84929445Y46581727D01*
X84932107Y46575301D01*
X85173665Y45942487D01*
X85175962Y45935922D01*
X85381652Y45290577D01*
X85383578Y45283893D01*
X85552767Y44628001D01*
X85554314Y44621220D01*
X85686454Y43956904D01*
X85687619Y43950047D01*
X85782305Y43279360D01*
X85783084Y43272448D01*
X85840015Y42597499D01*
X85840405Y42590555D01*
X85859451Y41911747D01*
X85859500Y41908269D01*
X85859500Y12701732D01*
X85859451Y12698254D01*
X85840405Y12019446D01*
X85840015Y12012502D01*
X85783084Y11337553D01*
X85782305Y11330641D01*
X85687619Y10659954D01*
X85686454Y10653097D01*
X85554314Y9988781D01*
X85552767Y9982000D01*
X85383578Y9326108D01*
X85381652Y9319424D01*
X85175962Y8674079D01*
X85173665Y8667514D01*
X84932107Y8034700D01*
X84929445Y8028274D01*
X84652791Y7410012D01*
X84649773Y7403745D01*
X84338885Y6801964D01*
X84335521Y6795877D01*
X83991379Y6212472D01*
X83987678Y6206582D01*
X83611363Y5643387D01*
X83607338Y5637715D01*
X83200050Y5096523D01*
X83195714Y5091085D01*
X82758710Y4573568D01*
X82754075Y4568381D01*
X82288739Y4076179D01*
X82283821Y4071261D01*
X81791619Y3605925D01*
X81786432Y3601290D01*
X81268915Y3164286D01*
X81263477Y3159950D01*
X80722285Y2752662D01*
X80716613Y2748637D01*
X80153418Y2372322D01*
X80147528Y2368621D01*
X79564123Y2024479D01*
X79558036Y2021115D01*
X78956255Y1710227D01*
X78949988Y1707209D01*
X78331726Y1430555D01*
X78325300Y1427893D01*
X77692486Y1186335D01*
X77685921Y1184038D01*
X77040576Y978348D01*
X77033892Y976422D01*
X76783615Y911863D01*
X76713784Y914179D01*
X76656290Y953881D01*
X76629388Y1018364D01*
X76641618Y1087155D01*
X76652325Y1104819D01*
X76719622Y1197446D01*
X76816095Y1386783D01*
X76881757Y1588870D01*
X76881757Y1588873D01*
X76915000Y1798754D01*
X76915000Y2011247D01*
X76881757Y2221128D01*
X76881757Y2221131D01*
X76816095Y2423218D01*
X76719624Y2612551D01*
X76680270Y2666718D01*
X76680269Y2666718D01*
X76047962Y2034410D01*
X76030925Y2097993D01*
X75965099Y2212007D01*
X75872007Y2305099D01*
X75757993Y2370925D01*
X75694409Y2387963D01*
X76326716Y3020272D01*
X76272550Y3059625D01*
X76262954Y3064514D01*
X76212157Y3112488D01*
X76195361Y3180308D01*
X76217897Y3246444D01*
X76262954Y3285486D01*
X76272554Y3290378D01*
X76326716Y3329730D01*
X76326717Y3329730D01*
X75694408Y3962038D01*
X75757993Y3979075D01*
X75872007Y4044901D01*
X75965099Y4137993D01*
X76030925Y4252007D01*
X76047962Y4315592D01*
X76680270Y3683283D01*
X76680270Y3683284D01*
X76719622Y3737446D01*
X76816095Y3926783D01*
X76881757Y4128870D01*
X76881757Y4128873D01*
X76915000Y4338754D01*
X76915000Y4551247D01*
X76881757Y4761128D01*
X76881757Y4761131D01*
X76816095Y4963218D01*
X76719624Y5152551D01*
X76680270Y5206718D01*
X76680269Y5206718D01*
X76047962Y4574410D01*
X76030925Y4637993D01*
X75965099Y4752007D01*
X75872007Y4845099D01*
X75757993Y4910925D01*
X75694409Y4927963D01*
X76326716Y5560272D01*
X76272550Y5599625D01*
X76083217Y5696096D01*
X75881129Y5761758D01*
X75671246Y5795000D01*
X75458754Y5795000D01*
X75248872Y5761758D01*
X75248869Y5761758D01*
X75046782Y5696096D01*
X74857439Y5599620D01*
X74803282Y5560273D01*
X74803282Y5560272D01*
X75435591Y4927963D01*
X75372007Y4910925D01*
X75257993Y4845099D01*
X75164901Y4752007D01*
X75099075Y4637993D01*
X75082037Y4574409D01*
X74449728Y5206718D01*
X74449727Y5206718D01*
X74410380Y5152560D01*
X74405483Y5142949D01*
X74357506Y5092155D01*
X74289684Y5075362D01*
X74223550Y5097902D01*
X74184516Y5142952D01*
X74179626Y5152548D01*
X74140270Y5206718D01*
X74140269Y5206718D01*
X73507962Y4574410D01*
X73490925Y4637993D01*
X73425099Y4752007D01*
X73332007Y4845099D01*
X73217993Y4910925D01*
X73154409Y4927963D01*
X73786716Y5560272D01*
X73732550Y5599625D01*
X73543217Y5696096D01*
X73341129Y5761758D01*
X73131246Y5795000D01*
X72918754Y5795000D01*
X72708872Y5761758D01*
X72708869Y5761758D01*
X72506782Y5696096D01*
X72317439Y5599620D01*
X72263282Y5560273D01*
X72263282Y5560272D01*
X72895591Y4927963D01*
X72832007Y4910925D01*
X72717993Y4845099D01*
X72624901Y4752007D01*
X72559075Y4637993D01*
X72542037Y4574409D01*
X71909728Y5206718D01*
X71909727Y5206718D01*
X71870380Y5152560D01*
X71870374Y5152551D01*
X71870246Y5152298D01*
X71870172Y5152220D01*
X71867838Y5148410D01*
X71867036Y5148901D01*
X71822264Y5101510D01*
X71754441Y5084725D01*
X71688309Y5107272D01*
X71649283Y5152320D01*
X71646894Y5157009D01*
X71521206Y5330004D01*
X71370004Y5481206D01*
X71197009Y5606894D01*
X71188368Y5611297D01*
X71006483Y5703973D01*
X71006480Y5703974D01*
X70803117Y5770049D01*
X70646283Y5794889D01*
X70591916Y5803500D01*
X70378084Y5803500D01*
X70323717Y5794889D01*
X70166882Y5770049D01*
X69963519Y5703974D01*
X69963516Y5703973D01*
X69772990Y5606894D01*
X69599993Y5481204D01*
X69448796Y5330007D01*
X69323105Y5157009D01*
X69320727Y5153127D01*
X69268914Y5106252D01*
X69199984Y5094831D01*
X69135822Y5122488D01*
X69109273Y5153127D01*
X69106894Y5157009D01*
X69060699Y5220591D01*
X68981206Y5330004D01*
X68830004Y5481206D01*
X68657009Y5606894D01*
X68648368Y5611297D01*
X68466483Y5703973D01*
X68466480Y5703974D01*
X68263117Y5770049D01*
X68106283Y5794889D01*
X68051916Y5803500D01*
X67838084Y5803500D01*
X67833233Y5803118D01*
X67833114Y5804626D01*
X67770470Y5812728D01*
X67717023Y5857729D01*
X67696389Y5924483D01*
X67715121Y5991795D01*
X67717280Y5995139D01*
X67718718Y5997292D01*
X67718721Y5997296D01*
X67794744Y6180831D01*
X67833500Y6375671D01*
X67833500Y6471289D01*
X78794500Y6471289D01*
X78794500Y6228712D01*
X78826161Y5988215D01*
X78888947Y5753896D01*
X78981773Y5529795D01*
X78981777Y5529786D01*
X78999873Y5498443D01*
X79103064Y5319711D01*
X79103066Y5319708D01*
X79103067Y5319707D01*
X79250733Y5127264D01*
X79250739Y5127257D01*
X79422256Y4955740D01*
X79422262Y4955735D01*
X79614711Y4808064D01*
X79824788Y4686776D01*
X80048900Y4593946D01*
X80283211Y4531162D01*
X80437681Y4510826D01*
X80523711Y4499500D01*
X80523712Y4499500D01*
X80766289Y4499500D01*
X80814388Y4505833D01*
X81006789Y4531162D01*
X81241100Y4593946D01*
X81465212Y4686776D01*
X81675289Y4808064D01*
X81867738Y4955735D01*
X82039265Y5127262D01*
X82186936Y5319711D01*
X82308224Y5529788D01*
X82401054Y5753900D01*
X82463838Y5988211D01*
X82495500Y6228712D01*
X82495500Y6471288D01*
X82463838Y6711789D01*
X82401054Y6946100D01*
X82308224Y7170212D01*
X82186936Y7380289D01*
X82107740Y7483500D01*
X82039266Y7572737D01*
X82039260Y7572744D01*
X81867743Y7744261D01*
X81867736Y7744267D01*
X81675293Y7891933D01*
X81675292Y7891934D01*
X81675289Y7891936D01*
X81465212Y8013224D01*
X81428878Y8028274D01*
X81241104Y8106053D01*
X81094103Y8145442D01*
X81006789Y8168838D01*
X81006788Y8168839D01*
X81006785Y8168839D01*
X80766289Y8200500D01*
X80766288Y8200500D01*
X80523712Y8200500D01*
X80523711Y8200500D01*
X80283214Y8168839D01*
X80048895Y8106053D01*
X79824794Y8013227D01*
X79824785Y8013223D01*
X79614706Y7891933D01*
X79422263Y7744267D01*
X79422256Y7744261D01*
X79250739Y7572744D01*
X79250733Y7572737D01*
X79103067Y7380294D01*
X79103064Y7380290D01*
X79103064Y7380289D01*
X79086817Y7352149D01*
X78981777Y7170215D01*
X78981773Y7170206D01*
X78888947Y6946105D01*
X78826161Y6711786D01*
X78794500Y6471289D01*
X67833500Y6471289D01*
X67833500Y6574329D01*
X67794744Y6769169D01*
X67730650Y6923905D01*
X67718722Y6952702D01*
X67718717Y6952711D01*
X67608353Y7117881D01*
X67608350Y7117885D01*
X67467884Y7258351D01*
X67467880Y7258354D01*
X67302710Y7368718D01*
X67302701Y7368723D01*
X67119169Y7444744D01*
X67119161Y7444746D01*
X66924333Y7483500D01*
X66924329Y7483500D01*
X66725671Y7483500D01*
X66725666Y7483500D01*
X66530838Y7444746D01*
X66530830Y7444744D01*
X66347298Y7368723D01*
X66347289Y7368718D01*
X66182120Y7258355D01*
X66144644Y7220878D01*
X66093583Y7169818D01*
X66032263Y7136334D01*
X66005904Y7133500D01*
X51694096Y7133500D01*
X51627057Y7153185D01*
X51606419Y7169815D01*
X51517881Y7258353D01*
X51517880Y7258354D01*
X51517879Y7258355D01*
X51352710Y7368718D01*
X51352701Y7368723D01*
X51169169Y7444744D01*
X51169161Y7444746D01*
X50974333Y7483500D01*
X50974329Y7483500D01*
X50775671Y7483500D01*
X50775666Y7483500D01*
X50580838Y7444746D01*
X50580830Y7444744D01*
X50397298Y7368723D01*
X50397289Y7368718D01*
X50232119Y7258354D01*
X50232115Y7258351D01*
X50091649Y7117885D01*
X50091646Y7117881D01*
X49981282Y6952711D01*
X49981277Y6952702D01*
X49905256Y6769170D01*
X49905254Y6769162D01*
X49866500Y6574334D01*
X49866500Y6375667D01*
X49905254Y6180839D01*
X49905256Y6180831D01*
X49981277Y5997299D01*
X49981281Y5997292D01*
X49998109Y5972107D01*
X50018986Y5905429D01*
X50000501Y5838049D01*
X49948521Y5791360D01*
X49914405Y5780744D01*
X49846882Y5770049D01*
X49643519Y5703974D01*
X49643516Y5703973D01*
X49452990Y5606894D01*
X49279993Y5481204D01*
X49128796Y5330007D01*
X49003105Y5157009D01*
X49000727Y5153127D01*
X48948914Y5106252D01*
X48879984Y5094831D01*
X48815822Y5122488D01*
X48789273Y5153127D01*
X48786894Y5157009D01*
X48740699Y5220591D01*
X48661206Y5330004D01*
X48510004Y5481206D01*
X48337009Y5606894D01*
X48328368Y5611297D01*
X48146483Y5703973D01*
X48146480Y5703974D01*
X47943117Y5770049D01*
X47786283Y5794889D01*
X47731916Y5803500D01*
X47518084Y5803500D01*
X47463717Y5794889D01*
X47306882Y5770049D01*
X47103519Y5703974D01*
X47103516Y5703973D01*
X46912990Y5606894D01*
X46739993Y5481204D01*
X46588796Y5330007D01*
X46463105Y5157009D01*
X46460727Y5153127D01*
X46408914Y5106252D01*
X46339984Y5094831D01*
X46275822Y5122488D01*
X46249273Y5153127D01*
X46246894Y5157009D01*
X46200699Y5220591D01*
X46121206Y5330004D01*
X45970004Y5481206D01*
X45903139Y5529786D01*
X45794614Y5608635D01*
X45751949Y5663965D01*
X45743500Y5708953D01*
X45743500Y7220878D01*
X45763185Y7287917D01*
X45779819Y7308559D01*
X52021489Y13550229D01*
X52021491Y13550231D01*
X52093555Y13658083D01*
X52143194Y13777923D01*
X52143857Y13781257D01*
X52168500Y13905143D01*
X52168500Y16355000D01*
X53883543Y16355000D01*
X54881414Y16355000D01*
X54849600Y16195061D01*
X54849600Y16014939D01*
X54881414Y15855000D01*
X53883544Y15855000D01*
X53899458Y15734124D01*
X53963821Y15493919D01*
X53963825Y15493906D01*
X54058976Y15264190D01*
X54058983Y15264176D01*
X54183314Y15048829D01*
X54183324Y15048814D01*
X54334698Y14851539D01*
X54334704Y14851532D01*
X54510531Y14675705D01*
X54510538Y14675699D01*
X54707813Y14524325D01*
X54707828Y14524315D01*
X54923175Y14399984D01*
X54923189Y14399977D01*
X55152905Y14304826D01*
X55152921Y14304821D01*
X55393117Y14240461D01*
X55393128Y14240459D01*
X55514000Y14224545D01*
X55514000Y15222414D01*
X55673939Y15190600D01*
X55854061Y15190600D01*
X56014000Y15222414D01*
X56014000Y14224546D01*
X56134871Y14240459D01*
X56134882Y14240461D01*
X56375078Y14304821D01*
X56375094Y14304826D01*
X56604810Y14399977D01*
X56604824Y14399984D01*
X56820171Y14524315D01*
X56820186Y14524325D01*
X57017461Y14675699D01*
X57017468Y14675705D01*
X57193295Y14851532D01*
X57193301Y14851539D01*
X57344675Y15048814D01*
X57344685Y15048829D01*
X57469016Y15264176D01*
X57469023Y15264190D01*
X57564174Y15493906D01*
X57564178Y15493919D01*
X57628541Y15734124D01*
X57644456Y15855000D01*
X56646586Y15855000D01*
X56678400Y16014939D01*
X56678400Y16195061D01*
X56646586Y16355000D01*
X57644456Y16355000D01*
X57628541Y16475877D01*
X57564178Y16716082D01*
X57564174Y16716095D01*
X57469023Y16945811D01*
X57469016Y16945825D01*
X57344685Y17161172D01*
X57344675Y17161187D01*
X57253557Y17279935D01*
X57200305Y17349334D01*
X72566500Y17349334D01*
X72566500Y17150667D01*
X72605254Y16955839D01*
X72605256Y16955831D01*
X72681277Y16772299D01*
X72681282Y16772290D01*
X72791645Y16607121D01*
X72791646Y16607120D01*
X72791647Y16607119D01*
X72896825Y16501941D01*
X72930309Y16440620D01*
X72930760Y16438452D01*
X72941804Y16382931D01*
X72941806Y16382923D01*
X72991443Y16263087D01*
X72991447Y16263080D01*
X73063510Y16155229D01*
X73063511Y16155228D01*
X73555181Y15663560D01*
X73588666Y15602237D01*
X73591500Y15575879D01*
X73591500Y15505592D01*
X73628332Y15320424D01*
X73628334Y15320416D01*
X73700586Y15145983D01*
X73700591Y15145974D01*
X73805483Y14988993D01*
X73805486Y14988989D01*
X73938988Y14855487D01*
X73938992Y14855484D01*
X74095973Y14750592D01*
X74095979Y14750589D01*
X74095980Y14750588D01*
X74270416Y14678334D01*
X74455591Y14641501D01*
X74455595Y14641500D01*
X74455596Y14641500D01*
X74644405Y14641500D01*
X74644406Y14641501D01*
X74829584Y14678334D01*
X75004020Y14750588D01*
X75161008Y14855484D01*
X75294516Y14988992D01*
X75399412Y15145980D01*
X75471666Y15320416D01*
X75508500Y15505596D01*
X75508500Y15694404D01*
X75471666Y15879584D01*
X75399412Y16054020D01*
X75399411Y16054021D01*
X75399408Y16054027D01*
X75294516Y16211008D01*
X75294513Y16211012D01*
X75161011Y16344514D01*
X75161007Y16344517D01*
X75004026Y16449409D01*
X75004017Y16449414D01*
X74829584Y16521666D01*
X74829576Y16521668D01*
X74644408Y16558500D01*
X74644404Y16558500D01*
X74574122Y16558500D01*
X74544681Y16567145D01*
X74514695Y16573668D01*
X74509679Y16577423D01*
X74507083Y16578185D01*
X74486441Y16594819D01*
X74476689Y16604571D01*
X74443204Y16665894D01*
X74448188Y16735586D01*
X74461265Y16761139D01*
X74468721Y16772296D01*
X74544744Y16955831D01*
X74583500Y17150671D01*
X74583500Y17349329D01*
X74544744Y17544169D01*
X74468721Y17727704D01*
X74468720Y17727705D01*
X74468717Y17727711D01*
X74358353Y17892881D01*
X74358350Y17892885D01*
X74217884Y18033351D01*
X74217880Y18033354D01*
X74052710Y18143718D01*
X74052701Y18143723D01*
X73869169Y18219744D01*
X73869161Y18219746D01*
X73674333Y18258500D01*
X73674329Y18258500D01*
X73475671Y18258500D01*
X73475666Y18258500D01*
X73280838Y18219746D01*
X73280830Y18219744D01*
X73097298Y18143723D01*
X73097289Y18143718D01*
X72932119Y18033354D01*
X72932115Y18033351D01*
X72791649Y17892885D01*
X72791646Y17892881D01*
X72681282Y17727711D01*
X72681277Y17727702D01*
X72605256Y17544170D01*
X72605254Y17544162D01*
X72566500Y17349334D01*
X57200305Y17349334D01*
X57193301Y17358462D01*
X57193295Y17358469D01*
X57017468Y17534296D01*
X57017461Y17534302D01*
X56820186Y17685676D01*
X56820171Y17685686D01*
X56604824Y17810017D01*
X56604810Y17810024D01*
X56375094Y17905175D01*
X56375081Y17905179D01*
X56134876Y17969542D01*
X56014000Y17985457D01*
X56014000Y16987587D01*
X55854061Y17019400D01*
X55673939Y17019400D01*
X55514000Y16987587D01*
X55514000Y17985457D01*
X55393123Y17969542D01*
X55152918Y17905179D01*
X55152905Y17905175D01*
X54923189Y17810024D01*
X54923175Y17810017D01*
X54707828Y17685686D01*
X54707813Y17685676D01*
X54510538Y17534302D01*
X54510531Y17534296D01*
X54334704Y17358469D01*
X54334698Y17358462D01*
X54183324Y17161187D01*
X54183314Y17161172D01*
X54058983Y16945825D01*
X54058976Y16945811D01*
X53963825Y16716095D01*
X53963821Y16716082D01*
X53899458Y16475877D01*
X53883543Y16355000D01*
X52168500Y16355000D01*
X52168500Y20800000D01*
X53883543Y20800000D01*
X54881414Y20800000D01*
X54849600Y20640061D01*
X54849600Y20459939D01*
X54881414Y20300000D01*
X53883544Y20300000D01*
X53899458Y20179124D01*
X53963821Y19938919D01*
X53963825Y19938906D01*
X54058976Y19709190D01*
X54058983Y19709176D01*
X54183314Y19493829D01*
X54183324Y19493814D01*
X54334698Y19296539D01*
X54334704Y19296532D01*
X54510531Y19120705D01*
X54510538Y19120699D01*
X54707813Y18969325D01*
X54707828Y18969315D01*
X54923175Y18844984D01*
X54923189Y18844977D01*
X55152905Y18749826D01*
X55152921Y18749821D01*
X55393117Y18685461D01*
X55393128Y18685459D01*
X55514000Y18669545D01*
X55514000Y19667414D01*
X55673939Y19635600D01*
X55854061Y19635600D01*
X56014000Y19667414D01*
X56014000Y18669546D01*
X56134871Y18685459D01*
X56134882Y18685461D01*
X56375078Y18749821D01*
X56375094Y18749826D01*
X56604810Y18844977D01*
X56604824Y18844984D01*
X56820171Y18969315D01*
X56820186Y18969325D01*
X57017461Y19120699D01*
X57017468Y19120705D01*
X57193295Y19296532D01*
X57193301Y19296539D01*
X57344675Y19493814D01*
X57344685Y19493829D01*
X57469016Y19709176D01*
X57469023Y19709190D01*
X57564174Y19938906D01*
X57564178Y19938919D01*
X57628541Y20179124D01*
X57644456Y20300000D01*
X56646586Y20300000D01*
X56678400Y20459939D01*
X56678400Y20640061D01*
X56646586Y20800000D01*
X57644456Y20800000D01*
X57628541Y20920877D01*
X57564178Y21161082D01*
X57564174Y21161095D01*
X57469023Y21390811D01*
X57469016Y21390825D01*
X57344685Y21606172D01*
X57344675Y21606187D01*
X57193301Y21803462D01*
X57193295Y21803469D01*
X57017468Y21979296D01*
X57017461Y21979302D01*
X56820186Y22130676D01*
X56820171Y22130686D01*
X56604824Y22255017D01*
X56604810Y22255024D01*
X56375094Y22350175D01*
X56375081Y22350179D01*
X56134876Y22414542D01*
X56014000Y22430457D01*
X56014000Y21432587D01*
X55854061Y21464400D01*
X55673939Y21464400D01*
X55514000Y21432587D01*
X55514000Y22430457D01*
X55393123Y22414542D01*
X55152918Y22350179D01*
X55152905Y22350175D01*
X54923189Y22255024D01*
X54923175Y22255017D01*
X54707828Y22130686D01*
X54707813Y22130676D01*
X54510538Y21979302D01*
X54510531Y21979296D01*
X54334704Y21803469D01*
X54334698Y21803462D01*
X54183324Y21606187D01*
X54183314Y21606172D01*
X54058983Y21390825D01*
X54058976Y21390811D01*
X53963825Y21161095D01*
X53963821Y21161082D01*
X53899458Y20920877D01*
X53883543Y20800000D01*
X52168500Y20800000D01*
X52168500Y25119894D01*
X53858500Y25119894D01*
X53858500Y24870107D01*
X53891102Y24622462D01*
X53955754Y24381179D01*
X54051339Y24150417D01*
X54051342Y24150410D01*
X54176235Y23934089D01*
X54176237Y23934086D01*
X54176238Y23934085D01*
X54328293Y23735922D01*
X54328299Y23735915D01*
X54504914Y23559300D01*
X54504920Y23559295D01*
X54703089Y23407235D01*
X54919410Y23282342D01*
X55150183Y23186753D01*
X55391458Y23122103D01*
X55577194Y23097651D01*
X55639106Y23089500D01*
X55639107Y23089500D01*
X55888894Y23089500D01*
X55938422Y23096021D01*
X56136542Y23122103D01*
X56377817Y23186753D01*
X56608590Y23282342D01*
X56824911Y23407235D01*
X57023080Y23559295D01*
X57199705Y23735920D01*
X57351765Y23934089D01*
X57476658Y24150410D01*
X57572247Y24381183D01*
X57636897Y24622458D01*
X57669500Y24870107D01*
X57669500Y25119893D01*
X57636897Y25367542D01*
X57572247Y25608817D01*
X57476658Y25839590D01*
X57351765Y26055911D01*
X57199705Y26254080D01*
X57199700Y26254086D01*
X57023085Y26430701D01*
X57023078Y26430707D01*
X56824915Y26582762D01*
X56824914Y26582763D01*
X56824911Y26582765D01*
X56608590Y26707658D01*
X56608583Y26707661D01*
X56377821Y26803246D01*
X56136538Y26867898D01*
X55888894Y26900500D01*
X55888893Y26900500D01*
X55639107Y26900500D01*
X55639106Y26900500D01*
X55391461Y26867898D01*
X55150178Y26803246D01*
X54919416Y26707661D01*
X54919407Y26707657D01*
X54703084Y26582762D01*
X54504921Y26430707D01*
X54504914Y26430701D01*
X54328299Y26254086D01*
X54328293Y26254079D01*
X54176238Y26055916D01*
X54051343Y25839593D01*
X54051339Y25839584D01*
X53955754Y25608822D01*
X53891102Y25367539D01*
X53858500Y25119894D01*
X52168500Y25119894D01*
X52168500Y29564894D01*
X53858500Y29564894D01*
X53858500Y29315107D01*
X53891102Y29067462D01*
X53955754Y28826179D01*
X54051339Y28595417D01*
X54051343Y28595408D01*
X54074200Y28555819D01*
X54176235Y28379089D01*
X54176237Y28379086D01*
X54176238Y28379085D01*
X54328293Y28180922D01*
X54328299Y28180915D01*
X54504914Y28004300D01*
X54504920Y28004295D01*
X54703089Y27852235D01*
X54919410Y27727342D01*
X55150183Y27631753D01*
X55391458Y27567103D01*
X55577194Y27542651D01*
X55639106Y27534500D01*
X55639107Y27534500D01*
X55888894Y27534500D01*
X55938422Y27541021D01*
X56136542Y27567103D01*
X56377817Y27631753D01*
X56608590Y27727342D01*
X56824911Y27852235D01*
X57023080Y28004295D01*
X57199705Y28180920D01*
X57351765Y28379089D01*
X57476658Y28595410D01*
X57572247Y28826183D01*
X57636897Y29067458D01*
X57669500Y29315107D01*
X57669500Y29564893D01*
X57668492Y29572546D01*
X57668346Y29573657D01*
X65981500Y29573657D01*
X65981500Y27776348D01*
X65988011Y27715800D01*
X65988011Y27715798D01*
X66035639Y27588107D01*
X66039111Y27578798D01*
X66126739Y27461741D01*
X66243796Y27374113D01*
X66380799Y27323013D01*
X66408050Y27320084D01*
X66441345Y27316503D01*
X66441362Y27316502D01*
X68238638Y27316502D01*
X68238654Y27316503D01*
X68265692Y27319411D01*
X68299201Y27323013D01*
X68436204Y27374113D01*
X68553261Y27461741D01*
X68640889Y27578798D01*
X68685957Y27699631D01*
X68727827Y27755560D01*
X68793291Y27779977D01*
X68861564Y27765125D01*
X68889818Y27743974D01*
X68994996Y27638796D01*
X69167991Y27513108D01*
X69261438Y27465495D01*
X69358516Y27416030D01*
X69358519Y27416029D01*
X69460200Y27382992D01*
X69561884Y27349953D01*
X69773084Y27316502D01*
X69773085Y27316502D01*
X69986915Y27316502D01*
X69986916Y27316502D01*
X70198116Y27349953D01*
X70401483Y27416030D01*
X70592009Y27513108D01*
X70765004Y27638796D01*
X70916206Y27789998D01*
X71041894Y27962993D01*
X71138972Y28153519D01*
X71205049Y28356886D01*
X71238500Y28568086D01*
X71238500Y28781918D01*
X71205049Y28993118D01*
X71138972Y29196485D01*
X71138972Y29196486D01*
X71078531Y29315107D01*
X71041894Y29387011D01*
X70916206Y29560006D01*
X70827557Y29648655D01*
X76811500Y29648655D01*
X76811500Y27851346D01*
X76818011Y27790798D01*
X76818011Y27790796D01*
X76869111Y27653796D01*
X76956739Y27536739D01*
X77073796Y27449111D01*
X77210799Y27398011D01*
X77238050Y27395082D01*
X77271345Y27391501D01*
X77271362Y27391500D01*
X79068638Y27391500D01*
X79068654Y27391501D01*
X79095692Y27394409D01*
X79129201Y27398011D01*
X79266204Y27449111D01*
X79383261Y27536739D01*
X79470889Y27653796D01*
X79515957Y27774629D01*
X79557827Y27830558D01*
X79623291Y27854975D01*
X79691564Y27840123D01*
X79719818Y27818972D01*
X79824996Y27713794D01*
X79997991Y27588106D01*
X80039212Y27567103D01*
X80188516Y27491028D01*
X80188519Y27491027D01*
X80278651Y27461742D01*
X80391884Y27424951D01*
X80603084Y27391500D01*
X80603085Y27391500D01*
X80816915Y27391500D01*
X80816916Y27391500D01*
X81028116Y27424951D01*
X81231483Y27491028D01*
X81422009Y27588106D01*
X81595004Y27713794D01*
X81746206Y27864996D01*
X81871894Y28037991D01*
X81968972Y28228517D01*
X82035049Y28431884D01*
X82068500Y28643084D01*
X82068500Y28856916D01*
X82035049Y29068116D01*
X81968972Y29271483D01*
X81968972Y29271484D01*
X81910107Y29387012D01*
X81871894Y29462009D01*
X81746206Y29635004D01*
X81595004Y29786206D01*
X81422009Y29911894D01*
X81378671Y29933976D01*
X81231483Y30008973D01*
X81231480Y30008974D01*
X81028117Y30075049D01*
X80922516Y30091775D01*
X80816916Y30108500D01*
X80603084Y30108500D01*
X80532684Y30097350D01*
X80391882Y30075049D01*
X80188519Y30008974D01*
X80188516Y30008973D01*
X79997990Y29911894D01*
X79824997Y29786207D01*
X79719818Y29681028D01*
X79658495Y29647544D01*
X79588803Y29652528D01*
X79532870Y29694400D01*
X79515958Y29725371D01*
X79470889Y29846204D01*
X79383261Y29963261D01*
X79266204Y30050889D01*
X79258354Y30053817D01*
X79129203Y30101989D01*
X79068654Y30108500D01*
X79068638Y30108500D01*
X77271362Y30108500D01*
X77271345Y30108500D01*
X77210797Y30101989D01*
X77210795Y30101989D01*
X77073795Y30050889D01*
X76956739Y29963261D01*
X76869111Y29846205D01*
X76818011Y29709205D01*
X76818011Y29709203D01*
X76811500Y29648655D01*
X70827557Y29648655D01*
X70765004Y29711208D01*
X70592009Y29836896D01*
X70573735Y29846207D01*
X70401483Y29933975D01*
X70401480Y29933976D01*
X70198117Y30000051D01*
X70092516Y30016777D01*
X69986916Y30033502D01*
X69773084Y30033502D01*
X69702684Y30022352D01*
X69561882Y30000051D01*
X69358519Y29933976D01*
X69358516Y29933975D01*
X69167990Y29836896D01*
X68994997Y29711209D01*
X68889818Y29606030D01*
X68828495Y29572546D01*
X68758803Y29577530D01*
X68702870Y29619402D01*
X68685958Y29650373D01*
X68640889Y29771206D01*
X68553261Y29888263D01*
X68436204Y29975891D01*
X68299203Y30026991D01*
X68238654Y30033502D01*
X68238638Y30033502D01*
X66441362Y30033502D01*
X66441345Y30033502D01*
X66380797Y30026991D01*
X66380795Y30026991D01*
X66243795Y29975891D01*
X66126739Y29888263D01*
X66039111Y29771207D01*
X65988011Y29634207D01*
X65988011Y29634205D01*
X65981500Y29573657D01*
X57668346Y29573657D01*
X57650502Y29709201D01*
X57636897Y29812542D01*
X57572247Y30053817D01*
X57476658Y30284590D01*
X57351765Y30500911D01*
X57199705Y30699080D01*
X57199700Y30699086D01*
X57023085Y30875701D01*
X57023078Y30875707D01*
X56824915Y31027762D01*
X56824914Y31027763D01*
X56824911Y31027765D01*
X56608590Y31152658D01*
X56608583Y31152661D01*
X56377821Y31248246D01*
X56136538Y31312898D01*
X55888894Y31345500D01*
X55888893Y31345500D01*
X55639107Y31345500D01*
X55639106Y31345500D01*
X55391461Y31312898D01*
X55150178Y31248246D01*
X54919416Y31152661D01*
X54919407Y31152657D01*
X54703084Y31027762D01*
X54504921Y30875707D01*
X54504914Y30875701D01*
X54328299Y30699086D01*
X54328293Y30699079D01*
X54176238Y30500916D01*
X54051343Y30284593D01*
X54051339Y30284584D01*
X53955754Y30053822D01*
X53891102Y29812539D01*
X53858500Y29564894D01*
X52168500Y29564894D01*
X52168500Y34009894D01*
X53858500Y34009894D01*
X53858500Y33760107D01*
X53891102Y33512462D01*
X53955754Y33271179D01*
X54051339Y33040417D01*
X54051342Y33040410D01*
X54176235Y32824089D01*
X54176237Y32824086D01*
X54176238Y32824085D01*
X54328293Y32625922D01*
X54328299Y32625915D01*
X54504914Y32449300D01*
X54504920Y32449295D01*
X54703089Y32297235D01*
X54919410Y32172342D01*
X55150183Y32076753D01*
X55391458Y32012103D01*
X55577194Y31987651D01*
X55639106Y31979500D01*
X55639107Y31979500D01*
X55888894Y31979500D01*
X55938422Y31986021D01*
X56136542Y32012103D01*
X56377817Y32076753D01*
X56608590Y32172342D01*
X56824911Y32297235D01*
X57023080Y32449295D01*
X57199705Y32625920D01*
X57351765Y32824089D01*
X57476658Y33040410D01*
X57572247Y33271183D01*
X57636897Y33512458D01*
X57669500Y33760107D01*
X57669500Y34009893D01*
X57636897Y34257542D01*
X57572247Y34498817D01*
X57476658Y34729590D01*
X57351765Y34945911D01*
X57290624Y35025592D01*
X57199707Y35144078D01*
X57199700Y35144086D01*
X57129377Y35214409D01*
X63621500Y35214409D01*
X63621500Y35025592D01*
X63658332Y34840424D01*
X63658334Y34840416D01*
X63730586Y34665983D01*
X63730591Y34665974D01*
X63835483Y34508993D01*
X63835486Y34508989D01*
X63968988Y34375487D01*
X63968992Y34375484D01*
X64125973Y34270592D01*
X64125979Y34270589D01*
X64125980Y34270588D01*
X64300416Y34198334D01*
X64485591Y34161501D01*
X64485595Y34161500D01*
X64485596Y34161500D01*
X64674405Y34161500D01*
X64674406Y34161501D01*
X64859584Y34198334D01*
X65034020Y34270588D01*
X65191008Y34375484D01*
X65324516Y34508992D01*
X65429412Y34665980D01*
X65501666Y34840416D01*
X65538500Y35025596D01*
X65538500Y35214404D01*
X65501666Y35399584D01*
X65429412Y35574020D01*
X65429411Y35574021D01*
X65429408Y35574027D01*
X65324516Y35731008D01*
X65324513Y35731012D01*
X65249819Y35805706D01*
X65216334Y35867029D01*
X65213500Y35893387D01*
X65213500Y37073657D01*
X65981500Y37073657D01*
X65981500Y35276348D01*
X65988011Y35215800D01*
X65988011Y35215798D01*
X66025610Y35114994D01*
X66039111Y35078798D01*
X66126739Y34961741D01*
X66243796Y34874113D01*
X66380799Y34823013D01*
X66408050Y34820084D01*
X66441345Y34816503D01*
X66441362Y34816502D01*
X68238638Y34816502D01*
X68238654Y34816503D01*
X68265692Y34819411D01*
X68299201Y34823013D01*
X68436204Y34874113D01*
X68553261Y34961741D01*
X68640889Y35078798D01*
X68685957Y35199631D01*
X68727827Y35255560D01*
X68793291Y35279977D01*
X68861564Y35265125D01*
X68889818Y35243974D01*
X68994996Y35138796D01*
X69167991Y35013108D01*
X69261438Y34965495D01*
X69358516Y34916030D01*
X69358519Y34916029D01*
X69460200Y34882992D01*
X69561884Y34849953D01*
X69773084Y34816502D01*
X69773085Y34816502D01*
X69986915Y34816502D01*
X69986916Y34816502D01*
X70198116Y34849953D01*
X70401483Y34916030D01*
X70592009Y35013108D01*
X70765004Y35138796D01*
X70916206Y35289998D01*
X71041894Y35462993D01*
X71138972Y35653519D01*
X71205049Y35856886D01*
X71238500Y36068086D01*
X71238500Y36281918D01*
X71205049Y36493118D01*
X71138972Y36696485D01*
X71138972Y36696486D01*
X71062961Y36845664D01*
X71062960Y36845666D01*
X71061499Y36848533D01*
X71042917Y36885004D01*
X71041895Y36887010D01*
X71033434Y36898655D01*
X76826500Y36898655D01*
X76826500Y35101346D01*
X76833011Y35040798D01*
X76833011Y35040796D01*
X76879548Y34916030D01*
X76884111Y34903796D01*
X76971739Y34786739D01*
X77088796Y34699111D01*
X77225799Y34648011D01*
X77253050Y34645082D01*
X77286345Y34641501D01*
X77286362Y34641500D01*
X79083638Y34641500D01*
X79083654Y34641501D01*
X79110692Y34644409D01*
X79144201Y34648011D01*
X79281204Y34699111D01*
X79398261Y34786739D01*
X79485889Y34903796D01*
X79530957Y35024629D01*
X79572827Y35080558D01*
X79638291Y35104975D01*
X79706564Y35090123D01*
X79734818Y35068972D01*
X79839996Y34963794D01*
X80012991Y34838106D01*
X80106438Y34790493D01*
X80203516Y34741028D01*
X80203519Y34741027D01*
X80305200Y34707990D01*
X80406884Y34674951D01*
X80618084Y34641500D01*
X80618085Y34641500D01*
X80831915Y34641500D01*
X80831916Y34641500D01*
X81043116Y34674951D01*
X81246483Y34741028D01*
X81437009Y34838106D01*
X81610004Y34963794D01*
X81761206Y35114996D01*
X81886894Y35287991D01*
X81983972Y35478517D01*
X82050049Y35681884D01*
X82083500Y35893084D01*
X82083500Y36106916D01*
X82050049Y36318116D01*
X82007346Y36449545D01*
X81983973Y36521481D01*
X81983972Y36521484D01*
X81931239Y36624977D01*
X81886894Y36712009D01*
X81761206Y36885004D01*
X81610004Y37036206D01*
X81437009Y37161894D01*
X81246483Y37258973D01*
X81246480Y37258974D01*
X81043117Y37325049D01*
X80937516Y37341775D01*
X80831916Y37358500D01*
X80618084Y37358500D01*
X80547684Y37347350D01*
X80406882Y37325049D01*
X80203519Y37258974D01*
X80203516Y37258973D01*
X80012990Y37161894D01*
X79839997Y37036207D01*
X79734818Y36931028D01*
X79673495Y36897544D01*
X79603803Y36902528D01*
X79547870Y36944400D01*
X79530958Y36975371D01*
X79485889Y37096204D01*
X79398261Y37213261D01*
X79281204Y37300889D01*
X79144203Y37351989D01*
X79083654Y37358500D01*
X79083638Y37358500D01*
X77286362Y37358500D01*
X77286345Y37358500D01*
X77225797Y37351989D01*
X77225795Y37351989D01*
X77088795Y37300889D01*
X76971739Y37213261D01*
X76884111Y37096205D01*
X76833011Y36959205D01*
X76833011Y36959203D01*
X76826500Y36898655D01*
X71033434Y36898655D01*
X71009914Y36931028D01*
X70916206Y37060006D01*
X70765004Y37211208D01*
X70592009Y37336896D01*
X70401483Y37433975D01*
X70401480Y37433976D01*
X70198117Y37500051D01*
X70074247Y37519670D01*
X69986916Y37533502D01*
X69773084Y37533502D01*
X69702684Y37522352D01*
X69561882Y37500051D01*
X69358519Y37433976D01*
X69358516Y37433975D01*
X69167990Y37336896D01*
X68994997Y37211209D01*
X68889818Y37106030D01*
X68828495Y37072546D01*
X68758803Y37077530D01*
X68702870Y37119402D01*
X68685958Y37150373D01*
X68640889Y37271206D01*
X68638925Y37273829D01*
X68623599Y37294303D01*
X68553261Y37388263D01*
X68436204Y37475891D01*
X68299203Y37526991D01*
X68238654Y37533502D01*
X68238638Y37533502D01*
X66441362Y37533502D01*
X66441345Y37533502D01*
X66380797Y37526991D01*
X66380795Y37526991D01*
X66243795Y37475891D01*
X66126739Y37388263D01*
X66039111Y37271207D01*
X65988011Y37134207D01*
X65988011Y37134205D01*
X65981500Y37073657D01*
X65213500Y37073657D01*
X65213500Y39056234D01*
X65222144Y39085675D01*
X65228668Y39115661D01*
X65232422Y39120677D01*
X65233185Y39123273D01*
X65249819Y39143915D01*
X65321085Y39215181D01*
X65382408Y39248666D01*
X65408766Y39251500D01*
X65514405Y39251500D01*
X65514406Y39251501D01*
X65699584Y39288334D01*
X65874020Y39360588D01*
X66031008Y39465484D01*
X66164516Y39598992D01*
X66269412Y39755980D01*
X66341666Y39930416D01*
X66378500Y40115596D01*
X66378500Y40304404D01*
X66341666Y40489584D01*
X66269412Y40664020D01*
X66269411Y40664021D01*
X66269408Y40664027D01*
X66164516Y40821008D01*
X66164513Y40821012D01*
X66031011Y40954514D01*
X66031007Y40954517D01*
X65874026Y41059409D01*
X65874017Y41059414D01*
X65699584Y41131666D01*
X65699576Y41131668D01*
X65514408Y41168500D01*
X65514404Y41168500D01*
X65325596Y41168500D01*
X65325591Y41168500D01*
X65140423Y41131668D01*
X65140415Y41131666D01*
X64965982Y41059414D01*
X64965973Y41059409D01*
X64808992Y40954517D01*
X64808988Y40954514D01*
X64675486Y40821012D01*
X64675483Y40821008D01*
X64570591Y40664027D01*
X64570586Y40664018D01*
X64498334Y40489585D01*
X64498332Y40489577D01*
X64461500Y40304409D01*
X64461500Y40198766D01*
X64441815Y40131727D01*
X64425181Y40111085D01*
X64176167Y39862071D01*
X64132047Y39817951D01*
X64087927Y39773832D01*
X64018603Y39670082D01*
X64018598Y39670073D01*
X63970845Y39554786D01*
X63970843Y39554778D01*
X63946500Y39432399D01*
X63946500Y35893387D01*
X63926815Y35826348D01*
X63910181Y35805706D01*
X63835486Y35731012D01*
X63835483Y35731008D01*
X63730591Y35574027D01*
X63730586Y35574018D01*
X63658334Y35399585D01*
X63658332Y35399577D01*
X63621500Y35214409D01*
X57129377Y35214409D01*
X57023085Y35320701D01*
X57023078Y35320707D01*
X56824915Y35472762D01*
X56824914Y35472763D01*
X56824911Y35472765D01*
X56608590Y35597658D01*
X56608583Y35597661D01*
X56377821Y35693246D01*
X56136538Y35757898D01*
X55888894Y35790500D01*
X55888893Y35790500D01*
X55639107Y35790500D01*
X55639106Y35790500D01*
X55391461Y35757898D01*
X55150178Y35693246D01*
X54919416Y35597661D01*
X54919407Y35597657D01*
X54703084Y35472762D01*
X54504921Y35320707D01*
X54504914Y35320701D01*
X54328299Y35144086D01*
X54328293Y35144079D01*
X54176238Y34945916D01*
X54051343Y34729593D01*
X54051339Y34729584D01*
X53955754Y34498822D01*
X53891102Y34257539D01*
X53858500Y34009894D01*
X52168500Y34009894D01*
X52168500Y38454894D01*
X53858500Y38454894D01*
X53858500Y38205107D01*
X53891102Y37957462D01*
X53955754Y37716179D01*
X54049776Y37489190D01*
X54051342Y37485410D01*
X54176235Y37269089D01*
X54176237Y37269086D01*
X54176238Y37269085D01*
X54328293Y37070922D01*
X54328299Y37070915D01*
X54504914Y36894300D01*
X54504921Y36894294D01*
X54514414Y36887010D01*
X54703089Y36742235D01*
X54919410Y36617342D01*
X55150183Y36521753D01*
X55391458Y36457103D01*
X55577194Y36432651D01*
X55639106Y36424500D01*
X55639107Y36424500D01*
X55888894Y36424500D01*
X55938422Y36431021D01*
X56136542Y36457103D01*
X56377817Y36521753D01*
X56608590Y36617342D01*
X56824911Y36742235D01*
X57023080Y36894295D01*
X57199705Y37070920D01*
X57351765Y37269089D01*
X57476658Y37485410D01*
X57572247Y37716183D01*
X57636897Y37957458D01*
X57669500Y38205107D01*
X57669500Y38454893D01*
X57636897Y38702542D01*
X57572247Y38943817D01*
X57476658Y39174590D01*
X57351765Y39390911D01*
X57226026Y39554778D01*
X57199706Y39589079D01*
X57199700Y39589086D01*
X57023085Y39765701D01*
X57023078Y39765707D01*
X56824915Y39917762D01*
X56824914Y39917763D01*
X56824911Y39917765D01*
X56621825Y40035017D01*
X56608592Y40042657D01*
X56608583Y40042661D01*
X56377821Y40138246D01*
X56136538Y40202898D01*
X55888894Y40235500D01*
X55888893Y40235500D01*
X55639107Y40235500D01*
X55639106Y40235500D01*
X55391461Y40202898D01*
X55150178Y40138246D01*
X54919416Y40042661D01*
X54919407Y40042657D01*
X54703084Y39917762D01*
X54504921Y39765707D01*
X54504914Y39765701D01*
X54328299Y39589086D01*
X54328293Y39589079D01*
X54176238Y39390916D01*
X54051343Y39174593D01*
X54051339Y39174584D01*
X53955754Y38943822D01*
X53891102Y38702539D01*
X53858500Y38454894D01*
X52168500Y38454894D01*
X52168500Y41375878D01*
X52188185Y41442917D01*
X52204819Y41463559D01*
X53196441Y42455181D01*
X53257764Y42488666D01*
X53284122Y42491500D01*
X53354405Y42491500D01*
X53354406Y42491501D01*
X53539584Y42528334D01*
X53714020Y42600588D01*
X53871008Y42705484D01*
X54004516Y42838992D01*
X54109412Y42995980D01*
X54181666Y43170416D01*
X54218500Y43355596D01*
X54218500Y43544404D01*
X54181666Y43729584D01*
X54109412Y43904020D01*
X54109411Y43904021D01*
X54109408Y43904027D01*
X54004516Y44061008D01*
X54004513Y44061012D01*
X53871011Y44194514D01*
X53871007Y44194517D01*
X53714026Y44299409D01*
X53714017Y44299414D01*
X53539584Y44371666D01*
X53539576Y44371668D01*
X53354408Y44408500D01*
X53354404Y44408500D01*
X53165596Y44408500D01*
X53165591Y44408500D01*
X52980423Y44371668D01*
X52980415Y44371666D01*
X52805982Y44299414D01*
X52805973Y44299409D01*
X52648992Y44194517D01*
X52648988Y44194514D01*
X52515486Y44061012D01*
X52515483Y44061008D01*
X52410591Y43904027D01*
X52410586Y43904018D01*
X52338334Y43729585D01*
X52338332Y43729577D01*
X52301500Y43544409D01*
X52301500Y43474123D01*
X52281815Y43407084D01*
X52265181Y43386442D01*
X50998511Y42119773D01*
X50998505Y42119765D01*
X50945602Y42040589D01*
X50891990Y41995783D01*
X50822665Y41987076D01*
X50759638Y42017230D01*
X50722918Y42076673D01*
X50718500Y42109479D01*
X50718500Y42565878D01*
X50738185Y42632917D01*
X50754819Y42653559D01*
X53906441Y45805181D01*
X53967764Y45838666D01*
X53994122Y45841500D01*
X72891614Y45841500D01*
X72958653Y45821815D01*
X72979296Y45805180D01*
X73028988Y45755487D01*
X73028992Y45755484D01*
X73185973Y45650592D01*
X73185979Y45650589D01*
X73185980Y45650588D01*
X73360416Y45578334D01*
X73545591Y45541501D01*
X73545595Y45541500D01*
X73545596Y45541500D01*
X73734405Y45541500D01*
X73734406Y45541501D01*
X73919584Y45578334D01*
X74094020Y45650588D01*
X74251008Y45755484D01*
X74384516Y45888992D01*
X74489412Y46045980D01*
X74561666Y46220416D01*
X74598500Y46405596D01*
X74598500Y46594404D01*
X74561666Y46779584D01*
X74489412Y46954020D01*
X74489411Y46954021D01*
X74489408Y46954027D01*
X74384516Y47111008D01*
X74384513Y47111012D01*
X74251011Y47244514D01*
X74251007Y47244517D01*
X74094026Y47349409D01*
X74094017Y47349414D01*
X73919584Y47421666D01*
X73919576Y47421668D01*
X73734408Y47458500D01*
X73734404Y47458500D01*
X73545596Y47458500D01*
X73545591Y47458500D01*
X73360423Y47421668D01*
X73360415Y47421666D01*
X73185982Y47349414D01*
X73185973Y47349409D01*
X73028992Y47244517D01*
X73028988Y47244514D01*
X72979296Y47194820D01*
X72917973Y47161334D01*
X72891614Y47158500D01*
X53605141Y47158500D01*
X53477928Y47133196D01*
X53477922Y47133194D01*
X53358086Y47083557D01*
X53358079Y47083553D01*
X53250228Y47011490D01*
X49548510Y43309772D01*
X49476447Y43201921D01*
X49476443Y43201914D01*
X49426806Y43082078D01*
X49426804Y43082072D01*
X49401500Y42954860D01*
X49401500Y15274123D01*
X49381815Y15207084D01*
X49365181Y15186442D01*
X43372511Y9193773D01*
X43372510Y9193772D01*
X43300447Y9085921D01*
X43300443Y9085914D01*
X43250806Y8966078D01*
X43250804Y8966072D01*
X43225500Y8838860D01*
X43225500Y5822976D01*
X43205815Y5755937D01*
X43153011Y5710182D01*
X43083853Y5700238D01*
X43063182Y5705045D01*
X42863117Y5770049D01*
X42706283Y5794889D01*
X42651916Y5803500D01*
X42438084Y5803500D01*
X42383717Y5794889D01*
X42226882Y5770049D01*
X42023519Y5703974D01*
X42023516Y5703973D01*
X41832990Y5606894D01*
X41659993Y5481204D01*
X41508796Y5330007D01*
X41383105Y5157009D01*
X41380727Y5153127D01*
X41328914Y5106252D01*
X41259984Y5094831D01*
X41195822Y5122488D01*
X41169273Y5153127D01*
X41166894Y5157009D01*
X41120699Y5220591D01*
X41041206Y5330004D01*
X40890004Y5481206D01*
X40717009Y5606894D01*
X40708368Y5611297D01*
X40526483Y5703973D01*
X40526480Y5703974D01*
X40323117Y5770049D01*
X40166283Y5794889D01*
X40111916Y5803500D01*
X39898084Y5803500D01*
X39843717Y5794889D01*
X39686882Y5770049D01*
X39483519Y5703974D01*
X39483516Y5703973D01*
X39292990Y5606894D01*
X39119993Y5481204D01*
X38968796Y5330007D01*
X38843105Y5157009D01*
X38840727Y5153127D01*
X38788914Y5106252D01*
X38719984Y5094831D01*
X38655822Y5122488D01*
X38629273Y5153127D01*
X38626894Y5157009D01*
X38580699Y5220591D01*
X38501206Y5330004D01*
X38350004Y5481206D01*
X38177009Y5606894D01*
X38168368Y5611297D01*
X37986483Y5703973D01*
X37986480Y5703974D01*
X37783117Y5770049D01*
X37626283Y5794889D01*
X37571916Y5803500D01*
X37358084Y5803500D01*
X37303717Y5794889D01*
X37146882Y5770049D01*
X36943519Y5703974D01*
X36943516Y5703973D01*
X36752990Y5606894D01*
X36579993Y5481204D01*
X36428796Y5330007D01*
X36303105Y5157009D01*
X36300727Y5153127D01*
X36248914Y5106252D01*
X36179984Y5094831D01*
X36115822Y5122488D01*
X36089273Y5153127D01*
X36086894Y5157009D01*
X36040699Y5220591D01*
X35961206Y5330004D01*
X35810004Y5481206D01*
X35637009Y5606894D01*
X35628368Y5611297D01*
X35446483Y5703973D01*
X35446480Y5703974D01*
X35243117Y5770049D01*
X35086283Y5794889D01*
X35031916Y5803500D01*
X34818084Y5803500D01*
X34763717Y5794889D01*
X34606882Y5770049D01*
X34403519Y5703974D01*
X34403516Y5703973D01*
X34212990Y5606894D01*
X34039993Y5481204D01*
X33888796Y5330007D01*
X33763105Y5157009D01*
X33760727Y5153127D01*
X33708914Y5106252D01*
X33639984Y5094831D01*
X33575822Y5122488D01*
X33549273Y5153127D01*
X33546894Y5157009D01*
X33500699Y5220591D01*
X33421206Y5330004D01*
X33270004Y5481206D01*
X33097009Y5606894D01*
X33088368Y5611297D01*
X32906483Y5703973D01*
X32906480Y5703974D01*
X32703117Y5770049D01*
X32546283Y5794889D01*
X32491916Y5803500D01*
X32278084Y5803500D01*
X32223717Y5794889D01*
X32066882Y5770049D01*
X31863519Y5703974D01*
X31863516Y5703973D01*
X31672990Y5606894D01*
X31499993Y5481204D01*
X31348796Y5330007D01*
X31223105Y5157009D01*
X31220727Y5153127D01*
X31168914Y5106252D01*
X31099984Y5094831D01*
X31035822Y5122488D01*
X31009273Y5153127D01*
X31006894Y5157009D01*
X30960699Y5220591D01*
X30881206Y5330004D01*
X30730004Y5481206D01*
X30557009Y5606894D01*
X30548368Y5611297D01*
X30366483Y5703973D01*
X30366480Y5703974D01*
X30163117Y5770049D01*
X30006283Y5794889D01*
X29951916Y5803500D01*
X29738084Y5803500D01*
X29683717Y5794889D01*
X29526882Y5770049D01*
X29323519Y5703974D01*
X29323516Y5703973D01*
X29132990Y5606894D01*
X28959993Y5481204D01*
X28808796Y5330007D01*
X28683105Y5157009D01*
X28680727Y5153127D01*
X28628914Y5106252D01*
X28559984Y5094831D01*
X28495822Y5122488D01*
X28469273Y5153127D01*
X28466894Y5157009D01*
X28420699Y5220591D01*
X28341206Y5330004D01*
X28190004Y5481206D01*
X28017009Y5606894D01*
X28008368Y5611297D01*
X27826483Y5703973D01*
X27826480Y5703974D01*
X27623117Y5770049D01*
X27466283Y5794889D01*
X27411916Y5803500D01*
X27198084Y5803500D01*
X27143717Y5794889D01*
X26986882Y5770049D01*
X26783519Y5703974D01*
X26783516Y5703973D01*
X26592990Y5606894D01*
X26419993Y5481204D01*
X26268796Y5330007D01*
X26143105Y5157009D01*
X26140727Y5153127D01*
X26088914Y5106252D01*
X26019984Y5094831D01*
X25955822Y5122488D01*
X25929273Y5153127D01*
X25926894Y5157009D01*
X25880699Y5220591D01*
X25801206Y5330004D01*
X25650004Y5481206D01*
X25477009Y5606894D01*
X25468368Y5611297D01*
X25286483Y5703973D01*
X25286480Y5703974D01*
X25083117Y5770049D01*
X24926283Y5794889D01*
X24871916Y5803500D01*
X24658084Y5803500D01*
X24603717Y5794889D01*
X24446882Y5770049D01*
X24243519Y5703974D01*
X24243516Y5703973D01*
X24052990Y5606894D01*
X23879993Y5481204D01*
X23728796Y5330007D01*
X23603105Y5157009D01*
X23600727Y5153127D01*
X23548914Y5106252D01*
X23479984Y5094831D01*
X23415822Y5122488D01*
X23389273Y5153127D01*
X23386894Y5157009D01*
X23340699Y5220591D01*
X23261206Y5330004D01*
X23110004Y5481206D01*
X22937009Y5606894D01*
X22928368Y5611297D01*
X22746483Y5703973D01*
X22746480Y5703974D01*
X22543117Y5770049D01*
X22386283Y5794889D01*
X22331916Y5803500D01*
X22118084Y5803500D01*
X22063717Y5794889D01*
X21906882Y5770049D01*
X21703519Y5703974D01*
X21703516Y5703973D01*
X21512990Y5606894D01*
X21339993Y5481204D01*
X21188796Y5330007D01*
X21063103Y5157006D01*
X21060709Y5152307D01*
X21012731Y5101515D01*
X20944908Y5084725D01*
X20878775Y5107268D01*
X20842804Y5148785D01*
X20842171Y5148396D01*
X20839826Y5152222D01*
X20839743Y5152318D01*
X20839624Y5152551D01*
X20800270Y5206718D01*
X20800269Y5206718D01*
X20167962Y4574410D01*
X20150925Y4637993D01*
X20085099Y4752007D01*
X19992007Y4845099D01*
X19877993Y4910925D01*
X19814409Y4927963D01*
X20446716Y5560272D01*
X20392550Y5599625D01*
X20203217Y5696096D01*
X20001129Y5761758D01*
X19791246Y5795000D01*
X19578754Y5795000D01*
X19368872Y5761758D01*
X19368869Y5761758D01*
X19166782Y5696096D01*
X18977439Y5599620D01*
X18923282Y5560273D01*
X18923282Y5560272D01*
X19555591Y4927963D01*
X19492007Y4910925D01*
X19377993Y4845099D01*
X19284901Y4752007D01*
X19219075Y4637993D01*
X19202037Y4574409D01*
X18569728Y5206718D01*
X18569727Y5206718D01*
X18530380Y5152561D01*
X18433904Y4963218D01*
X18368242Y4761131D01*
X18368242Y4761128D01*
X18335000Y4551247D01*
X18335000Y4338754D01*
X18368242Y4128873D01*
X18368242Y4128870D01*
X18433904Y3926783D01*
X18530375Y3737450D01*
X18569728Y3683284D01*
X19202037Y4315592D01*
X19219075Y4252007D01*
X19284901Y4137993D01*
X19377993Y4044901D01*
X19492007Y3979075D01*
X19555590Y3962038D01*
X18886195Y3292644D01*
X18824872Y3259159D01*
X18810167Y3260076D01*
X18810444Y3257503D01*
X18727626Y3248599D01*
X18727619Y3248597D01*
X18592913Y3198355D01*
X18592906Y3198351D01*
X18477812Y3112191D01*
X18477809Y3112188D01*
X18391649Y2997094D01*
X18391645Y2997087D01*
X18341403Y2862380D01*
X18341401Y2862373D01*
X18335000Y2802845D01*
X18335000Y2155000D01*
X19251988Y2155000D01*
X19219075Y2097993D01*
X19185000Y1970826D01*
X19185000Y1839174D01*
X19219075Y1712007D01*
X19251988Y1655000D01*
X18335000Y1655000D01*
X18335000Y1007156D01*
X18341401Y947628D01*
X18341403Y947621D01*
X18391645Y812914D01*
X18391649Y812907D01*
X18477062Y698811D01*
X18501480Y633347D01*
X18486629Y565074D01*
X18437224Y515668D01*
X18377796Y500500D01*
X6352425Y500500D01*
X6347557Y500596D01*
X5895921Y518341D01*
X5886214Y519105D01*
X5439775Y571945D01*
X5430159Y573468D01*
X4989240Y661172D01*
X4979772Y663445D01*
X4547102Y785471D01*
X4537842Y788479D01*
X4116062Y944082D01*
X4107067Y947808D01*
X3698808Y1136017D01*
X3690133Y1140438D01*
X3297891Y1360105D01*
X3289589Y1365192D01*
X2915800Y1614949D01*
X2907923Y1620672D01*
X2554877Y1898991D01*
X2547474Y1905314D01*
X2217350Y2210478D01*
X2210477Y2217351D01*
X1905308Y2547481D01*
X1898990Y2554878D01*
X1890023Y2566252D01*
X1620668Y2907927D01*
X1614948Y2915802D01*
X1404036Y3231455D01*
X1404035Y3231456D01*
X1365191Y3289590D01*
X1361086Y3296289D01*
X12754500Y3296289D01*
X12754500Y3053712D01*
X12786161Y2813215D01*
X12848947Y2578896D01*
X12926138Y2392542D01*
X12941776Y2354788D01*
X13063064Y2144711D01*
X13063066Y2144708D01*
X13063067Y2144707D01*
X13210733Y1952264D01*
X13210739Y1952257D01*
X13382256Y1780740D01*
X13382262Y1780735D01*
X13574711Y1633064D01*
X13784788Y1511776D01*
X14008900Y1418946D01*
X14243211Y1356162D01*
X14419451Y1332960D01*
X14483711Y1324500D01*
X14483712Y1324500D01*
X14726289Y1324500D01*
X14790549Y1332960D01*
X14966789Y1356162D01*
X15201100Y1418946D01*
X15425212Y1511776D01*
X15635289Y1633064D01*
X15827738Y1780735D01*
X15999265Y1952262D01*
X16146936Y2144711D01*
X16268224Y2354788D01*
X16361054Y2578900D01*
X16423838Y2813211D01*
X16455500Y3053712D01*
X16455500Y3296288D01*
X16423838Y3536789D01*
X16361054Y3771100D01*
X16351083Y3795171D01*
X16289022Y3945000D01*
X16268224Y3995212D01*
X16146936Y4205289D01*
X15999265Y4397738D01*
X15999260Y4397744D01*
X15827743Y4569261D01*
X15827736Y4569267D01*
X15635293Y4716933D01*
X15635292Y4716934D01*
X15635289Y4716936D01*
X15425212Y4838224D01*
X15425205Y4838227D01*
X15201104Y4931053D01*
X14966785Y4993839D01*
X14726289Y5025500D01*
X14726288Y5025500D01*
X14483712Y5025500D01*
X14483711Y5025500D01*
X14243214Y4993839D01*
X14008895Y4931053D01*
X13784794Y4838227D01*
X13784785Y4838223D01*
X13574706Y4716933D01*
X13382263Y4569267D01*
X13382256Y4569261D01*
X13210739Y4397744D01*
X13210733Y4397737D01*
X13063067Y4205294D01*
X12941777Y3995215D01*
X12941773Y3995206D01*
X12848947Y3771105D01*
X12786161Y3536786D01*
X12754500Y3296289D01*
X1361086Y3296289D01*
X1360104Y3297892D01*
X1140437Y3690134D01*
X1136022Y3698797D01*
X947807Y4107068D01*
X944081Y4116063D01*
X802623Y4499500D01*
X788477Y4537844D01*
X785470Y4547103D01*
X746078Y4686776D01*
X663443Y4979777D01*
X661171Y4989241D01*
X660257Y4993838D01*
X573466Y5430165D01*
X571947Y5439749D01*
X519102Y5886234D01*
X518341Y5895904D01*
X500596Y6347557D01*
X500500Y6352425D01*
X500500Y9203727D01*
X6871500Y9203727D01*
X6871500Y7856274D01*
X6886214Y7725675D01*
X6944157Y7560085D01*
X6944159Y7560082D01*
X7002362Y7467453D01*
X7037493Y7411542D01*
X7161542Y7287493D01*
X7310084Y7194158D01*
X7378508Y7170215D01*
X7475674Y7136215D01*
X7574673Y7125062D01*
X7606274Y7121501D01*
X7606277Y7121500D01*
X7606280Y7121500D01*
X9693723Y7121500D01*
X9693724Y7121501D01*
X9742175Y7126960D01*
X9824325Y7136215D01*
X9824327Y7136216D01*
X9824329Y7136216D01*
X9989916Y7194158D01*
X10138458Y7287493D01*
X10262507Y7411542D01*
X10355842Y7560084D01*
X10413784Y7725671D01*
X10413784Y7725673D01*
X10413785Y7725675D01*
X10428499Y7856274D01*
X10428500Y7856278D01*
X10428500Y9203723D01*
X10428499Y9203727D01*
X10427656Y9211206D01*
X10418748Y9290273D01*
X10413785Y9334326D01*
X10401636Y9369045D01*
X10355842Y9499916D01*
X10355841Y9499917D01*
X10355143Y9501913D01*
X10351581Y9571692D01*
X10355143Y9583823D01*
X10405443Y9727572D01*
X10405445Y9727580D01*
X10419999Y9856757D01*
X10420000Y9856757D01*
X10420000Y10280000D01*
X9025278Y10280000D01*
X9069333Y10356306D01*
X9100000Y10470756D01*
X9100000Y10589244D01*
X9069333Y10703694D01*
X9025278Y10780000D01*
X10419999Y10780000D01*
X10419999Y11203241D01*
X10419998Y11203245D01*
X10405444Y11332423D01*
X10348135Y11496206D01*
X10348135Y11496207D01*
X10313714Y11550986D01*
X10313713Y11550987D01*
X10274336Y11613655D01*
X13246500Y11613655D01*
X13246500Y9816346D01*
X13253011Y9755798D01*
X13253011Y9755796D01*
X13304111Y9618796D01*
X13391739Y9501739D01*
X13508796Y9414111D01*
X13629626Y9369044D01*
X13685557Y9327173D01*
X13709974Y9261709D01*
X13695122Y9193436D01*
X13673972Y9165182D01*
X13568793Y9060003D01*
X13443106Y8887010D01*
X13346027Y8696484D01*
X13346026Y8696481D01*
X13279951Y8493118D01*
X13246500Y8281916D01*
X13246500Y8068085D01*
X13279951Y7856883D01*
X13346026Y7653520D01*
X13346027Y7653517D01*
X13432656Y7483500D01*
X13443106Y7462991D01*
X13568794Y7289996D01*
X13719996Y7138794D01*
X13892991Y7013106D01*
X13986438Y6965493D01*
X14083516Y6916028D01*
X14083519Y6916027D01*
X14185200Y6882990D01*
X14286884Y6849951D01*
X14498084Y6816500D01*
X14498085Y6816500D01*
X14711915Y6816500D01*
X14711916Y6816500D01*
X14923116Y6849951D01*
X15126483Y6916028D01*
X15317009Y7013106D01*
X15490004Y7138794D01*
X15641206Y7289996D01*
X15766894Y7462991D01*
X15769283Y7467681D01*
X15817254Y7518478D01*
X15885074Y7535276D01*
X15951210Y7512742D01*
X15987196Y7471217D01*
X15987829Y7471604D01*
X15990167Y7467789D01*
X15990251Y7467692D01*
X15990371Y7467455D01*
X15990373Y7467453D01*
X16029728Y7413284D01*
X16662037Y8045592D01*
X16679075Y7982007D01*
X16744901Y7867993D01*
X16837993Y7774901D01*
X16952007Y7709075D01*
X17015590Y7692038D01*
X16383282Y7059731D01*
X16383282Y7059730D01*
X16437449Y7020376D01*
X16626782Y6923905D01*
X16828870Y6858243D01*
X17038754Y6825000D01*
X17251246Y6825000D01*
X17461127Y6858243D01*
X17461130Y6858243D01*
X17663217Y6923905D01*
X17852554Y7020378D01*
X17906716Y7059730D01*
X17906717Y7059730D01*
X17274408Y7692038D01*
X17337993Y7709075D01*
X17452007Y7774901D01*
X17545099Y7867993D01*
X17610925Y7982007D01*
X17627962Y8045592D01*
X18260270Y7413283D01*
X18260270Y7413284D01*
X18299622Y7467446D01*
X18396095Y7656783D01*
X18461757Y7858870D01*
X18461757Y7858873D01*
X18495000Y8068754D01*
X18495000Y8281247D01*
X18461757Y8491128D01*
X18461757Y8491131D01*
X18396095Y8693218D01*
X18299624Y8882551D01*
X18260270Y8936718D01*
X18260269Y8936718D01*
X17627962Y8304410D01*
X17610925Y8367993D01*
X17545099Y8482007D01*
X17452007Y8575099D01*
X17337993Y8640925D01*
X17274409Y8657963D01*
X17906716Y9290272D01*
X17852547Y9329627D01*
X17852545Y9329629D01*
X17852308Y9329749D01*
X17852234Y9329819D01*
X17848396Y9332171D01*
X17848890Y9332978D01*
X17801515Y9377726D01*
X17784724Y9445549D01*
X17807266Y9511682D01*
X17852319Y9550717D01*
X17857009Y9553106D01*
X18030004Y9678794D01*
X18181206Y9829996D01*
X18306894Y10002991D01*
X18403972Y10193517D01*
X18470049Y10396884D01*
X18503500Y10608084D01*
X18503500Y10821916D01*
X18470049Y11033116D01*
X18403972Y11236483D01*
X18403972Y11236484D01*
X18352474Y11337553D01*
X18306894Y11427009D01*
X18181206Y11600004D01*
X18030004Y11751206D01*
X17857009Y11876894D01*
X17781347Y11915446D01*
X17666483Y11973973D01*
X17666480Y11973974D01*
X17463117Y12040049D01*
X17357516Y12056775D01*
X17251916Y12073500D01*
X17038084Y12073500D01*
X16967684Y12062350D01*
X16826882Y12040049D01*
X16623519Y11973974D01*
X16623516Y11973973D01*
X16432990Y11876894D01*
X16259997Y11751207D01*
X16154818Y11646028D01*
X16093495Y11612544D01*
X16023803Y11617528D01*
X15967870Y11659400D01*
X15950958Y11690371D01*
X15905889Y11811204D01*
X15818261Y11928261D01*
X15701204Y12015889D01*
X15700990Y12015969D01*
X15564203Y12066989D01*
X15503654Y12073500D01*
X15503638Y12073500D01*
X13706362Y12073500D01*
X13706345Y12073500D01*
X13645797Y12066989D01*
X13645795Y12066989D01*
X13508795Y12015889D01*
X13391739Y11928261D01*
X13304111Y11811205D01*
X13253011Y11674205D01*
X13253011Y11674203D01*
X13246500Y11613655D01*
X10274336Y11613655D01*
X10255818Y11643126D01*
X10133125Y11765819D01*
X10133119Y11765824D01*
X9986211Y11858133D01*
X9986205Y11858136D01*
X9822423Y11915445D01*
X9822420Y11915446D01*
X9693243Y11930000D01*
X8900000Y11930000D01*
X8900000Y10905278D01*
X8823694Y10949333D01*
X8709244Y10980000D01*
X8590756Y10980000D01*
X8476306Y10949333D01*
X8400000Y10905278D01*
X8400000Y11930000D01*
X7606759Y11930000D01*
X7606755Y11929999D01*
X7477577Y11915445D01*
X7313794Y11858136D01*
X7313788Y11858133D01*
X7166880Y11765824D01*
X7166874Y11765819D01*
X7044181Y11643126D01*
X7044176Y11643120D01*
X6951867Y11496212D01*
X6951864Y11496206D01*
X6894555Y11332424D01*
X6894554Y11332421D01*
X6880000Y11203244D01*
X6880000Y10780000D01*
X8274722Y10780000D01*
X8230667Y10703694D01*
X8200000Y10589244D01*
X8200000Y10470756D01*
X8230667Y10356306D01*
X8274722Y10280000D01*
X6880001Y10280000D01*
X6880001Y9856756D01*
X6894555Y9727578D01*
X6944856Y9583822D01*
X6948417Y9514043D01*
X6944856Y9501914D01*
X6886214Y9334324D01*
X6871500Y9203727D01*
X500500Y9203727D01*
X500500Y14596916D01*
X13261502Y14596916D01*
X13261502Y14383085D01*
X13294953Y14171883D01*
X13361028Y13968520D01*
X13361029Y13968517D01*
X13393321Y13905142D01*
X13458108Y13777991D01*
X13583796Y13604996D01*
X13734998Y13453794D01*
X13907993Y13328106D01*
X14001440Y13280493D01*
X14098518Y13231028D01*
X14098521Y13231027D01*
X14200202Y13197990D01*
X14301886Y13164951D01*
X14513086Y13131500D01*
X14513087Y13131500D01*
X14726917Y13131500D01*
X14726918Y13131500D01*
X14938118Y13164951D01*
X15141485Y13231028D01*
X15332011Y13328106D01*
X15505006Y13453794D01*
X15610186Y13558975D01*
X15671505Y13592457D01*
X15741197Y13587473D01*
X15797131Y13545602D01*
X15814045Y13514625D01*
X15859112Y13393797D01*
X15859113Y13393796D01*
X15946741Y13276739D01*
X16063798Y13189111D01*
X16200801Y13138011D01*
X16228052Y13135082D01*
X16261347Y13131501D01*
X16261364Y13131500D01*
X18058640Y13131500D01*
X18058656Y13131501D01*
X18085694Y13134409D01*
X18119203Y13138011D01*
X18256206Y13189111D01*
X18373263Y13276739D01*
X18460891Y13393796D01*
X18511991Y13530799D01*
X18515593Y13564308D01*
X18518501Y13591346D01*
X18518502Y13591363D01*
X18518502Y15388638D01*
X18518501Y15388655D01*
X18515020Y15421029D01*
X18511991Y15449201D01*
X18505958Y15465375D01*
X18464742Y15575879D01*
X18460891Y15586204D01*
X18373263Y15703261D01*
X18256206Y15790889D01*
X18119205Y15841989D01*
X18058656Y15848500D01*
X18058640Y15848500D01*
X16261364Y15848500D01*
X16261347Y15848500D01*
X16200799Y15841989D01*
X16200797Y15841989D01*
X16063797Y15790889D01*
X15946741Y15703261D01*
X15859113Y15586205D01*
X15814045Y15465375D01*
X15772173Y15409442D01*
X15706709Y15385026D01*
X15638436Y15399878D01*
X15610183Y15421029D01*
X15505008Y15526204D01*
X15505006Y15526206D01*
X15332011Y15651894D01*
X15248579Y15694405D01*
X15141485Y15748973D01*
X15141482Y15748974D01*
X14938119Y15815049D01*
X14791450Y15838279D01*
X14726918Y15848500D01*
X14513086Y15848500D01*
X14448554Y15838279D01*
X14301884Y15815049D01*
X14098521Y15748974D01*
X14098518Y15748973D01*
X13907992Y15651894D01*
X13734995Y15526204D01*
X13583798Y15375007D01*
X13458108Y15202010D01*
X13361029Y15011484D01*
X13361028Y15011481D01*
X13294953Y14808118D01*
X13261502Y14596916D01*
X500500Y14596916D01*
X500500Y16755117D01*
X31771500Y16755117D01*
X31771500Y15764884D01*
X31801256Y15577009D01*
X31860040Y15396093D01*
X31922188Y15274123D01*
X31946398Y15226608D01*
X32058208Y15072715D01*
X33092715Y14038208D01*
X33246608Y13926398D01*
X33326683Y13885598D01*
X33416092Y13840041D01*
X33416094Y13840041D01*
X33416097Y13840039D01*
X33488635Y13816470D01*
X33597008Y13781257D01*
X33784884Y13751500D01*
X33784889Y13751500D01*
X45570116Y13751500D01*
X45757991Y13781257D01*
X45758019Y13781266D01*
X45938903Y13840039D01*
X46108392Y13926398D01*
X46262285Y14038208D01*
X46388659Y14164584D01*
X46449980Y14198067D01*
X46492525Y14199840D01*
X46495107Y14199500D01*
X46495109Y14199500D01*
X46744894Y14199500D01*
X46808106Y14207822D01*
X46992542Y14232103D01*
X47233817Y14296753D01*
X47464590Y14392342D01*
X47680911Y14517235D01*
X47879080Y14669295D01*
X48055705Y14845920D01*
X48207765Y15044089D01*
X48332658Y15260410D01*
X48428247Y15491183D01*
X48492897Y15732458D01*
X48525500Y15980107D01*
X48525500Y16229893D01*
X48492897Y16477542D01*
X48428247Y16718817D01*
X48332658Y16949590D01*
X48207765Y17165911D01*
X48060016Y17358462D01*
X48055706Y17364079D01*
X48055700Y17364086D01*
X47879085Y17540701D01*
X47879078Y17540707D01*
X47680915Y17692762D01*
X47680914Y17692763D01*
X47680911Y17692765D01*
X47477825Y17810017D01*
X47464592Y17817657D01*
X47464583Y17817661D01*
X47233821Y17913246D01*
X46992538Y17977898D01*
X46744894Y18010500D01*
X46744893Y18010500D01*
X46495107Y18010500D01*
X46495106Y18010500D01*
X46247461Y17977898D01*
X46006178Y17913246D01*
X45775416Y17817661D01*
X45775407Y17817657D01*
X45559084Y17692762D01*
X45360921Y17540707D01*
X45360914Y17540701D01*
X45184299Y17364086D01*
X45184293Y17364079D01*
X45032238Y17165916D01*
X44907343Y16949593D01*
X44907339Y16949584D01*
X44811754Y16718822D01*
X44747102Y16477539D01*
X44720611Y16276315D01*
X44692345Y16212418D01*
X44634020Y16173947D01*
X44597672Y16168500D01*
X34431939Y16168500D01*
X34402498Y16177145D01*
X34372512Y16183668D01*
X34367496Y16187423D01*
X34364900Y16188185D01*
X34344258Y16204819D01*
X34224819Y16324258D01*
X34191334Y16385581D01*
X34188500Y16411939D01*
X34188500Y16755117D01*
X34158743Y16942992D01*
X34099959Y17123908D01*
X34054402Y17213317D01*
X34013602Y17293392D01*
X33901792Y17447285D01*
X33767285Y17581792D01*
X33613392Y17693602D01*
X33443907Y17779960D01*
X33262991Y17838744D01*
X33075116Y17868500D01*
X33075111Y17868500D01*
X32884889Y17868500D01*
X32884884Y17868500D01*
X32697008Y17838744D01*
X32516092Y17779960D01*
X32346607Y17693602D01*
X32258806Y17629811D01*
X32192715Y17581792D01*
X32192713Y17581790D01*
X32192712Y17581790D01*
X32058210Y17447288D01*
X32058210Y17447287D01*
X32058208Y17447285D01*
X32010189Y17381194D01*
X31946398Y17293393D01*
X31860040Y17123908D01*
X31801256Y16942992D01*
X31771500Y16755117D01*
X500500Y16755117D01*
X500500Y20330500D01*
X520185Y20397539D01*
X572989Y20443294D01*
X624500Y20454500D01*
X20385890Y20454500D01*
X20385892Y20454500D01*
X20513186Y20488608D01*
X20627314Y20554500D01*
X20720500Y20647686D01*
X20736209Y20674894D01*
X44714500Y20674894D01*
X44714500Y20425107D01*
X44747102Y20177462D01*
X44811754Y19936179D01*
X44851701Y19839739D01*
X44907342Y19705410D01*
X45032235Y19489089D01*
X45032237Y19489086D01*
X45032238Y19489085D01*
X45184293Y19290922D01*
X45184299Y19290915D01*
X45360914Y19114300D01*
X45360920Y19114295D01*
X45559089Y18962235D01*
X45775410Y18837342D01*
X46006183Y18741753D01*
X46247458Y18677103D01*
X46433194Y18652651D01*
X46495106Y18644500D01*
X46495107Y18644500D01*
X46744894Y18644500D01*
X46794422Y18651021D01*
X46992542Y18677103D01*
X47233817Y18741753D01*
X47464590Y18837342D01*
X47680911Y18962235D01*
X47879080Y19114295D01*
X48055705Y19290920D01*
X48207765Y19489089D01*
X48332658Y19705410D01*
X48428247Y19936183D01*
X48492897Y20177458D01*
X48525500Y20425107D01*
X48525500Y20674893D01*
X48492897Y20922542D01*
X48428247Y21163817D01*
X48332658Y21394590D01*
X48207765Y21610911D01*
X48060016Y21803462D01*
X48055706Y21809079D01*
X48055700Y21809086D01*
X47879085Y21985701D01*
X47879078Y21985707D01*
X47680915Y22137762D01*
X47680914Y22137763D01*
X47680911Y22137765D01*
X47477825Y22255017D01*
X47464592Y22262657D01*
X47464583Y22262661D01*
X47233821Y22358246D01*
X46992538Y22422898D01*
X46744894Y22455500D01*
X46744893Y22455500D01*
X46495107Y22455500D01*
X46495106Y22455500D01*
X46247461Y22422898D01*
X46006178Y22358246D01*
X45775416Y22262661D01*
X45775407Y22262657D01*
X45559084Y22137762D01*
X45360921Y21985707D01*
X45360914Y21985701D01*
X45184299Y21809086D01*
X45184293Y21809079D01*
X45032238Y21610916D01*
X44907343Y21394593D01*
X44907339Y21394584D01*
X44811754Y21163822D01*
X44747102Y20922539D01*
X44714500Y20674894D01*
X20736209Y20674894D01*
X20786392Y20761814D01*
X20820500Y20889108D01*
X20820500Y25119894D01*
X44714500Y25119894D01*
X44714500Y24870107D01*
X44747102Y24622462D01*
X44811754Y24381179D01*
X44907339Y24150417D01*
X44907342Y24150410D01*
X45032235Y23934089D01*
X45032237Y23934086D01*
X45032238Y23934085D01*
X45184293Y23735922D01*
X45184299Y23735915D01*
X45360914Y23559300D01*
X45360920Y23559295D01*
X45559089Y23407235D01*
X45775410Y23282342D01*
X46006183Y23186753D01*
X46247458Y23122103D01*
X46433194Y23097651D01*
X46495106Y23089500D01*
X46495107Y23089500D01*
X46744894Y23089500D01*
X46794422Y23096021D01*
X46992542Y23122103D01*
X47233817Y23186753D01*
X47464590Y23282342D01*
X47680911Y23407235D01*
X47879080Y23559295D01*
X48055705Y23735920D01*
X48207765Y23934089D01*
X48332658Y24150410D01*
X48428247Y24381183D01*
X48492897Y24622458D01*
X48525500Y24870107D01*
X48525500Y25119893D01*
X48492897Y25367542D01*
X48428247Y25608817D01*
X48332658Y25839590D01*
X48207765Y26055911D01*
X48055705Y26254080D01*
X48055700Y26254086D01*
X47879085Y26430701D01*
X47879078Y26430707D01*
X47680915Y26582762D01*
X47680914Y26582763D01*
X47680911Y26582765D01*
X47464590Y26707658D01*
X47464583Y26707661D01*
X47233821Y26803246D01*
X46992538Y26867898D01*
X46744894Y26900500D01*
X46744893Y26900500D01*
X46495107Y26900500D01*
X46495106Y26900500D01*
X46247461Y26867898D01*
X46006178Y26803246D01*
X45775416Y26707661D01*
X45775407Y26707657D01*
X45559084Y26582762D01*
X45360921Y26430707D01*
X45360914Y26430701D01*
X45184299Y26254086D01*
X45184293Y26254079D01*
X45032238Y26055916D01*
X44907343Y25839593D01*
X44907339Y25839584D01*
X44811754Y25608822D01*
X44747102Y25367539D01*
X44714500Y25119894D01*
X20820500Y25119894D01*
X20820500Y29564894D01*
X44714500Y29564894D01*
X44714500Y29315107D01*
X44747102Y29067462D01*
X44811754Y28826179D01*
X44907339Y28595417D01*
X44907343Y28595408D01*
X44930200Y28555819D01*
X45032235Y28379089D01*
X45032237Y28379086D01*
X45032238Y28379085D01*
X45184293Y28180922D01*
X45184299Y28180915D01*
X45360914Y28004300D01*
X45360920Y28004295D01*
X45559089Y27852235D01*
X45775410Y27727342D01*
X46006183Y27631753D01*
X46247458Y27567103D01*
X46433194Y27542651D01*
X46495106Y27534500D01*
X46495107Y27534500D01*
X46744894Y27534500D01*
X46794422Y27541021D01*
X46992542Y27567103D01*
X47233817Y27631753D01*
X47464590Y27727342D01*
X47680911Y27852235D01*
X47879080Y28004295D01*
X48055705Y28180920D01*
X48207765Y28379089D01*
X48332658Y28595410D01*
X48428247Y28826183D01*
X48492897Y29067458D01*
X48525500Y29315107D01*
X48525500Y29564893D01*
X48524492Y29572546D01*
X48506502Y29709201D01*
X48492897Y29812542D01*
X48428247Y30053817D01*
X48332658Y30284590D01*
X48207765Y30500911D01*
X48055705Y30699080D01*
X48055700Y30699086D01*
X47879085Y30875701D01*
X47879078Y30875707D01*
X47680915Y31027762D01*
X47680914Y31027763D01*
X47680911Y31027765D01*
X47464590Y31152658D01*
X47464583Y31152661D01*
X47233821Y31248246D01*
X46992538Y31312898D01*
X46744894Y31345500D01*
X46744893Y31345500D01*
X46495107Y31345500D01*
X46495106Y31345500D01*
X46247461Y31312898D01*
X46006178Y31248246D01*
X45775416Y31152661D01*
X45775407Y31152657D01*
X45559084Y31027762D01*
X45360921Y30875707D01*
X45360914Y30875701D01*
X45184299Y30699086D01*
X45184293Y30699079D01*
X45032238Y30500916D01*
X44907343Y30284593D01*
X44907339Y30284584D01*
X44811754Y30053822D01*
X44747102Y29812539D01*
X44714500Y29564894D01*
X20820500Y29564894D01*
X20820500Y34009894D01*
X44714500Y34009894D01*
X44714500Y33760107D01*
X44747102Y33512462D01*
X44811754Y33271179D01*
X44907339Y33040417D01*
X44907342Y33040410D01*
X45032235Y32824089D01*
X45032237Y32824086D01*
X45032238Y32824085D01*
X45184293Y32625922D01*
X45184299Y32625915D01*
X45360914Y32449300D01*
X45360920Y32449295D01*
X45559089Y32297235D01*
X45775410Y32172342D01*
X46006183Y32076753D01*
X46247458Y32012103D01*
X46433194Y31987651D01*
X46495106Y31979500D01*
X46495107Y31979500D01*
X46744894Y31979500D01*
X46794422Y31986021D01*
X46992542Y32012103D01*
X47233817Y32076753D01*
X47464590Y32172342D01*
X47680911Y32297235D01*
X47879080Y32449295D01*
X48055705Y32625920D01*
X48207765Y32824089D01*
X48332658Y33040410D01*
X48428247Y33271183D01*
X48492897Y33512458D01*
X48525500Y33760107D01*
X48525500Y34009893D01*
X48492897Y34257542D01*
X48428247Y34498817D01*
X48332658Y34729590D01*
X48207765Y34945911D01*
X48085711Y35104975D01*
X48055706Y35144079D01*
X48055700Y35144086D01*
X47879085Y35320701D01*
X47879078Y35320707D01*
X47680915Y35472762D01*
X47680914Y35472763D01*
X47680911Y35472765D01*
X47464590Y35597658D01*
X47464583Y35597661D01*
X47233821Y35693246D01*
X46992538Y35757898D01*
X46744894Y35790500D01*
X46744893Y35790500D01*
X46495107Y35790500D01*
X46495106Y35790500D01*
X46247461Y35757898D01*
X46006178Y35693246D01*
X45775416Y35597661D01*
X45775407Y35597657D01*
X45559084Y35472762D01*
X45360921Y35320707D01*
X45360914Y35320701D01*
X45184299Y35144086D01*
X45184293Y35144079D01*
X45032238Y34945916D01*
X44907343Y34729593D01*
X44907339Y34729584D01*
X44811754Y34498822D01*
X44747102Y34257539D01*
X44714500Y34009894D01*
X20820500Y34009894D01*
X20820500Y38580000D01*
X44739543Y38580000D01*
X45737414Y38580000D01*
X45705600Y38420061D01*
X45705600Y38239939D01*
X45737414Y38080000D01*
X44739544Y38080000D01*
X44755458Y37959124D01*
X44819821Y37718919D01*
X44819825Y37718906D01*
X44914976Y37489190D01*
X44914983Y37489176D01*
X45039314Y37273829D01*
X45039324Y37273814D01*
X45190698Y37076539D01*
X45190704Y37076532D01*
X45366531Y36900705D01*
X45366538Y36900699D01*
X45563813Y36749325D01*
X45563828Y36749315D01*
X45779175Y36624984D01*
X45779189Y36624977D01*
X46008905Y36529826D01*
X46008921Y36529821D01*
X46249117Y36465461D01*
X46249128Y36465459D01*
X46370000Y36449545D01*
X46370000Y37447414D01*
X46529939Y37415600D01*
X46710061Y37415600D01*
X46870000Y37447414D01*
X46870000Y36449546D01*
X46990871Y36465459D01*
X46990882Y36465461D01*
X47231078Y36529821D01*
X47231094Y36529826D01*
X47460810Y36624977D01*
X47460824Y36624984D01*
X47676171Y36749315D01*
X47676186Y36749325D01*
X47873461Y36900699D01*
X47873468Y36900705D01*
X48049295Y37076532D01*
X48049301Y37076539D01*
X48200675Y37273814D01*
X48200685Y37273829D01*
X48325016Y37489176D01*
X48325023Y37489190D01*
X48420174Y37718906D01*
X48420178Y37718919D01*
X48484541Y37959124D01*
X48500456Y38080000D01*
X47502586Y38080000D01*
X47534400Y38239939D01*
X47534400Y38420061D01*
X47502586Y38580000D01*
X48500456Y38580000D01*
X48484541Y38700877D01*
X48420178Y38941082D01*
X48420174Y38941095D01*
X48325023Y39170811D01*
X48325016Y39170825D01*
X48200685Y39386172D01*
X48200675Y39386187D01*
X48049301Y39583462D01*
X48049295Y39583469D01*
X47873468Y39759296D01*
X47873461Y39759302D01*
X47676186Y39910676D01*
X47676171Y39910686D01*
X47460824Y40035017D01*
X47460810Y40035024D01*
X47231094Y40130175D01*
X47231081Y40130179D01*
X46990876Y40194542D01*
X46870000Y40210457D01*
X46870000Y39212587D01*
X46710061Y39244400D01*
X46529939Y39244400D01*
X46370000Y39212587D01*
X46370000Y40210457D01*
X46249123Y40194542D01*
X46008918Y40130179D01*
X46008905Y40130175D01*
X45779189Y40035024D01*
X45779175Y40035017D01*
X45563828Y39910686D01*
X45563813Y39910676D01*
X45366538Y39759302D01*
X45366531Y39759296D01*
X45190704Y39583469D01*
X45190698Y39583462D01*
X45039324Y39386187D01*
X45039314Y39386172D01*
X44914983Y39170825D01*
X44914976Y39170811D01*
X44819825Y38941095D01*
X44819821Y38941082D01*
X44755458Y38700877D01*
X44739543Y38580000D01*
X20820500Y38580000D01*
X20820500Y38800892D01*
X20786392Y38928186D01*
X20720500Y39042314D01*
X20627314Y39135500D01*
X20566154Y39170811D01*
X20513187Y39201392D01*
X20449539Y39218446D01*
X20385892Y39235500D01*
X20385891Y39235500D01*
X6339500Y39235500D01*
X6272461Y39255185D01*
X6226706Y39307989D01*
X6215500Y39359500D01*
X6215500Y48381289D01*
X78794500Y48381289D01*
X78794500Y48138712D01*
X78826161Y47898215D01*
X78888947Y47663896D01*
X78974025Y47458500D01*
X78981776Y47439788D01*
X79103064Y47229711D01*
X79103066Y47229708D01*
X79103067Y47229707D01*
X79250733Y47037264D01*
X79250739Y47037257D01*
X79422256Y46865740D01*
X79422262Y46865735D01*
X79614711Y46718064D01*
X79824788Y46596776D01*
X80048900Y46503946D01*
X80283211Y46441162D01*
X80463586Y46417416D01*
X80523711Y46409500D01*
X80523712Y46409500D01*
X80766289Y46409500D01*
X80814388Y46415833D01*
X81006789Y46441162D01*
X81241100Y46503946D01*
X81465212Y46596776D01*
X81675289Y46718064D01*
X81867738Y46865735D01*
X82039265Y47037262D01*
X82186936Y47229711D01*
X82308224Y47439788D01*
X82401054Y47663900D01*
X82463838Y47898211D01*
X82495500Y48138712D01*
X82495500Y48381288D01*
X82492967Y48400525D01*
X82463838Y48621786D01*
X82463838Y48621789D01*
X82401054Y48856100D01*
X82308224Y49080212D01*
X82186936Y49290289D01*
X82039265Y49482738D01*
X82039260Y49482744D01*
X81867743Y49654261D01*
X81867736Y49654267D01*
X81675293Y49801933D01*
X81675292Y49801934D01*
X81675289Y49801936D01*
X81503661Y49901026D01*
X81465214Y49923223D01*
X81465205Y49923227D01*
X81241104Y50016053D01*
X81084243Y50058084D01*
X81006789Y50078838D01*
X81006788Y50078839D01*
X81006785Y50078839D01*
X80766289Y50110500D01*
X80766288Y50110500D01*
X80523712Y50110500D01*
X80523711Y50110500D01*
X80283214Y50078839D01*
X80048895Y50016053D01*
X79824794Y49923227D01*
X79824785Y49923223D01*
X79614706Y49801933D01*
X79422263Y49654267D01*
X79422256Y49654261D01*
X79250739Y49482744D01*
X79250733Y49482737D01*
X79103067Y49290294D01*
X78981777Y49080215D01*
X78981773Y49080206D01*
X78888947Y48856105D01*
X78826161Y48621786D01*
X78794500Y48381289D01*
X6215500Y48381289D01*
X6215500Y51556289D01*
X12754500Y51556289D01*
X12754500Y51313712D01*
X12782267Y51102793D01*
X12786162Y51073211D01*
X12804687Y51004076D01*
X12848947Y50838896D01*
X12926138Y50652542D01*
X12941776Y50614788D01*
X13063064Y50404711D01*
X13063066Y50404708D01*
X13063067Y50404707D01*
X13210733Y50212264D01*
X13210739Y50212257D01*
X13382256Y50040740D01*
X13382262Y50040735D01*
X13574711Y49893064D01*
X13784788Y49771776D01*
X14008900Y49678946D01*
X14243211Y49616162D01*
X14423586Y49592416D01*
X14483711Y49584500D01*
X14483712Y49584500D01*
X14726289Y49584500D01*
X14774388Y49590833D01*
X14966789Y49616162D01*
X15201100Y49678946D01*
X15425212Y49771776D01*
X15635289Y49893064D01*
X15827738Y50040735D01*
X15828623Y50041620D01*
X15841047Y50054043D01*
X15999260Y50212257D01*
X15999265Y50212262D01*
X16146936Y50404711D01*
X16268224Y50614788D01*
X16361054Y50838900D01*
X16423838Y51073211D01*
X16455500Y51313712D01*
X16455500Y51556288D01*
X16423838Y51796789D01*
X16361054Y52031100D01*
X16351083Y52055171D01*
X16297921Y52183517D01*
X16268224Y52255212D01*
X16146936Y52465289D01*
X15999265Y52657738D01*
X15999260Y52657744D01*
X15827743Y52829261D01*
X15827736Y52829267D01*
X15635293Y52976933D01*
X15635292Y52976934D01*
X15635289Y52976936D01*
X15425212Y53098224D01*
X15425205Y53098227D01*
X15201104Y53191053D01*
X14966785Y53253839D01*
X14726289Y53285500D01*
X14726288Y53285500D01*
X14483712Y53285500D01*
X14483711Y53285500D01*
X14243214Y53253839D01*
X14008895Y53191053D01*
X13784794Y53098227D01*
X13784785Y53098223D01*
X13574706Y52976933D01*
X13382263Y52829267D01*
X13382256Y52829261D01*
X13210739Y52657744D01*
X13210733Y52657737D01*
X13063067Y52465294D01*
X12941777Y52255215D01*
X12941773Y52255206D01*
X12848947Y52031105D01*
X12786161Y51796786D01*
X12754500Y51556289D01*
X6215500Y51556289D01*
X6215500Y53985500D01*
X6235185Y54052539D01*
X6287989Y54098294D01*
X6339500Y54109500D01*
X18951360Y54109500D01*
X19018399Y54089815D01*
G37*
%TD.AperFunction*%
%TA.AperFunction,Conductor*%
G36*
X72559075Y1712007D02*
G01*
X72624901Y1597993D01*
X72717993Y1504901D01*
X72832007Y1439075D01*
X72895590Y1422038D01*
X72263282Y789731D01*
X72263282Y789730D01*
X72317449Y750376D01*
X72347655Y734985D01*
X72398451Y687011D01*
X72415246Y619190D01*
X72392709Y553055D01*
X72337994Y509603D01*
X72291360Y500500D01*
X71237365Y500500D01*
X71170326Y520185D01*
X71124571Y572989D01*
X71114627Y642147D01*
X71143652Y705703D01*
X71181071Y734985D01*
X71197007Y743105D01*
X71197006Y743105D01*
X71197009Y743106D01*
X71370004Y868794D01*
X71521206Y1019996D01*
X71646894Y1192991D01*
X71649283Y1197681D01*
X71697254Y1248478D01*
X71765074Y1265276D01*
X71831210Y1242742D01*
X71867196Y1201217D01*
X71867829Y1201604D01*
X71870167Y1197789D01*
X71870251Y1197692D01*
X71870371Y1197455D01*
X71870373Y1197453D01*
X71909728Y1143284D01*
X72542037Y1775592D01*
X72559075Y1712007D01*
G37*
%TD.AperFunction*%
%TA.AperFunction,Conductor*%
G36*
X75099075Y1712007D02*
G01*
X75164901Y1597993D01*
X75257993Y1504901D01*
X75372007Y1439075D01*
X75435590Y1422038D01*
X74803282Y789731D01*
X74803282Y789729D01*
X74818930Y778360D01*
X74861596Y723031D01*
X74867575Y653417D01*
X74834970Y591622D01*
X74774131Y557265D01*
X74756467Y554481D01*
X74347498Y519985D01*
X74340554Y519595D01*
X73767967Y503530D01*
X73700402Y521326D01*
X73653184Y572826D01*
X73641304Y641679D01*
X73668536Y706024D01*
X73708197Y737967D01*
X73732552Y750377D01*
X73786716Y789730D01*
X73786717Y789730D01*
X73154408Y1422038D01*
X73217993Y1439075D01*
X73332007Y1504901D01*
X73425099Y1597993D01*
X73490925Y1712007D01*
X73507962Y1775592D01*
X74140270Y1143283D01*
X74140270Y1143284D01*
X74179622Y1197446D01*
X74184514Y1207046D01*
X74232488Y1257843D01*
X74300308Y1274639D01*
X74366444Y1252103D01*
X74405486Y1207046D01*
X74410375Y1197450D01*
X74449728Y1143284D01*
X75082037Y1775592D01*
X75099075Y1712007D01*
G37*
%TD.AperFunction*%
%TA.AperFunction,Conductor*%
G36*
X72559075Y4252007D02*
G01*
X72624901Y4137993D01*
X72717993Y4044901D01*
X72832007Y3979075D01*
X72895591Y3962038D01*
X72294971Y3361419D01*
X72373711Y3244105D01*
X72374920Y3240271D01*
X72377844Y3237509D01*
X72385343Y3207222D01*
X72394727Y3177471D01*
X72393671Y3173592D01*
X72394638Y3169688D01*
X72384573Y3140156D01*
X72376383Y3110053D01*
X72373397Y3107360D01*
X72372100Y3103553D01*
X72327051Y3064517D01*
X72317440Y3059620D01*
X72263282Y3020273D01*
X72263282Y3020272D01*
X72895591Y2387963D01*
X72832007Y2370925D01*
X72717993Y2305099D01*
X72624901Y2212007D01*
X72559075Y2097993D01*
X72542037Y2034409D01*
X71909728Y2666718D01*
X71909727Y2666718D01*
X71870380Y2612560D01*
X71870374Y2612551D01*
X71870246Y2612298D01*
X71870172Y2612220D01*
X71867838Y2608410D01*
X71867036Y2608901D01*
X71822264Y2561510D01*
X71754441Y2544725D01*
X71688309Y2567272D01*
X71649283Y2612320D01*
X71646894Y2617009D01*
X71521206Y2790004D01*
X71370004Y2941206D01*
X71222340Y3048490D01*
X71197005Y3066897D01*
X71193132Y3069270D01*
X71146254Y3121080D01*
X71134829Y3190009D01*
X71162483Y3254173D01*
X71193132Y3280730D01*
X71197005Y3283104D01*
X71197004Y3283104D01*
X71197009Y3283106D01*
X71370004Y3408794D01*
X71521206Y3559996D01*
X71646894Y3732991D01*
X71649283Y3737681D01*
X71697254Y3788478D01*
X71765074Y3805276D01*
X71831210Y3782742D01*
X71867196Y3741217D01*
X71867829Y3741604D01*
X71870167Y3737789D01*
X71870251Y3737692D01*
X71870371Y3737455D01*
X71870373Y3737453D01*
X71909728Y3683284D01*
X72542037Y4315592D01*
X72559075Y4252007D01*
G37*
%TD.AperFunction*%
%TA.AperFunction,Conductor*%
G36*
X75099075Y4252007D02*
G01*
X75164901Y4137993D01*
X75257993Y4044901D01*
X75372007Y3979075D01*
X75435590Y3962038D01*
X74803282Y3329731D01*
X74803282Y3329730D01*
X74857452Y3290374D01*
X74867048Y3285484D01*
X74917844Y3237509D01*
X74934638Y3169688D01*
X74912100Y3103553D01*
X74867051Y3064517D01*
X74857440Y3059620D01*
X74803282Y3020273D01*
X74803282Y3020272D01*
X75435591Y2387963D01*
X75372007Y2370925D01*
X75257993Y2305099D01*
X75164901Y2212007D01*
X75099075Y2097993D01*
X75082037Y2034409D01*
X74449728Y2666718D01*
X74449727Y2666718D01*
X74410380Y2612560D01*
X74405483Y2602949D01*
X74357506Y2552155D01*
X74289684Y2535362D01*
X74223550Y2557902D01*
X74184516Y2602952D01*
X74179626Y2612548D01*
X74140270Y2666718D01*
X74140269Y2666718D01*
X73507962Y2034410D01*
X73490925Y2097993D01*
X73425099Y2212007D01*
X73332007Y2305099D01*
X73217993Y2370925D01*
X73154409Y2387963D01*
X73786716Y3020272D01*
X73732550Y3059625D01*
X73722954Y3064514D01*
X73672157Y3112488D01*
X73655361Y3180308D01*
X73676288Y3244105D01*
X73755027Y3361419D01*
X73154408Y3962038D01*
X73217993Y3979075D01*
X73332007Y4044901D01*
X73425099Y4137993D01*
X73490925Y4252007D01*
X73507962Y4315592D01*
X74140270Y3683283D01*
X74140270Y3683284D01*
X74179622Y3737446D01*
X74184514Y3747046D01*
X74232488Y3797843D01*
X74300308Y3814639D01*
X74366444Y3792103D01*
X74405486Y3747046D01*
X74410375Y3737450D01*
X74449728Y3683284D01*
X75082037Y4315592D01*
X75099075Y4252007D01*
G37*
%TD.AperFunction*%
%TA.AperFunction,Conductor*%
G36*
X20800270Y3683283D02*
G01*
X20800270Y3683284D01*
X20839621Y3737444D01*
X20839738Y3737673D01*
X20839808Y3737748D01*
X20842168Y3741598D01*
X20842976Y3741103D01*
X20887707Y3788474D01*
X20955526Y3805277D01*
X21021663Y3782746D01*
X21060712Y3737689D01*
X21063105Y3732992D01*
X21067636Y3726756D01*
X21188794Y3559996D01*
X21339996Y3408794D01*
X21504067Y3289590D01*
X21512991Y3283106D01*
X21516873Y3280727D01*
X21563748Y3228914D01*
X21575169Y3159984D01*
X21547512Y3095822D01*
X21516873Y3069273D01*
X21512991Y3066895D01*
X21339997Y2941207D01*
X21228211Y2829421D01*
X21166888Y2795937D01*
X21097196Y2800921D01*
X21041263Y2842793D01*
X21024348Y2873770D01*
X20978354Y2997087D01*
X20978350Y2997094D01*
X20892190Y3112188D01*
X20892187Y3112191D01*
X20777093Y3198351D01*
X20777086Y3198355D01*
X20642380Y3248597D01*
X20642373Y3248599D01*
X20559555Y3257503D01*
X20559884Y3260569D01*
X20542875Y3259670D01*
X20483803Y3292644D01*
X19814408Y3962038D01*
X19877993Y3979075D01*
X19992007Y4044901D01*
X20085099Y4137993D01*
X20150925Y4252007D01*
X20167962Y4315591D01*
X20800270Y3683283D01*
G37*
%TD.AperFunction*%
%TA.AperFunction,Conductor*%
G36*
X20800270Y51943283D02*
G01*
X20800270Y51943284D01*
X20839621Y51997444D01*
X20839738Y51997673D01*
X20839808Y51997748D01*
X20842168Y52001598D01*
X20842976Y52001103D01*
X20887707Y52048474D01*
X20955526Y52065277D01*
X21021663Y52042746D01*
X21060712Y51997689D01*
X21063103Y51992995D01*
X21063106Y51992991D01*
X21188794Y51819996D01*
X21339996Y51668794D01*
X21494846Y51556289D01*
X21512991Y51543106D01*
X21516873Y51540727D01*
X21563748Y51488914D01*
X21575169Y51419984D01*
X21547512Y51355822D01*
X21516873Y51329273D01*
X21512991Y51326895D01*
X21339997Y51201207D01*
X21228211Y51089421D01*
X21166888Y51055937D01*
X21097196Y51060921D01*
X21041263Y51102793D01*
X21024348Y51133770D01*
X20978354Y51257087D01*
X20978350Y51257094D01*
X20892190Y51372188D01*
X20892187Y51372191D01*
X20777093Y51458351D01*
X20777086Y51458355D01*
X20642380Y51508597D01*
X20642373Y51508599D01*
X20559555Y51517503D01*
X20559884Y51520569D01*
X20542875Y51519670D01*
X20483803Y51552644D01*
X19814408Y52222038D01*
X19877993Y52239075D01*
X19992007Y52304901D01*
X20085099Y52397993D01*
X20150925Y52512007D01*
X20167962Y52575591D01*
X20800270Y51943283D01*
G37*
%TD.AperFunction*%
%TA.AperFunction,Conductor*%
G36*
X21539674Y54089815D02*
G01*
X21585429Y54037011D01*
X21595373Y53967853D01*
X21566348Y53904297D01*
X21528929Y53875015D01*
X21512992Y53866896D01*
X21339993Y53741204D01*
X21188796Y53590007D01*
X21063103Y53417006D01*
X21060709Y53412307D01*
X21012731Y53361515D01*
X20944908Y53344725D01*
X20878775Y53367268D01*
X20842804Y53408785D01*
X20842171Y53408396D01*
X20839826Y53412222D01*
X20839743Y53412318D01*
X20839624Y53412551D01*
X20800270Y53466718D01*
X20800269Y53466718D01*
X20167962Y52834410D01*
X20150925Y52897993D01*
X20085099Y53012007D01*
X19992007Y53105099D01*
X19877993Y53170925D01*
X19814409Y53187963D01*
X20446716Y53820272D01*
X20392550Y53859625D01*
X20362345Y53875015D01*
X20311549Y53922989D01*
X20294754Y53990810D01*
X20317291Y54056945D01*
X20372006Y54100397D01*
X20418640Y54109500D01*
X21472635Y54109500D01*
X21539674Y54089815D01*
G37*
%TD.AperFunction*%
%TD*%
M02*
