%TF.GenerationSoftware,KiCad,Pcbnew,9.0.4*%
%TF.CreationDate,2026-02-21T19:48:22-06:00*%
%TF.ProjectId,beaglebone_can_cape,62656167-6c65-4626-9f6e-655f63616e5f,rev?*%
%TF.SameCoordinates,PX5f5e100PY5f5e100*%
%TF.FileFunction,Legend,Top*%
%TF.FilePolarity,Positive*%
%FSLAX46Y46*%
G04 Gerber Fmt 4.6, Leading zero omitted, Abs format (unit mm)*
G04 Created by KiCad (PCBNEW 9.0.4) date 2026-02-21 19:48:22*
%MOMM*%
%LPD*%
G01*
G04 APERTURE LIST*
%ADD10C,0.153000*%
%ADD11C,0.120000*%
%ADD12C,0.254000*%
%ADD13C,0.100000*%
%ADD14C,0.200000*%
G04 APERTURE END LIST*
D10*
X81224424Y38650181D02*
X81272044Y38602562D01*
X81272044Y38602562D02*
X81319663Y38459705D01*
X81319663Y38459705D02*
X81319663Y38364467D01*
X81319663Y38364467D02*
X81272044Y38221610D01*
X81272044Y38221610D02*
X81176805Y38126372D01*
X81176805Y38126372D02*
X81081567Y38078753D01*
X81081567Y38078753D02*
X80891091Y38031134D01*
X80891091Y38031134D02*
X80748234Y38031134D01*
X80748234Y38031134D02*
X80557758Y38078753D01*
X80557758Y38078753D02*
X80462520Y38126372D01*
X80462520Y38126372D02*
X80367282Y38221610D01*
X80367282Y38221610D02*
X80319663Y38364467D01*
X80319663Y38364467D02*
X80319663Y38459705D01*
X80319663Y38459705D02*
X80367282Y38602562D01*
X80367282Y38602562D02*
X80414901Y38650181D01*
X81033948Y39031134D02*
X81033948Y39507324D01*
X81319663Y38935896D02*
X80319663Y39269229D01*
X80319663Y39269229D02*
X81319663Y39602562D01*
X81319663Y39935896D02*
X80319663Y39935896D01*
X80319663Y39935896D02*
X81319663Y40507324D01*
X81319663Y40507324D02*
X80319663Y40507324D01*
X81319663Y41459705D02*
X81319663Y40983515D01*
X81319663Y40983515D02*
X80319663Y40983515D01*
X83804663Y33988753D02*
X82804663Y33988753D01*
X82804663Y33988753D02*
X82804663Y34226848D01*
X82804663Y34226848D02*
X82852282Y34369705D01*
X82852282Y34369705D02*
X82947520Y34464943D01*
X82947520Y34464943D02*
X83042758Y34512562D01*
X83042758Y34512562D02*
X83233234Y34560181D01*
X83233234Y34560181D02*
X83376091Y34560181D01*
X83376091Y34560181D02*
X83566567Y34512562D01*
X83566567Y34512562D02*
X83661805Y34464943D01*
X83661805Y34464943D02*
X83757044Y34369705D01*
X83757044Y34369705D02*
X83804663Y34226848D01*
X83804663Y34226848D02*
X83804663Y33988753D01*
X83709424Y35560181D02*
X83757044Y35512562D01*
X83757044Y35512562D02*
X83804663Y35369705D01*
X83804663Y35369705D02*
X83804663Y35274467D01*
X83804663Y35274467D02*
X83757044Y35131610D01*
X83757044Y35131610D02*
X83661805Y35036372D01*
X83661805Y35036372D02*
X83566567Y34988753D01*
X83566567Y34988753D02*
X83376091Y34941134D01*
X83376091Y34941134D02*
X83233234Y34941134D01*
X83233234Y34941134D02*
X83042758Y34988753D01*
X83042758Y34988753D02*
X82947520Y35036372D01*
X82947520Y35036372D02*
X82852282Y35131610D01*
X82852282Y35131610D02*
X82804663Y35274467D01*
X82804663Y35274467D02*
X82804663Y35369705D01*
X82804663Y35369705D02*
X82852282Y35512562D01*
X82852282Y35512562D02*
X82899901Y35560181D01*
X83518948Y35941134D02*
X83518948Y36417324D01*
X83804663Y35845896D02*
X82804663Y36179229D01*
X82804663Y36179229D02*
X83804663Y36512562D01*
X83804663Y36845896D02*
X82804663Y36845896D01*
X82804663Y36845896D02*
X83804663Y37417324D01*
X83804663Y37417324D02*
X82804663Y37417324D01*
X83804663Y38417324D02*
X83804663Y37845896D01*
X83804663Y38131610D02*
X82804663Y38131610D01*
X82804663Y38131610D02*
X82947520Y38036372D01*
X82947520Y38036372D02*
X83042758Y37941134D01*
X83042758Y37941134D02*
X83090377Y37845896D01*
X72959663Y34013755D02*
X71959663Y34013755D01*
X71959663Y34013755D02*
X71959663Y34251850D01*
X71959663Y34251850D02*
X72007282Y34394707D01*
X72007282Y34394707D02*
X72102520Y34489945D01*
X72102520Y34489945D02*
X72197758Y34537564D01*
X72197758Y34537564D02*
X72388234Y34585183D01*
X72388234Y34585183D02*
X72531091Y34585183D01*
X72531091Y34585183D02*
X72721567Y34537564D01*
X72721567Y34537564D02*
X72816805Y34489945D01*
X72816805Y34489945D02*
X72912044Y34394707D01*
X72912044Y34394707D02*
X72959663Y34251850D01*
X72959663Y34251850D02*
X72959663Y34013755D01*
X72864424Y35585183D02*
X72912044Y35537564D01*
X72912044Y35537564D02*
X72959663Y35394707D01*
X72959663Y35394707D02*
X72959663Y35299469D01*
X72959663Y35299469D02*
X72912044Y35156612D01*
X72912044Y35156612D02*
X72816805Y35061374D01*
X72816805Y35061374D02*
X72721567Y35013755D01*
X72721567Y35013755D02*
X72531091Y34966136D01*
X72531091Y34966136D02*
X72388234Y34966136D01*
X72388234Y34966136D02*
X72197758Y35013755D01*
X72197758Y35013755D02*
X72102520Y35061374D01*
X72102520Y35061374D02*
X72007282Y35156612D01*
X72007282Y35156612D02*
X71959663Y35299469D01*
X71959663Y35299469D02*
X71959663Y35394707D01*
X71959663Y35394707D02*
X72007282Y35537564D01*
X72007282Y35537564D02*
X72054901Y35585183D01*
X72673948Y35966136D02*
X72673948Y36442326D01*
X72959663Y35870898D02*
X71959663Y36204231D01*
X71959663Y36204231D02*
X72959663Y36537564D01*
X72959663Y36870898D02*
X71959663Y36870898D01*
X71959663Y36870898D02*
X72959663Y37442326D01*
X72959663Y37442326D02*
X71959663Y37442326D01*
X71959663Y38108993D02*
X71959663Y38204231D01*
X71959663Y38204231D02*
X72007282Y38299469D01*
X72007282Y38299469D02*
X72054901Y38347088D01*
X72054901Y38347088D02*
X72150139Y38394707D01*
X72150139Y38394707D02*
X72340615Y38442326D01*
X72340615Y38442326D02*
X72578710Y38442326D01*
X72578710Y38442326D02*
X72769186Y38394707D01*
X72769186Y38394707D02*
X72864424Y38347088D01*
X72864424Y38347088D02*
X72912044Y38299469D01*
X72912044Y38299469D02*
X72959663Y38204231D01*
X72959663Y38204231D02*
X72959663Y38108993D01*
X72959663Y38108993D02*
X72912044Y38013755D01*
X72912044Y38013755D02*
X72864424Y37966136D01*
X72864424Y37966136D02*
X72769186Y37918517D01*
X72769186Y37918517D02*
X72578710Y37870898D01*
X72578710Y37870898D02*
X72340615Y37870898D01*
X72340615Y37870898D02*
X72150139Y37918517D01*
X72150139Y37918517D02*
X72054901Y37966136D01*
X72054901Y37966136D02*
X72007282Y38013755D01*
X72007282Y38013755D02*
X71959663Y38108993D01*
X67604424Y38825183D02*
X67652044Y38777564D01*
X67652044Y38777564D02*
X67699663Y38634707D01*
X67699663Y38634707D02*
X67699663Y38539469D01*
X67699663Y38539469D02*
X67652044Y38396612D01*
X67652044Y38396612D02*
X67556805Y38301374D01*
X67556805Y38301374D02*
X67461567Y38253755D01*
X67461567Y38253755D02*
X67271091Y38206136D01*
X67271091Y38206136D02*
X67128234Y38206136D01*
X67128234Y38206136D02*
X66937758Y38253755D01*
X66937758Y38253755D02*
X66842520Y38301374D01*
X66842520Y38301374D02*
X66747282Y38396612D01*
X66747282Y38396612D02*
X66699663Y38539469D01*
X66699663Y38539469D02*
X66699663Y38634707D01*
X66699663Y38634707D02*
X66747282Y38777564D01*
X66747282Y38777564D02*
X66794901Y38825183D01*
X67413948Y39206136D02*
X67413948Y39682326D01*
X67699663Y39110898D02*
X66699663Y39444231D01*
X66699663Y39444231D02*
X67699663Y39777564D01*
X67699663Y40110898D02*
X66699663Y40110898D01*
X66699663Y40110898D02*
X67699663Y40682326D01*
X67699663Y40682326D02*
X66699663Y40682326D01*
X67699663Y41158517D02*
X66699663Y41158517D01*
X67175853Y41158517D02*
X67175853Y41729945D01*
X67699663Y41729945D02*
X66699663Y41729945D01*
X78724424Y38650181D02*
X78772044Y38602562D01*
X78772044Y38602562D02*
X78819663Y38459705D01*
X78819663Y38459705D02*
X78819663Y38364467D01*
X78819663Y38364467D02*
X78772044Y38221610D01*
X78772044Y38221610D02*
X78676805Y38126372D01*
X78676805Y38126372D02*
X78581567Y38078753D01*
X78581567Y38078753D02*
X78391091Y38031134D01*
X78391091Y38031134D02*
X78248234Y38031134D01*
X78248234Y38031134D02*
X78057758Y38078753D01*
X78057758Y38078753D02*
X77962520Y38126372D01*
X77962520Y38126372D02*
X77867282Y38221610D01*
X77867282Y38221610D02*
X77819663Y38364467D01*
X77819663Y38364467D02*
X77819663Y38459705D01*
X77819663Y38459705D02*
X77867282Y38602562D01*
X77867282Y38602562D02*
X77914901Y38650181D01*
X78533948Y39031134D02*
X78533948Y39507324D01*
X78819663Y38935896D02*
X77819663Y39269229D01*
X77819663Y39269229D02*
X78819663Y39602562D01*
X78819663Y39935896D02*
X77819663Y39935896D01*
X77819663Y39935896D02*
X78819663Y40507324D01*
X78819663Y40507324D02*
X77819663Y40507324D01*
X78819663Y40983515D02*
X77819663Y40983515D01*
X78295853Y40983515D02*
X78295853Y41554943D01*
X78819663Y41554943D02*
X77819663Y41554943D01*
X70354424Y38825183D02*
X70402044Y38777564D01*
X70402044Y38777564D02*
X70449663Y38634707D01*
X70449663Y38634707D02*
X70449663Y38539469D01*
X70449663Y38539469D02*
X70402044Y38396612D01*
X70402044Y38396612D02*
X70306805Y38301374D01*
X70306805Y38301374D02*
X70211567Y38253755D01*
X70211567Y38253755D02*
X70021091Y38206136D01*
X70021091Y38206136D02*
X69878234Y38206136D01*
X69878234Y38206136D02*
X69687758Y38253755D01*
X69687758Y38253755D02*
X69592520Y38301374D01*
X69592520Y38301374D02*
X69497282Y38396612D01*
X69497282Y38396612D02*
X69449663Y38539469D01*
X69449663Y38539469D02*
X69449663Y38634707D01*
X69449663Y38634707D02*
X69497282Y38777564D01*
X69497282Y38777564D02*
X69544901Y38825183D01*
X70163948Y39206136D02*
X70163948Y39682326D01*
X70449663Y39110898D02*
X69449663Y39444231D01*
X69449663Y39444231D02*
X70449663Y39777564D01*
X70449663Y40110898D02*
X69449663Y40110898D01*
X69449663Y40110898D02*
X70449663Y40682326D01*
X70449663Y40682326D02*
X69449663Y40682326D01*
X70449663Y41634707D02*
X70449663Y41158517D01*
X70449663Y41158517D02*
X69449663Y41158517D01*
X18946905Y47365337D02*
X18946905Y48365337D01*
X18946905Y48365337D02*
X19327857Y48365337D01*
X19327857Y48365337D02*
X19423095Y48317718D01*
X19423095Y48317718D02*
X19470714Y48270099D01*
X19470714Y48270099D02*
X19518333Y48174861D01*
X19518333Y48174861D02*
X19518333Y48032004D01*
X19518333Y48032004D02*
X19470714Y47936766D01*
X19470714Y47936766D02*
X19423095Y47889147D01*
X19423095Y47889147D02*
X19327857Y47841528D01*
X19327857Y47841528D02*
X18946905Y47841528D01*
X20089762Y47936766D02*
X19994524Y47984385D01*
X19994524Y47984385D02*
X19946905Y48032004D01*
X19946905Y48032004D02*
X19899286Y48127242D01*
X19899286Y48127242D02*
X19899286Y48174861D01*
X19899286Y48174861D02*
X19946905Y48270099D01*
X19946905Y48270099D02*
X19994524Y48317718D01*
X19994524Y48317718D02*
X20089762Y48365337D01*
X20089762Y48365337D02*
X20280238Y48365337D01*
X20280238Y48365337D02*
X20375476Y48317718D01*
X20375476Y48317718D02*
X20423095Y48270099D01*
X20423095Y48270099D02*
X20470714Y48174861D01*
X20470714Y48174861D02*
X20470714Y48127242D01*
X20470714Y48127242D02*
X20423095Y48032004D01*
X20423095Y48032004D02*
X20375476Y47984385D01*
X20375476Y47984385D02*
X20280238Y47936766D01*
X20280238Y47936766D02*
X20089762Y47936766D01*
X20089762Y47936766D02*
X19994524Y47889147D01*
X19994524Y47889147D02*
X19946905Y47841528D01*
X19946905Y47841528D02*
X19899286Y47746290D01*
X19899286Y47746290D02*
X19899286Y47555814D01*
X19899286Y47555814D02*
X19946905Y47460576D01*
X19946905Y47460576D02*
X19994524Y47412956D01*
X19994524Y47412956D02*
X20089762Y47365337D01*
X20089762Y47365337D02*
X20280238Y47365337D01*
X20280238Y47365337D02*
X20375476Y47412956D01*
X20375476Y47412956D02*
X20423095Y47460576D01*
X20423095Y47460576D02*
X20470714Y47555814D01*
X20470714Y47555814D02*
X20470714Y47746290D01*
X20470714Y47746290D02*
X20423095Y47841528D01*
X20423095Y47841528D02*
X20375476Y47889147D01*
X20375476Y47889147D02*
X20280238Y47936766D01*
X19336905Y6545337D02*
X19336905Y7545337D01*
X19336905Y7545337D02*
X19717857Y7545337D01*
X19717857Y7545337D02*
X19813095Y7497718D01*
X19813095Y7497718D02*
X19860714Y7450099D01*
X19860714Y7450099D02*
X19908333Y7354861D01*
X19908333Y7354861D02*
X19908333Y7212004D01*
X19908333Y7212004D02*
X19860714Y7116766D01*
X19860714Y7116766D02*
X19813095Y7069147D01*
X19813095Y7069147D02*
X19717857Y7021528D01*
X19717857Y7021528D02*
X19336905Y7021528D01*
X20384524Y6545337D02*
X20575000Y6545337D01*
X20575000Y6545337D02*
X20670238Y6592956D01*
X20670238Y6592956D02*
X20717857Y6640576D01*
X20717857Y6640576D02*
X20813095Y6783433D01*
X20813095Y6783433D02*
X20860714Y6973909D01*
X20860714Y6973909D02*
X20860714Y7354861D01*
X20860714Y7354861D02*
X20813095Y7450099D01*
X20813095Y7450099D02*
X20765476Y7497718D01*
X20765476Y7497718D02*
X20670238Y7545337D01*
X20670238Y7545337D02*
X20479762Y7545337D01*
X20479762Y7545337D02*
X20384524Y7497718D01*
X20384524Y7497718D02*
X20336905Y7450099D01*
X20336905Y7450099D02*
X20289286Y7354861D01*
X20289286Y7354861D02*
X20289286Y7116766D01*
X20289286Y7116766D02*
X20336905Y7021528D01*
X20336905Y7021528D02*
X20384524Y6973909D01*
X20384524Y6973909D02*
X20479762Y6926290D01*
X20479762Y6926290D02*
X20670238Y6926290D01*
X20670238Y6926290D02*
X20765476Y6973909D01*
X20765476Y6973909D02*
X20813095Y7021528D01*
X20813095Y7021528D02*
X20860714Y7116766D01*
X82899663Y27916667D02*
X83613948Y27916667D01*
X83613948Y27916667D02*
X83756805Y27869048D01*
X83756805Y27869048D02*
X83852044Y27773810D01*
X83852044Y27773810D02*
X83899663Y27630953D01*
X83899663Y27630953D02*
X83899663Y27535715D01*
X83899663Y28392858D02*
X82899663Y28392858D01*
X82899663Y28392858D02*
X82899663Y28773810D01*
X82899663Y28773810D02*
X82947282Y28869048D01*
X82947282Y28869048D02*
X82994901Y28916667D01*
X82994901Y28916667D02*
X83090139Y28964286D01*
X83090139Y28964286D02*
X83232996Y28964286D01*
X83232996Y28964286D02*
X83328234Y28916667D01*
X83328234Y28916667D02*
X83375853Y28869048D01*
X83375853Y28869048D02*
X83423472Y28773810D01*
X83423472Y28773810D02*
X83423472Y28392858D01*
X82994901Y29345239D02*
X82947282Y29392858D01*
X82947282Y29392858D02*
X82899663Y29488096D01*
X82899663Y29488096D02*
X82899663Y29726191D01*
X82899663Y29726191D02*
X82947282Y29821429D01*
X82947282Y29821429D02*
X82994901Y29869048D01*
X82994901Y29869048D02*
X83090139Y29916667D01*
X83090139Y29916667D02*
X83185377Y29916667D01*
X83185377Y29916667D02*
X83328234Y29869048D01*
X83328234Y29869048D02*
X83899663Y29297620D01*
X83899663Y29297620D02*
X83899663Y29916667D01*
X28454663Y14533334D02*
X27978472Y14200001D01*
X28454663Y13961906D02*
X27454663Y13961906D01*
X27454663Y13961906D02*
X27454663Y14342858D01*
X27454663Y14342858D02*
X27502282Y14438096D01*
X27502282Y14438096D02*
X27549901Y14485715D01*
X27549901Y14485715D02*
X27645139Y14533334D01*
X27645139Y14533334D02*
X27787996Y14533334D01*
X27787996Y14533334D02*
X27883234Y14485715D01*
X27883234Y14485715D02*
X27930853Y14438096D01*
X27930853Y14438096D02*
X27978472Y14342858D01*
X27978472Y14342858D02*
X27978472Y13961906D01*
X27787996Y15390477D02*
X28454663Y15390477D01*
X27407044Y15152382D02*
X28121329Y14914287D01*
X28121329Y14914287D02*
X28121329Y15533334D01*
X37754663Y26896867D02*
X38468948Y26896867D01*
X38468948Y26896867D02*
X38611805Y26849248D01*
X38611805Y26849248D02*
X38707044Y26754010D01*
X38707044Y26754010D02*
X38754663Y26611153D01*
X38754663Y26611153D02*
X38754663Y26515915D01*
X37754663Y27277820D02*
X37754663Y27896867D01*
X37754663Y27896867D02*
X38135615Y27563534D01*
X38135615Y27563534D02*
X38135615Y27706391D01*
X38135615Y27706391D02*
X38183234Y27801629D01*
X38183234Y27801629D02*
X38230853Y27849248D01*
X38230853Y27849248D02*
X38326091Y27896867D01*
X38326091Y27896867D02*
X38564186Y27896867D01*
X38564186Y27896867D02*
X38659424Y27849248D01*
X38659424Y27849248D02*
X38707044Y27801629D01*
X38707044Y27801629D02*
X38754663Y27706391D01*
X38754663Y27706391D02*
X38754663Y27420677D01*
X38754663Y27420677D02*
X38707044Y27325439D01*
X38707044Y27325439D02*
X38659424Y27277820D01*
X58169195Y40847286D02*
X58169195Y41693953D01*
X58169195Y41693953D02*
X59439195Y41149667D01*
X59439195Y14328477D02*
X59439195Y13602762D01*
X59439195Y13965619D02*
X58169195Y13965619D01*
X58169195Y13965619D02*
X58350623Y13844667D01*
X58350623Y13844667D02*
X58471576Y13723715D01*
X58471576Y13723715D02*
X58532052Y13602762D01*
X58290147Y14812286D02*
X58229671Y14872762D01*
X58229671Y14872762D02*
X58169195Y14993715D01*
X58169195Y14993715D02*
X58169195Y15296096D01*
X58169195Y15296096D02*
X58229671Y15417048D01*
X58229671Y15417048D02*
X58290147Y15477524D01*
X58290147Y15477524D02*
X58411099Y15538001D01*
X58411099Y15538001D02*
X58532052Y15538001D01*
X58532052Y15538001D02*
X58713480Y15477524D01*
X58713480Y15477524D02*
X59439195Y14751810D01*
X59439195Y14751810D02*
X59439195Y15538001D01*
X42294195Y41512524D02*
X42294195Y41270619D01*
X42294195Y41270619D02*
X42354671Y41149667D01*
X42354671Y41149667D02*
X42415147Y41089191D01*
X42415147Y41089191D02*
X42596576Y40968238D01*
X42596576Y40968238D02*
X42838480Y40907762D01*
X42838480Y40907762D02*
X43322290Y40907762D01*
X43322290Y40907762D02*
X43443242Y40968238D01*
X43443242Y40968238D02*
X43503719Y41028715D01*
X43503719Y41028715D02*
X43564195Y41149667D01*
X43564195Y41149667D02*
X43564195Y41391572D01*
X43564195Y41391572D02*
X43503719Y41512524D01*
X43503719Y41512524D02*
X43443242Y41573000D01*
X43443242Y41573000D02*
X43322290Y41633477D01*
X43322290Y41633477D02*
X43019909Y41633477D01*
X43019909Y41633477D02*
X42898957Y41573000D01*
X42898957Y41573000D02*
X42838480Y41512524D01*
X42838480Y41512524D02*
X42778004Y41391572D01*
X42778004Y41391572D02*
X42778004Y41149667D01*
X42778004Y41149667D02*
X42838480Y41028715D01*
X42838480Y41028715D02*
X42898957Y40968238D01*
X42898957Y40968238D02*
X43019909Y40907762D01*
X43564195Y14963477D02*
X43564195Y14237762D01*
X43564195Y14600619D02*
X42294195Y14600619D01*
X42294195Y14600619D02*
X42475623Y14479667D01*
X42475623Y14479667D02*
X42596576Y14358715D01*
X42596576Y14358715D02*
X42657052Y14237762D01*
X37054663Y8761906D02*
X36054663Y8761906D01*
X36054663Y8761906D02*
X36054663Y9000001D01*
X36054663Y9000001D02*
X36102282Y9142858D01*
X36102282Y9142858D02*
X36197520Y9238096D01*
X36197520Y9238096D02*
X36292758Y9285715D01*
X36292758Y9285715D02*
X36483234Y9333334D01*
X36483234Y9333334D02*
X36626091Y9333334D01*
X36626091Y9333334D02*
X36816567Y9285715D01*
X36816567Y9285715D02*
X36911805Y9238096D01*
X36911805Y9238096D02*
X37007044Y9142858D01*
X37007044Y9142858D02*
X37054663Y9000001D01*
X37054663Y9000001D02*
X37054663Y8761906D01*
X37054663Y10285715D02*
X37054663Y9714287D01*
X37054663Y10000001D02*
X36054663Y10000001D01*
X36054663Y10000001D02*
X36197520Y9904763D01*
X36197520Y9904763D02*
X36292758Y9809525D01*
X36292758Y9809525D02*
X36340377Y9714287D01*
X19184663Y13616667D02*
X19898948Y13616667D01*
X19898948Y13616667D02*
X20041805Y13569048D01*
X20041805Y13569048D02*
X20137044Y13473810D01*
X20137044Y13473810D02*
X20184663Y13330953D01*
X20184663Y13330953D02*
X20184663Y13235715D01*
X20184663Y14092858D02*
X19184663Y14092858D01*
X19184663Y14092858D02*
X19184663Y14473810D01*
X19184663Y14473810D02*
X19232282Y14569048D01*
X19232282Y14569048D02*
X19279901Y14616667D01*
X19279901Y14616667D02*
X19375139Y14664286D01*
X19375139Y14664286D02*
X19517996Y14664286D01*
X19517996Y14664286D02*
X19613234Y14616667D01*
X19613234Y14616667D02*
X19660853Y14569048D01*
X19660853Y14569048D02*
X19708472Y14473810D01*
X19708472Y14473810D02*
X19708472Y14092858D01*
X19184663Y14997620D02*
X19184663Y15616667D01*
X19184663Y15616667D02*
X19565615Y15283334D01*
X19565615Y15283334D02*
X19565615Y15426191D01*
X19565615Y15426191D02*
X19613234Y15521429D01*
X19613234Y15521429D02*
X19660853Y15569048D01*
X19660853Y15569048D02*
X19756091Y15616667D01*
X19756091Y15616667D02*
X19994186Y15616667D01*
X19994186Y15616667D02*
X20089424Y15569048D01*
X20089424Y15569048D02*
X20137044Y15521429D01*
X20137044Y15521429D02*
X20184663Y15426191D01*
X20184663Y15426191D02*
X20184663Y15140477D01*
X20184663Y15140477D02*
X20137044Y15045239D01*
X20137044Y15045239D02*
X20089424Y14997620D01*
X64414663Y35841669D02*
X65128948Y35841669D01*
X65128948Y35841669D02*
X65271805Y35794050D01*
X65271805Y35794050D02*
X65367044Y35698812D01*
X65367044Y35698812D02*
X65414663Y35555955D01*
X65414663Y35555955D02*
X65414663Y35460717D01*
X65414663Y36841669D02*
X65414663Y36270241D01*
X65414663Y36555955D02*
X64414663Y36555955D01*
X64414663Y36555955D02*
X64557520Y36460717D01*
X64557520Y36460717D02*
X64652758Y36365479D01*
X64652758Y36365479D02*
X64700377Y36270241D01*
X32354663Y14568096D02*
X33164186Y14568096D01*
X33164186Y14568096D02*
X33259424Y14615715D01*
X33259424Y14615715D02*
X33307044Y14663334D01*
X33307044Y14663334D02*
X33354663Y14758572D01*
X33354663Y14758572D02*
X33354663Y14949048D01*
X33354663Y14949048D02*
X33307044Y15044286D01*
X33307044Y15044286D02*
X33259424Y15091905D01*
X33259424Y15091905D02*
X33164186Y15139524D01*
X33164186Y15139524D02*
X32354663Y15139524D01*
X32354663Y15520477D02*
X32354663Y16139524D01*
X32354663Y16139524D02*
X32735615Y15806191D01*
X32735615Y15806191D02*
X32735615Y15949048D01*
X32735615Y15949048D02*
X32783234Y16044286D01*
X32783234Y16044286D02*
X32830853Y16091905D01*
X32830853Y16091905D02*
X32926091Y16139524D01*
X32926091Y16139524D02*
X33164186Y16139524D01*
X33164186Y16139524D02*
X33259424Y16091905D01*
X33259424Y16091905D02*
X33307044Y16044286D01*
X33307044Y16044286D02*
X33354663Y15949048D01*
X33354663Y15949048D02*
X33354663Y15663334D01*
X33354663Y15663334D02*
X33307044Y15568096D01*
X33307044Y15568096D02*
X33259424Y15520477D01*
X73319663Y20663098D02*
X74129186Y20663098D01*
X74129186Y20663098D02*
X74224424Y20710717D01*
X74224424Y20710717D02*
X74272044Y20758336D01*
X74272044Y20758336D02*
X74319663Y20853574D01*
X74319663Y20853574D02*
X74319663Y21044050D01*
X74319663Y21044050D02*
X74272044Y21139288D01*
X74272044Y21139288D02*
X74224424Y21186907D01*
X74224424Y21186907D02*
X74129186Y21234526D01*
X74129186Y21234526D02*
X73319663Y21234526D01*
X74319663Y22234526D02*
X74319663Y21663098D01*
X74319663Y21948812D02*
X73319663Y21948812D01*
X73319663Y21948812D02*
X73462520Y21853574D01*
X73462520Y21853574D02*
X73557758Y21758336D01*
X73557758Y21758336D02*
X73605377Y21663098D01*
X65569663Y18258336D02*
X65569663Y18829764D01*
X66569663Y18544050D02*
X65569663Y18544050D01*
X66474424Y19734526D02*
X66522044Y19686907D01*
X66522044Y19686907D02*
X66569663Y19544050D01*
X66569663Y19544050D02*
X66569663Y19448812D01*
X66569663Y19448812D02*
X66522044Y19305955D01*
X66522044Y19305955D02*
X66426805Y19210717D01*
X66426805Y19210717D02*
X66331567Y19163098D01*
X66331567Y19163098D02*
X66141091Y19115479D01*
X66141091Y19115479D02*
X65998234Y19115479D01*
X65998234Y19115479D02*
X65807758Y19163098D01*
X65807758Y19163098D02*
X65712520Y19210717D01*
X65712520Y19210717D02*
X65617282Y19305955D01*
X65617282Y19305955D02*
X65569663Y19448812D01*
X65569663Y19448812D02*
X65569663Y19544050D01*
X65569663Y19544050D02*
X65617282Y19686907D01*
X65617282Y19686907D02*
X65664901Y19734526D01*
X66283948Y20115479D02*
X66283948Y20591669D01*
X66569663Y20020241D02*
X65569663Y20353574D01*
X65569663Y20353574D02*
X66569663Y20686907D01*
X66569663Y21020241D02*
X65569663Y21020241D01*
X65569663Y21020241D02*
X66569663Y21591669D01*
X66569663Y21591669D02*
X65569663Y21591669D01*
X65569663Y21972622D02*
X65569663Y22591669D01*
X65569663Y22591669D02*
X65950615Y22258336D01*
X65950615Y22258336D02*
X65950615Y22401193D01*
X65950615Y22401193D02*
X65998234Y22496431D01*
X65998234Y22496431D02*
X66045853Y22544050D01*
X66045853Y22544050D02*
X66141091Y22591669D01*
X66141091Y22591669D02*
X66379186Y22591669D01*
X66379186Y22591669D02*
X66474424Y22544050D01*
X66474424Y22544050D02*
X66522044Y22496431D01*
X66522044Y22496431D02*
X66569663Y22401193D01*
X66569663Y22401193D02*
X66569663Y22115479D01*
X66569663Y22115479D02*
X66522044Y22020241D01*
X66522044Y22020241D02*
X66474424Y21972622D01*
X65569663Y22925003D02*
X65569663Y23544050D01*
X65569663Y23544050D02*
X65950615Y23210717D01*
X65950615Y23210717D02*
X65950615Y23353574D01*
X65950615Y23353574D02*
X65998234Y23448812D01*
X65998234Y23448812D02*
X66045853Y23496431D01*
X66045853Y23496431D02*
X66141091Y23544050D01*
X66141091Y23544050D02*
X66379186Y23544050D01*
X66379186Y23544050D02*
X66474424Y23496431D01*
X66474424Y23496431D02*
X66522044Y23448812D01*
X66522044Y23448812D02*
X66569663Y23353574D01*
X66569663Y23353574D02*
X66569663Y23067860D01*
X66569663Y23067860D02*
X66522044Y22972622D01*
X66522044Y22972622D02*
X66474424Y22925003D01*
X65664901Y23925003D02*
X65617282Y23972622D01*
X65617282Y23972622D02*
X65569663Y24067860D01*
X65569663Y24067860D02*
X65569663Y24305955D01*
X65569663Y24305955D02*
X65617282Y24401193D01*
X65617282Y24401193D02*
X65664901Y24448812D01*
X65664901Y24448812D02*
X65760139Y24496431D01*
X65760139Y24496431D02*
X65855377Y24496431D01*
X65855377Y24496431D02*
X65998234Y24448812D01*
X65998234Y24448812D02*
X66569663Y23877384D01*
X66569663Y23877384D02*
X66569663Y24496431D01*
X67054663Y43771906D02*
X66054663Y43771906D01*
X66054663Y43771906D02*
X66054663Y44010001D01*
X66054663Y44010001D02*
X66102282Y44152858D01*
X66102282Y44152858D02*
X66197520Y44248096D01*
X66197520Y44248096D02*
X66292758Y44295715D01*
X66292758Y44295715D02*
X66483234Y44343334D01*
X66483234Y44343334D02*
X66626091Y44343334D01*
X66626091Y44343334D02*
X66816567Y44295715D01*
X66816567Y44295715D02*
X66911805Y44248096D01*
X66911805Y44248096D02*
X67007044Y44152858D01*
X67007044Y44152858D02*
X67054663Y44010001D01*
X67054663Y44010001D02*
X67054663Y43771906D01*
X66149901Y44724287D02*
X66102282Y44771906D01*
X66102282Y44771906D02*
X66054663Y44867144D01*
X66054663Y44867144D02*
X66054663Y45105239D01*
X66054663Y45105239D02*
X66102282Y45200477D01*
X66102282Y45200477D02*
X66149901Y45248096D01*
X66149901Y45248096D02*
X66245139Y45295715D01*
X66245139Y45295715D02*
X66340377Y45295715D01*
X66340377Y45295715D02*
X66483234Y45248096D01*
X66483234Y45248096D02*
X67054663Y44676668D01*
X67054663Y44676668D02*
X67054663Y45295715D01*
X72724424Y15008336D02*
X72772044Y14960717D01*
X72772044Y14960717D02*
X72819663Y14817860D01*
X72819663Y14817860D02*
X72819663Y14722622D01*
X72819663Y14722622D02*
X72772044Y14579765D01*
X72772044Y14579765D02*
X72676805Y14484527D01*
X72676805Y14484527D02*
X72581567Y14436908D01*
X72581567Y14436908D02*
X72391091Y14389289D01*
X72391091Y14389289D02*
X72248234Y14389289D01*
X72248234Y14389289D02*
X72057758Y14436908D01*
X72057758Y14436908D02*
X71962520Y14484527D01*
X71962520Y14484527D02*
X71867282Y14579765D01*
X71867282Y14579765D02*
X71819663Y14722622D01*
X71819663Y14722622D02*
X71819663Y14817860D01*
X71819663Y14817860D02*
X71867282Y14960717D01*
X71867282Y14960717D02*
X71914901Y15008336D01*
X72819663Y15960717D02*
X72819663Y15389289D01*
X72819663Y15675003D02*
X71819663Y15675003D01*
X71819663Y15675003D02*
X71962520Y15579765D01*
X71962520Y15579765D02*
X72057758Y15484527D01*
X72057758Y15484527D02*
X72105377Y15389289D01*
X38659424Y20090476D02*
X38707044Y20042857D01*
X38707044Y20042857D02*
X38754663Y19900000D01*
X38754663Y19900000D02*
X38754663Y19804762D01*
X38754663Y19804762D02*
X38707044Y19661905D01*
X38707044Y19661905D02*
X38611805Y19566667D01*
X38611805Y19566667D02*
X38516567Y19519048D01*
X38516567Y19519048D02*
X38326091Y19471429D01*
X38326091Y19471429D02*
X38183234Y19471429D01*
X38183234Y19471429D02*
X37992758Y19519048D01*
X37992758Y19519048D02*
X37897520Y19566667D01*
X37897520Y19566667D02*
X37802282Y19661905D01*
X37802282Y19661905D02*
X37754663Y19804762D01*
X37754663Y19804762D02*
X37754663Y19900000D01*
X37754663Y19900000D02*
X37802282Y20042857D01*
X37802282Y20042857D02*
X37849901Y20090476D01*
X38754663Y20519048D02*
X37754663Y20519048D01*
X38135615Y20519048D02*
X38087996Y20614286D01*
X38087996Y20614286D02*
X38087996Y20804762D01*
X38087996Y20804762D02*
X38135615Y20900000D01*
X38135615Y20900000D02*
X38183234Y20947619D01*
X38183234Y20947619D02*
X38278472Y20995238D01*
X38278472Y20995238D02*
X38564186Y20995238D01*
X38564186Y20995238D02*
X38659424Y20947619D01*
X38659424Y20947619D02*
X38707044Y20900000D01*
X38707044Y20900000D02*
X38754663Y20804762D01*
X38754663Y20804762D02*
X38754663Y20614286D01*
X38754663Y20614286D02*
X38707044Y20519048D01*
X38754663Y21566667D02*
X38707044Y21471429D01*
X38707044Y21471429D02*
X38659424Y21423810D01*
X38659424Y21423810D02*
X38564186Y21376191D01*
X38564186Y21376191D02*
X38278472Y21376191D01*
X38278472Y21376191D02*
X38183234Y21423810D01*
X38183234Y21423810D02*
X38135615Y21471429D01*
X38135615Y21471429D02*
X38087996Y21566667D01*
X38087996Y21566667D02*
X38087996Y21709524D01*
X38087996Y21709524D02*
X38135615Y21804762D01*
X38135615Y21804762D02*
X38183234Y21852381D01*
X38183234Y21852381D02*
X38278472Y21900000D01*
X38278472Y21900000D02*
X38564186Y21900000D01*
X38564186Y21900000D02*
X38659424Y21852381D01*
X38659424Y21852381D02*
X38707044Y21804762D01*
X38707044Y21804762D02*
X38754663Y21709524D01*
X38754663Y21709524D02*
X38754663Y21566667D01*
X38754663Y22471429D02*
X38707044Y22376191D01*
X38707044Y22376191D02*
X38659424Y22328572D01*
X38659424Y22328572D02*
X38564186Y22280953D01*
X38564186Y22280953D02*
X38278472Y22280953D01*
X38278472Y22280953D02*
X38183234Y22328572D01*
X38183234Y22328572D02*
X38135615Y22376191D01*
X38135615Y22376191D02*
X38087996Y22471429D01*
X38087996Y22471429D02*
X38087996Y22614286D01*
X38087996Y22614286D02*
X38135615Y22709524D01*
X38135615Y22709524D02*
X38183234Y22757143D01*
X38183234Y22757143D02*
X38278472Y22804762D01*
X38278472Y22804762D02*
X38564186Y22804762D01*
X38564186Y22804762D02*
X38659424Y22757143D01*
X38659424Y22757143D02*
X38707044Y22709524D01*
X38707044Y22709524D02*
X38754663Y22614286D01*
X38754663Y22614286D02*
X38754663Y22471429D01*
X38087996Y23090477D02*
X38087996Y23471429D01*
X37754663Y23233334D02*
X38611805Y23233334D01*
X38611805Y23233334D02*
X38707044Y23280953D01*
X38707044Y23280953D02*
X38754663Y23376191D01*
X38754663Y23376191D02*
X38754663Y23471429D01*
X38754663Y24328572D02*
X38754663Y23757144D01*
X38754663Y24042858D02*
X37754663Y24042858D01*
X37754663Y24042858D02*
X37897520Y23947620D01*
X37897520Y23947620D02*
X37992758Y23852382D01*
X37992758Y23852382D02*
X38040377Y23757144D01*
X75164663Y35591667D02*
X75878948Y35591667D01*
X75878948Y35591667D02*
X76021805Y35544048D01*
X76021805Y35544048D02*
X76117044Y35448810D01*
X76117044Y35448810D02*
X76164663Y35305953D01*
X76164663Y35305953D02*
X76164663Y35210715D01*
X75259901Y36020239D02*
X75212282Y36067858D01*
X75212282Y36067858D02*
X75164663Y36163096D01*
X75164663Y36163096D02*
X75164663Y36401191D01*
X75164663Y36401191D02*
X75212282Y36496429D01*
X75212282Y36496429D02*
X75259901Y36544048D01*
X75259901Y36544048D02*
X75355139Y36591667D01*
X75355139Y36591667D02*
X75450377Y36591667D01*
X75450377Y36591667D02*
X75593234Y36544048D01*
X75593234Y36544048D02*
X76164663Y35972620D01*
X76164663Y35972620D02*
X76164663Y36591667D01*
X29909424Y32142857D02*
X29957044Y32095238D01*
X29957044Y32095238D02*
X30004663Y31952381D01*
X30004663Y31952381D02*
X30004663Y31857143D01*
X30004663Y31857143D02*
X29957044Y31714286D01*
X29957044Y31714286D02*
X29861805Y31619048D01*
X29861805Y31619048D02*
X29766567Y31571429D01*
X29766567Y31571429D02*
X29576091Y31523810D01*
X29576091Y31523810D02*
X29433234Y31523810D01*
X29433234Y31523810D02*
X29242758Y31571429D01*
X29242758Y31571429D02*
X29147520Y31619048D01*
X29147520Y31619048D02*
X29052282Y31714286D01*
X29052282Y31714286D02*
X29004663Y31857143D01*
X29004663Y31857143D02*
X29004663Y31952381D01*
X29004663Y31952381D02*
X29052282Y32095238D01*
X29052282Y32095238D02*
X29099901Y32142857D01*
X30004663Y32714286D02*
X29957044Y32619048D01*
X29957044Y32619048D02*
X29909424Y32571429D01*
X29909424Y32571429D02*
X29814186Y32523810D01*
X29814186Y32523810D02*
X29528472Y32523810D01*
X29528472Y32523810D02*
X29433234Y32571429D01*
X29433234Y32571429D02*
X29385615Y32619048D01*
X29385615Y32619048D02*
X29337996Y32714286D01*
X29337996Y32714286D02*
X29337996Y32857143D01*
X29337996Y32857143D02*
X29385615Y32952381D01*
X29385615Y32952381D02*
X29433234Y33000000D01*
X29433234Y33000000D02*
X29528472Y33047619D01*
X29528472Y33047619D02*
X29814186Y33047619D01*
X29814186Y33047619D02*
X29909424Y33000000D01*
X29909424Y33000000D02*
X29957044Y32952381D01*
X29957044Y32952381D02*
X30004663Y32857143D01*
X30004663Y32857143D02*
X30004663Y32714286D01*
X29337996Y33904762D02*
X30004663Y33904762D01*
X29337996Y33476191D02*
X29861805Y33476191D01*
X29861805Y33476191D02*
X29957044Y33523810D01*
X29957044Y33523810D02*
X30004663Y33619048D01*
X30004663Y33619048D02*
X30004663Y33761905D01*
X30004663Y33761905D02*
X29957044Y33857143D01*
X29957044Y33857143D02*
X29909424Y33904762D01*
X29337996Y34238096D02*
X29337996Y34619048D01*
X29004663Y34380953D02*
X29861805Y34380953D01*
X29861805Y34380953D02*
X29957044Y34428572D01*
X29957044Y34428572D02*
X30004663Y34523810D01*
X30004663Y34523810D02*
X30004663Y34619048D01*
X30004663Y35476191D02*
X30004663Y34904763D01*
X30004663Y35190477D02*
X29004663Y35190477D01*
X29004663Y35190477D02*
X29147520Y35095239D01*
X29147520Y35095239D02*
X29242758Y35000001D01*
X29242758Y35000001D02*
X29290377Y34904763D01*
X4284663Y9186667D02*
X4998948Y9186667D01*
X4998948Y9186667D02*
X5141805Y9139048D01*
X5141805Y9139048D02*
X5237044Y9043810D01*
X5237044Y9043810D02*
X5284663Y8900953D01*
X5284663Y8900953D02*
X5284663Y8805715D01*
X4284663Y10139048D02*
X4284663Y9662858D01*
X4284663Y9662858D02*
X4760853Y9615239D01*
X4760853Y9615239D02*
X4713234Y9662858D01*
X4713234Y9662858D02*
X4665615Y9758096D01*
X4665615Y9758096D02*
X4665615Y9996191D01*
X4665615Y9996191D02*
X4713234Y10091429D01*
X4713234Y10091429D02*
X4760853Y10139048D01*
X4760853Y10139048D02*
X4856091Y10186667D01*
X4856091Y10186667D02*
X5094186Y10186667D01*
X5094186Y10186667D02*
X5189424Y10139048D01*
X5189424Y10139048D02*
X5237044Y10091429D01*
X5237044Y10091429D02*
X5284663Y9996191D01*
X5284663Y9996191D02*
X5284663Y9758096D01*
X5284663Y9758096D02*
X5237044Y9662858D01*
X5237044Y9662858D02*
X5189424Y9615239D01*
X71819663Y27841669D02*
X72533948Y27841669D01*
X72533948Y27841669D02*
X72676805Y27794050D01*
X72676805Y27794050D02*
X72772044Y27698812D01*
X72772044Y27698812D02*
X72819663Y27555955D01*
X72819663Y27555955D02*
X72819663Y27460717D01*
X72819663Y28317860D02*
X71819663Y28317860D01*
X71819663Y28317860D02*
X71819663Y28698812D01*
X71819663Y28698812D02*
X71867282Y28794050D01*
X71867282Y28794050D02*
X71914901Y28841669D01*
X71914901Y28841669D02*
X72010139Y28889288D01*
X72010139Y28889288D02*
X72152996Y28889288D01*
X72152996Y28889288D02*
X72248234Y28841669D01*
X72248234Y28841669D02*
X72295853Y28794050D01*
X72295853Y28794050D02*
X72343472Y28698812D01*
X72343472Y28698812D02*
X72343472Y28317860D01*
X72819663Y29841669D02*
X72819663Y29270241D01*
X72819663Y29555955D02*
X71819663Y29555955D01*
X71819663Y29555955D02*
X71962520Y29460717D01*
X71962520Y29460717D02*
X72057758Y29365479D01*
X72057758Y29365479D02*
X72105377Y29270241D01*
X77664663Y42331906D02*
X76664663Y42331906D01*
X76664663Y42331906D02*
X76664663Y42570001D01*
X76664663Y42570001D02*
X76712282Y42712858D01*
X76712282Y42712858D02*
X76807520Y42808096D01*
X76807520Y42808096D02*
X76902758Y42855715D01*
X76902758Y42855715D02*
X77093234Y42903334D01*
X77093234Y42903334D02*
X77236091Y42903334D01*
X77236091Y42903334D02*
X77426567Y42855715D01*
X77426567Y42855715D02*
X77521805Y42808096D01*
X77521805Y42808096D02*
X77617044Y42712858D01*
X77617044Y42712858D02*
X77664663Y42570001D01*
X77664663Y42570001D02*
X77664663Y42331906D01*
X76664663Y43236668D02*
X76664663Y43855715D01*
X76664663Y43855715D02*
X77045615Y43522382D01*
X77045615Y43522382D02*
X77045615Y43665239D01*
X77045615Y43665239D02*
X77093234Y43760477D01*
X77093234Y43760477D02*
X77140853Y43808096D01*
X77140853Y43808096D02*
X77236091Y43855715D01*
X77236091Y43855715D02*
X77474186Y43855715D01*
X77474186Y43855715D02*
X77569424Y43808096D01*
X77569424Y43808096D02*
X77617044Y43760477D01*
X77617044Y43760477D02*
X77664663Y43665239D01*
X77664663Y43665239D02*
X77664663Y43379525D01*
X77664663Y43379525D02*
X77617044Y43284287D01*
X77617044Y43284287D02*
X77569424Y43236668D01*
X68954663Y32008336D02*
X68478472Y31675003D01*
X68954663Y31436908D02*
X67954663Y31436908D01*
X67954663Y31436908D02*
X67954663Y31817860D01*
X67954663Y31817860D02*
X68002282Y31913098D01*
X68002282Y31913098D02*
X68049901Y31960717D01*
X68049901Y31960717D02*
X68145139Y32008336D01*
X68145139Y32008336D02*
X68287996Y32008336D01*
X68287996Y32008336D02*
X68383234Y31960717D01*
X68383234Y31960717D02*
X68430853Y31913098D01*
X68430853Y31913098D02*
X68478472Y31817860D01*
X68478472Y31817860D02*
X68478472Y31436908D01*
X68954663Y32960717D02*
X68954663Y32389289D01*
X68954663Y32675003D02*
X67954663Y32675003D01*
X67954663Y32675003D02*
X68097520Y32579765D01*
X68097520Y32579765D02*
X68192758Y32484527D01*
X68192758Y32484527D02*
X68240377Y32389289D01*
X10339665Y14323334D02*
X9863474Y13990001D01*
X10339665Y13751906D02*
X9339665Y13751906D01*
X9339665Y13751906D02*
X9339665Y14132858D01*
X9339665Y14132858D02*
X9387284Y14228096D01*
X9387284Y14228096D02*
X9434903Y14275715D01*
X9434903Y14275715D02*
X9530141Y14323334D01*
X9530141Y14323334D02*
X9672998Y14323334D01*
X9672998Y14323334D02*
X9768236Y14275715D01*
X9768236Y14275715D02*
X9815855Y14228096D01*
X9815855Y14228096D02*
X9863474Y14132858D01*
X9863474Y14132858D02*
X9863474Y13751906D01*
X9339665Y15180477D02*
X9339665Y14990001D01*
X9339665Y14990001D02*
X9387284Y14894763D01*
X9387284Y14894763D02*
X9434903Y14847144D01*
X9434903Y14847144D02*
X9577760Y14751906D01*
X9577760Y14751906D02*
X9768236Y14704287D01*
X9768236Y14704287D02*
X10149188Y14704287D01*
X10149188Y14704287D02*
X10244426Y14751906D01*
X10244426Y14751906D02*
X10292046Y14799525D01*
X10292046Y14799525D02*
X10339665Y14894763D01*
X10339665Y14894763D02*
X10339665Y15085239D01*
X10339665Y15085239D02*
X10292046Y15180477D01*
X10292046Y15180477D02*
X10244426Y15228096D01*
X10244426Y15228096D02*
X10149188Y15275715D01*
X10149188Y15275715D02*
X9911093Y15275715D01*
X9911093Y15275715D02*
X9815855Y15228096D01*
X9815855Y15228096D02*
X9768236Y15180477D01*
X9768236Y15180477D02*
X9720617Y15085239D01*
X9720617Y15085239D02*
X9720617Y14894763D01*
X9720617Y14894763D02*
X9768236Y14799525D01*
X9768236Y14799525D02*
X9815855Y14751906D01*
X9815855Y14751906D02*
X9911093Y14704287D01*
X25749424Y7642858D02*
X25797044Y7595239D01*
X25797044Y7595239D02*
X25844663Y7452382D01*
X25844663Y7452382D02*
X25844663Y7357144D01*
X25844663Y7357144D02*
X25797044Y7214287D01*
X25797044Y7214287D02*
X25701805Y7119049D01*
X25701805Y7119049D02*
X25606567Y7071430D01*
X25606567Y7071430D02*
X25416091Y7023811D01*
X25416091Y7023811D02*
X25273234Y7023811D01*
X25273234Y7023811D02*
X25082758Y7071430D01*
X25082758Y7071430D02*
X24987520Y7119049D01*
X24987520Y7119049D02*
X24892282Y7214287D01*
X24892282Y7214287D02*
X24844663Y7357144D01*
X24844663Y7357144D02*
X24844663Y7452382D01*
X24844663Y7452382D02*
X24892282Y7595239D01*
X24892282Y7595239D02*
X24939901Y7642858D01*
X25844663Y8071430D02*
X25177996Y8071430D01*
X24844663Y8071430D02*
X24892282Y8023811D01*
X24892282Y8023811D02*
X24939901Y8071430D01*
X24939901Y8071430D02*
X24892282Y8119049D01*
X24892282Y8119049D02*
X24844663Y8071430D01*
X24844663Y8071430D02*
X24939901Y8071430D01*
X25177996Y8547620D02*
X25844663Y8547620D01*
X25273234Y8547620D02*
X25225615Y8595239D01*
X25225615Y8595239D02*
X25177996Y8690477D01*
X25177996Y8690477D02*
X25177996Y8833334D01*
X25177996Y8833334D02*
X25225615Y8928572D01*
X25225615Y8928572D02*
X25320853Y8976191D01*
X25320853Y8976191D02*
X25844663Y8976191D01*
X25844663Y9976191D02*
X25844663Y9404763D01*
X25844663Y9690477D02*
X24844663Y9690477D01*
X24844663Y9690477D02*
X24987520Y9595239D01*
X24987520Y9595239D02*
X25082758Y9500001D01*
X25082758Y9500001D02*
X25130377Y9404763D01*
X83914663Y20738096D02*
X84724186Y20738096D01*
X84724186Y20738096D02*
X84819424Y20785715D01*
X84819424Y20785715D02*
X84867044Y20833334D01*
X84867044Y20833334D02*
X84914663Y20928572D01*
X84914663Y20928572D02*
X84914663Y21119048D01*
X84914663Y21119048D02*
X84867044Y21214286D01*
X84867044Y21214286D02*
X84819424Y21261905D01*
X84819424Y21261905D02*
X84724186Y21309524D01*
X84724186Y21309524D02*
X83914663Y21309524D01*
X84009901Y21738096D02*
X83962282Y21785715D01*
X83962282Y21785715D02*
X83914663Y21880953D01*
X83914663Y21880953D02*
X83914663Y22119048D01*
X83914663Y22119048D02*
X83962282Y22214286D01*
X83962282Y22214286D02*
X84009901Y22261905D01*
X84009901Y22261905D02*
X84105139Y22309524D01*
X84105139Y22309524D02*
X84200377Y22309524D01*
X84200377Y22309524D02*
X84343234Y22261905D01*
X84343234Y22261905D02*
X84914663Y21690477D01*
X84914663Y21690477D02*
X84914663Y22309524D01*
X76164663Y18333334D02*
X76164663Y18904762D01*
X77164663Y18619048D02*
X76164663Y18619048D01*
X77069424Y19809524D02*
X77117044Y19761905D01*
X77117044Y19761905D02*
X77164663Y19619048D01*
X77164663Y19619048D02*
X77164663Y19523810D01*
X77164663Y19523810D02*
X77117044Y19380953D01*
X77117044Y19380953D02*
X77021805Y19285715D01*
X77021805Y19285715D02*
X76926567Y19238096D01*
X76926567Y19238096D02*
X76736091Y19190477D01*
X76736091Y19190477D02*
X76593234Y19190477D01*
X76593234Y19190477D02*
X76402758Y19238096D01*
X76402758Y19238096D02*
X76307520Y19285715D01*
X76307520Y19285715D02*
X76212282Y19380953D01*
X76212282Y19380953D02*
X76164663Y19523810D01*
X76164663Y19523810D02*
X76164663Y19619048D01*
X76164663Y19619048D02*
X76212282Y19761905D01*
X76212282Y19761905D02*
X76259901Y19809524D01*
X76878948Y20190477D02*
X76878948Y20666667D01*
X77164663Y20095239D02*
X76164663Y20428572D01*
X76164663Y20428572D02*
X77164663Y20761905D01*
X77164663Y21095239D02*
X76164663Y21095239D01*
X76164663Y21095239D02*
X77164663Y21666667D01*
X77164663Y21666667D02*
X76164663Y21666667D01*
X76164663Y22047620D02*
X76164663Y22666667D01*
X76164663Y22666667D02*
X76545615Y22333334D01*
X76545615Y22333334D02*
X76545615Y22476191D01*
X76545615Y22476191D02*
X76593234Y22571429D01*
X76593234Y22571429D02*
X76640853Y22619048D01*
X76640853Y22619048D02*
X76736091Y22666667D01*
X76736091Y22666667D02*
X76974186Y22666667D01*
X76974186Y22666667D02*
X77069424Y22619048D01*
X77069424Y22619048D02*
X77117044Y22571429D01*
X77117044Y22571429D02*
X77164663Y22476191D01*
X77164663Y22476191D02*
X77164663Y22190477D01*
X77164663Y22190477D02*
X77117044Y22095239D01*
X77117044Y22095239D02*
X77069424Y22047620D01*
X76164663Y23000001D02*
X76164663Y23619048D01*
X76164663Y23619048D02*
X76545615Y23285715D01*
X76545615Y23285715D02*
X76545615Y23428572D01*
X76545615Y23428572D02*
X76593234Y23523810D01*
X76593234Y23523810D02*
X76640853Y23571429D01*
X76640853Y23571429D02*
X76736091Y23619048D01*
X76736091Y23619048D02*
X76974186Y23619048D01*
X76974186Y23619048D02*
X77069424Y23571429D01*
X77069424Y23571429D02*
X77117044Y23523810D01*
X77117044Y23523810D02*
X77164663Y23428572D01*
X77164663Y23428572D02*
X77164663Y23142858D01*
X77164663Y23142858D02*
X77117044Y23047620D01*
X77117044Y23047620D02*
X77069424Y23000001D01*
X76259901Y24000001D02*
X76212282Y24047620D01*
X76212282Y24047620D02*
X76164663Y24142858D01*
X76164663Y24142858D02*
X76164663Y24380953D01*
X76164663Y24380953D02*
X76212282Y24476191D01*
X76212282Y24476191D02*
X76259901Y24523810D01*
X76259901Y24523810D02*
X76355139Y24571429D01*
X76355139Y24571429D02*
X76450377Y24571429D01*
X76450377Y24571429D02*
X76593234Y24523810D01*
X76593234Y24523810D02*
X77164663Y23952382D01*
X77164663Y23952382D02*
X77164663Y24571429D01*
X30354663Y23533334D02*
X30354663Y23057144D01*
X30354663Y23057144D02*
X29354663Y23057144D01*
X30354663Y24390477D02*
X30354663Y23819049D01*
X30354663Y24104763D02*
X29354663Y24104763D01*
X29354663Y24104763D02*
X29497520Y24009525D01*
X29497520Y24009525D02*
X29592758Y23914287D01*
X29592758Y23914287D02*
X29640377Y23819049D01*
X83119424Y15083334D02*
X83167044Y15035715D01*
X83167044Y15035715D02*
X83214663Y14892858D01*
X83214663Y14892858D02*
X83214663Y14797620D01*
X83214663Y14797620D02*
X83167044Y14654763D01*
X83167044Y14654763D02*
X83071805Y14559525D01*
X83071805Y14559525D02*
X82976567Y14511906D01*
X82976567Y14511906D02*
X82786091Y14464287D01*
X82786091Y14464287D02*
X82643234Y14464287D01*
X82643234Y14464287D02*
X82452758Y14511906D01*
X82452758Y14511906D02*
X82357520Y14559525D01*
X82357520Y14559525D02*
X82262282Y14654763D01*
X82262282Y14654763D02*
X82214663Y14797620D01*
X82214663Y14797620D02*
X82214663Y14892858D01*
X82214663Y14892858D02*
X82262282Y15035715D01*
X82262282Y15035715D02*
X82309901Y15083334D01*
X82309901Y15464287D02*
X82262282Y15511906D01*
X82262282Y15511906D02*
X82214663Y15607144D01*
X82214663Y15607144D02*
X82214663Y15845239D01*
X82214663Y15845239D02*
X82262282Y15940477D01*
X82262282Y15940477D02*
X82309901Y15988096D01*
X82309901Y15988096D02*
X82405139Y16035715D01*
X82405139Y16035715D02*
X82500377Y16035715D01*
X82500377Y16035715D02*
X82643234Y15988096D01*
X82643234Y15988096D02*
X83214663Y15416668D01*
X83214663Y15416668D02*
X83214663Y16035715D01*
X80054663Y32083334D02*
X79578472Y31750001D01*
X80054663Y31511906D02*
X79054663Y31511906D01*
X79054663Y31511906D02*
X79054663Y31892858D01*
X79054663Y31892858D02*
X79102282Y31988096D01*
X79102282Y31988096D02*
X79149901Y32035715D01*
X79149901Y32035715D02*
X79245139Y32083334D01*
X79245139Y32083334D02*
X79387996Y32083334D01*
X79387996Y32083334D02*
X79483234Y32035715D01*
X79483234Y32035715D02*
X79530853Y31988096D01*
X79530853Y31988096D02*
X79578472Y31892858D01*
X79578472Y31892858D02*
X79578472Y31511906D01*
X79149901Y32464287D02*
X79102282Y32511906D01*
X79102282Y32511906D02*
X79054663Y32607144D01*
X79054663Y32607144D02*
X79054663Y32845239D01*
X79054663Y32845239D02*
X79102282Y32940477D01*
X79102282Y32940477D02*
X79149901Y32988096D01*
X79149901Y32988096D02*
X79245139Y33035715D01*
X79245139Y33035715D02*
X79340377Y33035715D01*
X79340377Y33035715D02*
X79483234Y32988096D01*
X79483234Y32988096D02*
X80054663Y32416668D01*
X80054663Y32416668D02*
X80054663Y33035715D01*
X28654663Y17533334D02*
X28178472Y17200001D01*
X28654663Y16961906D02*
X27654663Y16961906D01*
X27654663Y16961906D02*
X27654663Y17342858D01*
X27654663Y17342858D02*
X27702282Y17438096D01*
X27702282Y17438096D02*
X27749901Y17485715D01*
X27749901Y17485715D02*
X27845139Y17533334D01*
X27845139Y17533334D02*
X27987996Y17533334D01*
X27987996Y17533334D02*
X28083234Y17485715D01*
X28083234Y17485715D02*
X28130853Y17438096D01*
X28130853Y17438096D02*
X28178472Y17342858D01*
X28178472Y17342858D02*
X28178472Y16961906D01*
X27654663Y17866668D02*
X27654663Y18485715D01*
X27654663Y18485715D02*
X28035615Y18152382D01*
X28035615Y18152382D02*
X28035615Y18295239D01*
X28035615Y18295239D02*
X28083234Y18390477D01*
X28083234Y18390477D02*
X28130853Y18438096D01*
X28130853Y18438096D02*
X28226091Y18485715D01*
X28226091Y18485715D02*
X28464186Y18485715D01*
X28464186Y18485715D02*
X28559424Y18438096D01*
X28559424Y18438096D02*
X28607044Y18390477D01*
X28607044Y18390477D02*
X28654663Y18295239D01*
X28654663Y18295239D02*
X28654663Y18009525D01*
X28654663Y18009525D02*
X28607044Y17914287D01*
X28607044Y17914287D02*
X28559424Y17866668D01*
X11694663Y9306667D02*
X12408948Y9306667D01*
X12408948Y9306667D02*
X12551805Y9259048D01*
X12551805Y9259048D02*
X12647044Y9163810D01*
X12647044Y9163810D02*
X12694663Y9020953D01*
X12694663Y9020953D02*
X12694663Y8925715D01*
X12027996Y10211429D02*
X12694663Y10211429D01*
X11647044Y9973334D02*
X12361329Y9735239D01*
X12361329Y9735239D02*
X12361329Y10354286D01*
D11*
%TO.C,P8*%
X18305000Y54085000D02*
X76945000Y54085000D01*
X18305000Y51435000D02*
X18305000Y54085000D01*
X18305000Y48785000D02*
X18305000Y50165000D01*
X19685000Y48785000D02*
X18305000Y48785000D01*
X20955000Y51435000D02*
X18305000Y51435000D01*
X20955000Y48785000D02*
X20955000Y51435000D01*
X20955000Y48785000D02*
X76945000Y48785000D01*
X76945000Y48785000D02*
X76945000Y54085000D01*
%TO.C,P9*%
X18305000Y5825000D02*
X76945000Y5825000D01*
X18305000Y3175000D02*
X18305000Y5825000D01*
X18305000Y525000D02*
X18305000Y1905000D01*
X19685000Y525000D02*
X18305000Y525000D01*
X20955000Y3175000D02*
X18305000Y3175000D01*
X20955000Y525000D02*
X20955000Y3175000D01*
X20955000Y525000D02*
X76945000Y525000D01*
X76945000Y525000D02*
X76945000Y5825000D01*
%TO.C,JP2*%
X76790000Y27370000D02*
X76790000Y28750000D01*
X78170000Y27370000D02*
X76790000Y27370000D01*
X79440000Y30130000D02*
X82090000Y30130000D01*
X79440000Y27370000D02*
X79440000Y30130000D01*
X79440000Y27370000D02*
X82090000Y27370000D01*
X82090000Y27370000D02*
X82090000Y30130000D01*
%TO.C,R4*%
X30567064Y15465000D02*
X30112936Y15465000D01*
X30567064Y13995000D02*
X30112936Y13995000D01*
D12*
%TO.C,J3*%
X39127000Y6275200D02*
X39127000Y48185200D01*
X60717000Y6275200D02*
X63257000Y8815200D01*
X63257000Y48185200D02*
X39127000Y48185200D01*
X63257000Y45645200D02*
X60717000Y48185200D01*
X63257000Y6275200D02*
X39127000Y6275200D01*
X63257000Y6275200D02*
X63257000Y48185200D01*
D13*
%TO.C,D1*%
X37280000Y10412500D02*
X37430000Y10412500D01*
X37280000Y8412500D02*
X37280000Y10412500D01*
X37430000Y8412500D02*
X37280000Y8412500D01*
X37580000Y10737500D02*
X38380000Y10737500D01*
X38555000Y10412500D02*
X38680000Y10412500D01*
X38680000Y10412500D02*
X38680000Y8412500D01*
X38680000Y8412500D02*
X38580000Y8412500D01*
D11*
%TO.C,JP3*%
X13240002Y15870000D02*
X13240002Y13110000D01*
X15890002Y15870000D02*
X13240002Y15870000D01*
X15890002Y15870000D02*
X15890002Y13110000D01*
X15890002Y13110000D02*
X13240002Y13110000D01*
X17160002Y15870000D02*
X18540002Y15870000D01*
X18540002Y15870000D02*
X18540002Y14490000D01*
%TO.C,J1*%
X65960000Y34795002D02*
X65960000Y36175002D01*
X67340000Y34795002D02*
X65960000Y34795002D01*
X68610000Y37555002D02*
X71260000Y37555002D01*
X68610000Y34795002D02*
X68610000Y37555002D01*
X68610000Y34795002D02*
X71260000Y34795002D01*
X71260000Y34795002D02*
X71260000Y37555002D01*
%TO.C,U3*%
X33570000Y15330000D02*
X33570000Y16130000D01*
X33570000Y15330000D02*
X33570000Y14530000D01*
X36690000Y15330000D02*
X36690000Y16130000D01*
X36690000Y15330000D02*
X36690000Y14530000D01*
X36970000Y16390000D02*
X36640000Y16630000D01*
X36970000Y16870000D01*
X36970000Y16390000D01*
G36*
X36970000Y16390000D02*
G01*
X36640000Y16630000D01*
X36970000Y16870000D01*
X36970000Y16390000D01*
G37*
D14*
%TO.C,U1*%
X67615000Y18125001D02*
X67615000Y22325003D01*
X72615000Y20525001D02*
X72615000Y22325003D01*
D11*
%TO.C,D2*%
X67497500Y45470000D02*
X67497500Y43550000D01*
X67497500Y43550000D02*
X70182500Y43550000D01*
X70182500Y45470000D02*
X67497500Y45470000D01*
%TO.C,C1*%
X70126252Y15910002D02*
X69603748Y15910002D01*
X70126252Y14440002D02*
X69603748Y14440002D01*
%TO.C,Cboot1*%
X37235000Y17258748D02*
X37235000Y17781252D01*
X38705000Y17258748D02*
X38705000Y17781252D01*
%TO.C,J2*%
X76805000Y34620000D02*
X76805000Y36000000D01*
X78185000Y34620000D02*
X76805000Y34620000D01*
X79455000Y37380000D02*
X82105000Y37380000D01*
X79455000Y34620000D02*
X79455000Y37380000D01*
X79455000Y34620000D02*
X82105000Y34620000D01*
X82105000Y34620000D02*
X82105000Y37380000D01*
%TO.C,Cout1*%
X30490000Y36910000D02*
X32840000Y36910000D01*
X30490000Y31154437D02*
X30490000Y36910000D01*
X31554437Y30090000D02*
X30490000Y31154437D01*
X31554437Y30090000D02*
X32840000Y30090000D01*
X31658750Y29456250D02*
X32446250Y29456250D01*
X32052500Y29062500D02*
X32052500Y29850000D01*
X36245563Y30090000D02*
X34960000Y30090000D01*
X36245563Y30090000D02*
X37310000Y31154437D01*
X37310000Y36910000D02*
X34960000Y36910000D01*
X37310000Y31154437D02*
X37310000Y36910000D01*
%TO.C,J5*%
D13*
X10450000Y6680000D02*
X5750000Y6680000D01*
X5750000Y12380000D01*
X10450000Y12380000D01*
X10450000Y6680000D01*
D11*
%TO.C,JP1*%
X65960000Y27295002D02*
X65960000Y28675002D01*
X67340000Y27295002D02*
X65960000Y27295002D01*
X68610000Y30055002D02*
X71260000Y30055002D01*
X68610000Y27295002D02*
X68610000Y30055002D01*
X68610000Y27295002D02*
X71260000Y27295002D01*
X71260000Y27295002D02*
X71260000Y30055002D01*
%TO.C,D3*%
X78017500Y44030000D02*
X78017500Y42110000D01*
X78017500Y42110000D02*
X80702500Y42110000D01*
X80702500Y44030000D02*
X78017500Y44030000D01*
%TO.C,R1*%
X70637936Y32910002D02*
X71092064Y32910002D01*
X70637936Y31440002D02*
X71092064Y31440002D01*
%TO.C,R6*%
X10790002Y14717064D02*
X10790002Y14262936D01*
X12260002Y14717064D02*
X12260002Y14262936D01*
%TO.C,Cin1*%
X27550000Y13360000D02*
X27550000Y11010000D01*
X27550000Y6540000D02*
X27550000Y8890000D01*
X33305563Y13360000D02*
X27550000Y13360000D01*
X33305563Y6540000D02*
X27550000Y6540000D01*
X34370000Y12295563D02*
X33305563Y13360000D01*
X34370000Y12295563D02*
X34370000Y11010000D01*
X34370000Y7604437D02*
X33305563Y6540000D01*
X34370000Y7604437D02*
X34370000Y8890000D01*
X35003750Y7708750D02*
X35003750Y8496250D01*
X35397500Y8102500D02*
X34610000Y8102500D01*
D14*
%TO.C,U2*%
X78210000Y18199999D02*
X78210000Y22400001D01*
X83210000Y20599999D02*
X83210000Y22400001D01*
D13*
%TO.C,L1*%
X30675000Y25875000D02*
X30675000Y21525000D01*
X37325000Y25875000D02*
X37325000Y21525000D01*
D11*
%TO.C,C2*%
X80521252Y15985000D02*
X79998748Y15985000D01*
X80521252Y14515000D02*
X79998748Y14515000D01*
%TO.C,R2*%
X81732936Y32985000D02*
X82187064Y32985000D01*
X81732936Y31515000D02*
X82187064Y31515000D01*
%TO.C,R3*%
X30292936Y18455000D02*
X30747064Y18455000D01*
X30292936Y16985000D02*
X30747064Y16985000D01*
%TD*%
M02*
