%TF.GenerationSoftware,KiCad,Pcbnew,9.0.4*%
%TF.CreationDate,2026-02-21T19:48:22-06:00*%
%TF.ProjectId,beaglebone_can_cape,62656167-6c65-4626-9f6e-655f63616e5f,rev?*%
%TF.SameCoordinates,PX5f5e100PY5f5e100*%
%TF.FileFunction,Paste,Top*%
%TF.FilePolarity,Positive*%
%FSLAX46Y46*%
G04 Gerber Fmt 4.6, Leading zero omitted, Abs format (unit mm)*
G04 Created by KiCad (PCBNEW 9.0.4) date 2026-02-21 19:48:22*
%MOMM*%
%LPD*%
G01*
G04 APERTURE LIST*
G04 Aperture macros list*
%AMRoundRect*
0 Rectangle with rounded corners*
0 $1 Rounding radius*
0 $2 $3 $4 $5 $6 $7 $8 $9 X,Y pos of 4 corners*
0 Add a 4 corners polygon primitive as box body*
4,1,4,$2,$3,$4,$5,$6,$7,$8,$9,$2,$3,0*
0 Add four circle primitives for the rounded corners*
1,1,$1+$1,$2,$3*
1,1,$1+$1,$4,$5*
1,1,$1+$1,$6,$7*
1,1,$1+$1,$8,$9*
0 Add four rect primitives between the rounded corners*
20,1,$1+$1,$2,$3,$4,$5,0*
20,1,$1+$1,$4,$5,$6,$7,0*
20,1,$1+$1,$6,$7,$8,$9,0*
20,1,$1+$1,$8,$9,$2,$3,0*%
G04 Aperture macros list end*
%ADD10RoundRect,0.250000X0.262500X0.450000X-0.262500X0.450000X-0.262500X-0.450000X0.262500X-0.450000X0*%
%ADD11RoundRect,0.150000X-0.350000X-0.600000X0.350000X-0.600000X0.350000X0.600000X-0.350000X0.600000X0*%
%ADD12RoundRect,0.060000X-0.440000X-0.140000X0.440000X-0.140000X0.440000X0.140000X-0.440000X0.140000X0*%
%ADD13RoundRect,0.150000X-0.150000X0.512500X-0.150000X-0.512500X0.150000X-0.512500X0.150000X0.512500X0*%
%ADD14O,0.650001X1.649999*%
%ADD15RoundRect,0.243750X-0.243750X-0.456250X0.243750X-0.456250X0.243750X0.456250X-0.243750X0.456250X0*%
%ADD16RoundRect,0.250000X0.250000X0.475000X-0.250000X0.475000X-0.250000X-0.475000X0.250000X-0.475000X0*%
%ADD17RoundRect,0.250000X0.475000X-0.250000X0.475000X0.250000X-0.475000X0.250000X-0.475000X-0.250000X0*%
%ADD18RoundRect,0.250000X0.550000X-1.500000X0.550000X1.500000X-0.550000X1.500000X-0.550000X-1.500000X0*%
%ADD19RoundRect,0.250000X-0.262500X-0.450000X0.262500X-0.450000X0.262500X0.450000X-0.262500X0.450000X0*%
%ADD20RoundRect,0.250000X-0.450000X0.262500X-0.450000X-0.262500X0.450000X-0.262500X0.450000X0.262500X0*%
%ADD21RoundRect,0.250000X1.500000X0.550000X-1.500000X0.550000X-1.500000X-0.550000X1.500000X-0.550000X0*%
%ADD22RoundRect,0.322500X2.927500X0.752500X-2.927500X0.752500X-2.927500X-0.752500X2.927500X-0.752500X0*%
G04 APERTURE END LIST*
D10*
%TO.C,R4*%
X31252500Y14730000D03*
X29427500Y14730000D03*
%TD*%
D11*
%TO.C,D1*%
X37980000Y9912500D03*
D12*
X38000000Y8292500D03*
%TD*%
D13*
%TO.C,U3*%
X36080000Y16467500D03*
X35130000Y16467500D03*
X34180000Y16467500D03*
X34180000Y14192500D03*
X35130000Y14192500D03*
X36080000Y14192500D03*
%TD*%
D14*
%TO.C,U1*%
X68210000Y18600001D03*
X69480000Y18600001D03*
X70750000Y18600001D03*
X72020000Y18600001D03*
X72020000Y24250000D03*
X70750000Y24250000D03*
X69480000Y24250000D03*
X68210000Y24250000D03*
%TD*%
D15*
%TO.C,D2*%
X68245000Y44510000D03*
X70120000Y44510000D03*
%TD*%
D16*
%TO.C,C1*%
X70815000Y15175002D03*
X68915000Y15175002D03*
%TD*%
D17*
%TO.C,Cboot1*%
X37970000Y16570000D03*
X37970000Y18470000D03*
%TD*%
D18*
%TO.C,Cout1*%
X33900000Y30700000D03*
X33900000Y36300000D03*
%TD*%
D15*
%TO.C,D3*%
X78765000Y43070000D03*
X80640000Y43070000D03*
%TD*%
D19*
%TO.C,R1*%
X69952500Y32175002D03*
X71777500Y32175002D03*
%TD*%
D20*
%TO.C,R6*%
X11525002Y15402500D03*
X11525002Y13577500D03*
%TD*%
D21*
%TO.C,Cin1*%
X33760000Y9950000D03*
X28160000Y9950000D03*
%TD*%
D14*
%TO.C,U2*%
X78805000Y18674999D03*
X80075000Y18674999D03*
X81345000Y18674999D03*
X82615000Y18674999D03*
X82615000Y24324998D03*
X81345000Y24324998D03*
X80075000Y24324998D03*
X78805000Y24324998D03*
%TD*%
D22*
%TO.C,L1*%
X34000000Y21525000D03*
X34000000Y25875000D03*
%TD*%
D16*
%TO.C,C2*%
X81210000Y15250000D03*
X79310000Y15250000D03*
%TD*%
D19*
%TO.C,R2*%
X81047500Y32250000D03*
X82872500Y32250000D03*
%TD*%
%TO.C,R3*%
X29607500Y17720000D03*
X31432500Y17720000D03*
%TD*%
M02*
