%TF.GenerationSoftware,KiCad,Pcbnew,9.0.4*%
%TF.CreationDate,2026-02-21T19:48:22-06:00*%
%TF.ProjectId,beaglebone_can_cape,62656167-6c65-4626-9f6e-655f63616e5f,rev?*%
%TF.SameCoordinates,PX5f5e100PY5f5e100*%
%TF.FileFunction,Soldermask,Top*%
%TF.FilePolarity,Negative*%
%FSLAX46Y46*%
G04 Gerber Fmt 4.6, Leading zero omitted, Abs format (unit mm)*
G04 Created by KiCad (PCBNEW 9.0.4) date 2026-02-21 19:48:22*
%MOMM*%
%LPD*%
G01*
G04 APERTURE LIST*
G04 Aperture macros list*
%AMRoundRect*
0 Rectangle with rounded corners*
0 $1 Rounding radius*
0 $2 $3 $4 $5 $6 $7 $8 $9 X,Y pos of 4 corners*
0 Add a 4 corners polygon primitive as box body*
4,1,4,$2,$3,$4,$5,$6,$7,$8,$9,$2,$3,0*
0 Add four circle primitives for the rounded corners*
1,1,$1+$1,$2,$3*
1,1,$1+$1,$4,$5*
1,1,$1+$1,$6,$7*
1,1,$1+$1,$8,$9*
0 Add four rect primitives between the rounded corners*
20,1,$1+$1,$2,$3,$4,$5,0*
20,1,$1+$1,$4,$5,$6,$7,0*
20,1,$1+$1,$6,$7,$8,$9,0*
20,1,$1+$1,$8,$9,$2,$3,0*%
G04 Aperture macros list end*
%ADD10R,1.700000X1.700000*%
%ADD11C,1.700000*%
%ADD12RoundRect,0.250000X0.262500X0.450000X-0.262500X0.450000X-0.262500X-0.450000X0.262500X-0.450000X0*%
%ADD13C,2.794000*%
%ADD14RoundRect,0.150000X-0.350000X-0.600000X0.350000X-0.600000X0.350000X0.600000X-0.350000X0.600000X0*%
%ADD15RoundRect,0.060000X-0.440000X-0.140000X0.440000X-0.140000X0.440000X0.140000X-0.440000X0.140000X0*%
%ADD16C,3.200000*%
%ADD17RoundRect,0.150000X-0.150000X0.512500X-0.150000X-0.512500X0.150000X-0.512500X0.150000X0.512500X0*%
%ADD18O,0.650001X1.649999*%
%ADD19RoundRect,0.243750X-0.243750X-0.456250X0.243750X-0.456250X0.243750X0.456250X-0.243750X0.456250X0*%
%ADD20RoundRect,0.250000X0.250000X0.475000X-0.250000X0.475000X-0.250000X-0.475000X0.250000X-0.475000X0*%
%ADD21RoundRect,0.250000X0.475000X-0.250000X0.475000X0.250000X-0.475000X0.250000X-0.475000X-0.250000X0*%
%ADD22RoundRect,0.250000X0.550000X-1.500000X0.550000X1.500000X-0.550000X1.500000X-0.550000X-1.500000X0*%
%ADD23RoundRect,0.270000X1.000000X0.630000X-1.000000X0.630000X-1.000000X-0.630000X1.000000X-0.630000X0*%
%ADD24RoundRect,0.250000X-0.262500X-0.450000X0.262500X-0.450000X0.262500X0.450000X-0.262500X0.450000X0*%
%ADD25RoundRect,0.250000X-0.450000X0.262500X-0.450000X-0.262500X0.450000X-0.262500X0.450000X0.262500X0*%
%ADD26RoundRect,0.250000X1.500000X0.550000X-1.500000X0.550000X-1.500000X-0.550000X1.500000X-0.550000X0*%
%ADD27RoundRect,0.322500X2.927500X0.752500X-2.927500X0.752500X-2.927500X-0.752500X2.927500X-0.752500X0*%
G04 APERTURE END LIST*
D10*
%TO.C,P8*%
X19685000Y50165000D03*
D11*
X19685000Y52705000D03*
X22225000Y50165000D03*
X22225000Y52705000D03*
X24765000Y50165000D03*
X24765000Y52705000D03*
X27305000Y50165000D03*
X27305000Y52705000D03*
X29845000Y50165000D03*
X29845000Y52705000D03*
X32385000Y50165000D03*
X32385000Y52705000D03*
X34925000Y50165000D03*
X34925000Y52705000D03*
X37465000Y50165000D03*
X37465000Y52705000D03*
X40005000Y50165000D03*
X40005000Y52705000D03*
X42545000Y50165000D03*
X42545000Y52705000D03*
X45085000Y50165000D03*
X45085000Y52705000D03*
X47625000Y50165000D03*
X47625000Y52705000D03*
X50165000Y50165000D03*
X50165000Y52705000D03*
X52705000Y50165000D03*
X52705000Y52705000D03*
X55245000Y50165000D03*
X55245000Y52705000D03*
X57785000Y50165000D03*
X57785000Y52705000D03*
X60325000Y50165000D03*
X60325000Y52705000D03*
X62865000Y50165000D03*
X62865000Y52705000D03*
X65405000Y50165000D03*
X65405000Y52705000D03*
X67945000Y50165000D03*
X67945000Y52705000D03*
X70485000Y50165000D03*
X70485000Y52705000D03*
X73025000Y50165000D03*
X73025000Y52705000D03*
X75565000Y50165000D03*
X75565000Y52705000D03*
%TD*%
D10*
%TO.C,P9*%
X19685000Y1905000D03*
D11*
X19685000Y4445000D03*
X22225000Y1905000D03*
X22225000Y4445000D03*
X24765000Y1905000D03*
X24765000Y4445000D03*
X27305000Y1905000D03*
X27305000Y4445000D03*
X29845000Y1905000D03*
X29845000Y4445000D03*
X32385000Y1905000D03*
X32385000Y4445000D03*
X34925000Y1905000D03*
X34925000Y4445000D03*
X37465000Y1905000D03*
X37465000Y4445000D03*
X40005000Y1905000D03*
X40005000Y4445000D03*
X42545000Y1905000D03*
X42545000Y4445000D03*
X45085000Y1905000D03*
X45085000Y4445000D03*
X47625000Y1905000D03*
X47625000Y4445000D03*
X50165000Y1905000D03*
X50165000Y4445000D03*
X52705000Y1905000D03*
X52705000Y4445000D03*
X55245000Y1905000D03*
X55245000Y4445000D03*
X57785000Y1905000D03*
X57785000Y4445000D03*
X60325000Y1905000D03*
X60325000Y4445000D03*
X62865000Y1905000D03*
X62865000Y4445000D03*
X65405000Y1905000D03*
X65405000Y4445000D03*
X67945000Y1905000D03*
X67945000Y4445000D03*
X70485000Y1905000D03*
X70485000Y4445000D03*
X73025000Y1905000D03*
X73025000Y4445000D03*
X75565000Y1905000D03*
X75565000Y4445000D03*
%TD*%
D10*
%TO.C,JP2*%
X78170000Y28750000D03*
D11*
X80710000Y28750000D03*
%TD*%
D12*
%TO.C,R4*%
X31252500Y14730000D03*
X29427500Y14730000D03*
%TD*%
D13*
%TO.C,J3*%
X46620000Y16105000D03*
X46620000Y20550000D03*
X46620000Y24995000D03*
X46620000Y29440000D03*
X46620000Y33885000D03*
X46620000Y38330000D03*
X55764000Y38330000D03*
X55764000Y33885000D03*
X55764000Y29440000D03*
X55764000Y24995000D03*
X55764000Y20550000D03*
X55764000Y16105000D03*
%TD*%
D14*
%TO.C,D1*%
X37980000Y9912500D03*
D15*
X38000000Y8292500D03*
%TD*%
D16*
%TO.C,MH3*%
X80645000Y48260000D03*
%TD*%
D10*
%TO.C,JP3*%
X17160002Y14490000D03*
D11*
X14620002Y14490000D03*
%TD*%
D10*
%TO.C,J1*%
X67340000Y36175002D03*
D11*
X69880000Y36175002D03*
%TD*%
D17*
%TO.C,U3*%
X36080000Y16467500D03*
X35130000Y16467500D03*
X34180000Y16467500D03*
X34180000Y14192500D03*
X35130000Y14192500D03*
X36080000Y14192500D03*
%TD*%
D18*
%TO.C,U1*%
X68210000Y18600001D03*
X69480000Y18600001D03*
X70750000Y18600001D03*
X72020000Y18600001D03*
X72020000Y24250000D03*
X70750000Y24250000D03*
X69480000Y24250000D03*
X68210000Y24250000D03*
%TD*%
D19*
%TO.C,D2*%
X68245000Y44510000D03*
X70120000Y44510000D03*
%TD*%
D16*
%TO.C,MH4*%
X80645000Y6350000D03*
%TD*%
D20*
%TO.C,C1*%
X70815000Y15175002D03*
X68915000Y15175002D03*
%TD*%
D21*
%TO.C,Cboot1*%
X37970000Y16570000D03*
X37970000Y18470000D03*
%TD*%
D10*
%TO.C,J2*%
X78185000Y36000000D03*
D11*
X80725000Y36000000D03*
%TD*%
D16*
%TO.C,MH1*%
X14605000Y51435000D03*
%TD*%
D22*
%TO.C,Cout1*%
X33900000Y30700000D03*
X33900000Y36300000D03*
%TD*%
D23*
%TO.C,J5*%
X8650000Y8530000D03*
X8650000Y10530000D03*
%TD*%
D10*
%TO.C,JP1*%
X67340000Y28675002D03*
D11*
X69880000Y28675002D03*
%TD*%
D19*
%TO.C,D3*%
X78765000Y43070000D03*
X80640000Y43070000D03*
%TD*%
D24*
%TO.C,R1*%
X69952500Y32175002D03*
X71777500Y32175002D03*
%TD*%
D16*
%TO.C,MH2*%
X14605000Y3175000D03*
%TD*%
D25*
%TO.C,R6*%
X11525002Y15402500D03*
X11525002Y13577500D03*
%TD*%
D26*
%TO.C,Cin1*%
X33760000Y9950000D03*
X28160000Y9950000D03*
%TD*%
D18*
%TO.C,U2*%
X78805000Y18674999D03*
X80075000Y18674999D03*
X81345000Y18674999D03*
X82615000Y18674999D03*
X82615000Y24324998D03*
X81345000Y24324998D03*
X80075000Y24324998D03*
X78805000Y24324998D03*
%TD*%
D27*
%TO.C,L1*%
X34000000Y21525000D03*
X34000000Y25875000D03*
%TD*%
D20*
%TO.C,C2*%
X81210000Y15250000D03*
X79310000Y15250000D03*
%TD*%
D24*
%TO.C,R2*%
X81047500Y32250000D03*
X82872500Y32250000D03*
%TD*%
%TO.C,R3*%
X29607500Y17720000D03*
X31432500Y17720000D03*
%TD*%
D10*
%TO.C,J4*%
X14605000Y10715000D03*
D11*
X14605000Y8175000D03*
X17145000Y10715000D03*
X17145000Y8175000D03*
%TD*%
M02*
