M48
; DRILL file {KiCad 9.0.4} date 2026-02-21T19:48:30-0600
; FORMAT={-:-/ absolute / metric / decimal}
; #@! TF.CreationDate,2026-02-21T19:48:30-06:00
; #@! TF.GenerationSoftware,Kicad,Pcbnew,9.0.4
; #@! TF.FileFunction,Plated,1,2,PTH
FMAT,2
METRIC
; #@! TA.AperFunction,Plated,PTH,ViaDrill
T1C0.400
; #@! TA.AperFunction,Plated,PTH,ViaDrill
T2C0.600
; #@! TA.AperFunction,Plated,PTH,ComponentDrill
T3C0.900
; #@! TA.AperFunction,Plated,PTH,ComponentDrill
T4C1.000
; #@! TA.AperFunction,Plated,PTH,ComponentDrill
T5C1.829
%
G90
G05
T1
X11.76Y11.86
X26.2Y14.3
X32.98Y16.66
X36.62Y17.44
X37.5Y7.05
X50.875Y6.475
X53.26Y43.45
X64.58Y35.12
X64.6Y14.5
X65.42Y40.21
X66.1Y15.4
X66.2Y14.2
X66.825Y6.475
X67.17Y45.28
X67.8Y11.8
X68.5Y13.5
X69.25Y16.9
X70.0Y13.5
X73.575Y17.25
X73.64Y46.5
X74.55Y15.6
X76.7Y15.1
X77.42Y43.65
X77.5Y12.3
X77.7Y13.9
X78.2Y16.7
X79.5Y13.2
X79.625Y16.975
X81.4Y11.8
X82.7Y12.9
X83.8Y11.5
T2
X24.87Y10.01
X25.87Y7.95
X26.42Y11.9
X31.7Y38.8
X33.9Y39.7
X36.6Y39.0
T3
X8.65Y10.53
X8.65Y8.53
T4
X14.605Y10.715
X14.605Y8.175
X14.62Y14.49
X17.145Y10.715
X17.145Y8.175
X17.16Y14.49
X19.685Y52.705
X19.685Y50.165
X19.685Y4.445
X19.685Y1.905
X22.225Y52.705
X22.225Y50.165
X22.225Y4.445
X22.225Y1.905
X24.765Y52.705
X24.765Y50.165
X24.765Y4.445
X24.765Y1.905
X27.305Y52.705
X27.305Y50.165
X27.305Y4.445
X27.305Y1.905
X29.845Y52.705
X29.845Y50.165
X29.845Y4.445
X29.845Y1.905
X32.385Y52.705
X32.385Y50.165
X32.385Y4.445
X32.385Y1.905
X34.925Y52.705
X34.925Y50.165
X34.925Y4.445
X34.925Y1.905
X37.465Y52.705
X37.465Y50.165
X37.465Y4.445
X37.465Y1.905
X40.005Y52.705
X40.005Y50.165
X40.005Y4.445
X40.005Y1.905
X42.545Y52.705
X42.545Y50.165
X42.545Y4.445
X42.545Y1.905
X45.085Y52.705
X45.085Y50.165
X45.085Y4.445
X45.085Y1.905
X47.625Y52.705
X47.625Y50.165
X47.625Y4.445
X47.625Y1.905
X50.165Y52.705
X50.165Y50.165
X50.165Y4.445
X50.165Y1.905
X52.705Y52.705
X52.705Y50.165
X52.705Y4.445
X52.705Y1.905
X55.245Y52.705
X55.245Y50.165
X55.245Y4.445
X55.245Y1.905
X57.785Y52.705
X57.785Y50.165
X57.785Y4.445
X57.785Y1.905
X60.325Y52.705
X60.325Y50.165
X60.325Y4.445
X60.325Y1.905
X62.865Y52.705
X62.865Y50.165
X62.865Y4.445
X62.865Y1.905
X65.405Y52.705
X65.405Y50.165
X65.405Y4.445
X65.405Y1.905
X67.34Y36.175
X67.34Y28.675
X67.945Y52.705
X67.945Y50.165
X67.945Y4.445
X67.945Y1.905
X69.88Y36.175
X69.88Y28.675
X70.485Y52.705
X70.485Y50.165
X70.485Y4.445
X70.485Y1.905
X73.025Y52.705
X73.025Y50.165
X73.025Y4.445
X73.025Y1.905
X75.565Y52.705
X75.565Y50.165
X75.565Y4.445
X75.565Y1.905
X78.17Y28.75
X78.185Y36.0
X80.71Y28.75
X80.725Y36.0
T5
X46.62Y38.33
X46.62Y33.885
X46.62Y29.44
X46.62Y24.995
X46.62Y20.55
X46.62Y16.105
X55.764Y38.33
X55.764Y33.885
X55.764Y29.44
X55.764Y24.995
X55.764Y20.55
X55.764Y16.105
M30
